<?xml version="1.0" encoding="UTF-8" standalone="no"?> <svg width="60" height="60" viewBox="0 0 60 60" fill="none" xmlns="http://www.w3.org/2000/svg">
<g clip-path="url(#clip0)">
<path d="M29.9999 60.0003C24.1205 60.0088 18.3694 58.2824 13.4667 55.0374C13.3567 54.9652 13.262 54.8719 13.1882 54.763C13.1143 54.6541 13.0626 54.5317 13.0362 54.4028C13.0097 54.2739 13.0089 54.141 13.0339 54.0118C13.0589 53.8826 13.1091 53.7596 13.1817 53.6499C13.2543 53.5401 13.3479 53.4458 13.457 53.3723C13.5662 53.2987 13.6887 53.2475 13.8177 53.2214C13.9467 53.1954 14.0796 53.195 14.2087 53.2204C14.3378 53.2458 14.4607 53.2964 14.5702 53.3694C20.2883 57.1442 27.1919 58.6915 33.9741 57.7185C40.7563 56.7455 46.9464 53.3197 51.3726 48.0896C55.7988 42.8595 58.1539 36.188 57.992 29.3383C57.83 22.4885 55.1624 15.9358 50.494 10.9207L10.204 51.2103L10.1981 51.2162L10.1971 51.2172C10.1043 51.31 9.99406 51.3837 9.87274 51.434C9.75143 51.4842 9.62139 51.5101 9.49008 51.5101C9.35876 51.5101 9.22873 51.4842 9.10741 51.434C8.9861 51.3837 8.87587 51.31 8.78304 51.2172C8.75765 51.1918 8.73324 51.1644 8.71078 51.1371C3.42888 45.8159 0.330798 38.7099 0.0266665 31.2185C-0.277465 23.7271 2.2344 16.3934 7.06758 10.6616C11.9008 4.92977 18.7049 1.21536 26.14 0.249877C33.5752 -0.71561 41.1023 1.13781 47.2391 5.44511C47.3465 5.52065 47.438 5.6166 47.5083 5.72749C47.5787 5.83838 47.6264 5.96203 47.649 6.09139C47.6715 6.22075 47.6684 6.35328 47.6397 6.48141C47.611 6.60955 47.5573 6.73078 47.4818 6.83818C47.4063 6.94559 47.3103 7.03706 47.1994 7.10739C47.0885 7.17771 46.9649 7.2255 46.8355 7.24804C46.7062 7.27057 46.5736 7.26741 46.4455 7.23872C46.3174 7.21004 46.1961 7.1564 46.0887 7.08086C40.4245 3.10481 33.4884 1.36717 26.6186 2.20313C19.7488 3.0391 13.432 6.38944 8.88653 11.6079C4.3411 16.8263 1.88916 23.5432 2.00368 30.4627C2.11821 37.3822 4.79108 44.0142 9.50671 49.0794L49.7801 8.80595C49.8016 8.78349 49.8241 8.76201 49.8475 8.7415C50.0431 8.57079 50.2971 8.48244 50.5564 8.495C50.8157 8.50757 51.06 8.62006 51.2382 8.80888L51.2645 8.83867C55.4455 13.04 58.2883 18.3857 59.434 24.2012C60.5798 30.0166 59.9772 36.0411 57.7023 41.5144C55.4274 46.9877 51.5821 51.6645 46.6518 54.9545C41.7215 58.2445 35.9271 60.0003 29.9999 60.0003V60.0003Z" fill="black"/>
</g>
<defs>
<clipPath id="clip0">
<rect width="60" height="60" fill="white"/>
</clipPath>
</defs>
</svg>
