
<svg width="28" height="26" xmlns="http://www.w3.org/2000/svg" viewBox="0 0 220.92 220.92"><g id="Шар_2" data-name="Шар 2"><g id="Шар_1-2" data-name="Шар 1"><path d="M113,220.92h-5l-.35-.11c-.63-.19-1.27-.35-1.91-.52a24.11,24.11,0,0,1-4.84-1.61c-8.58-4.19-13.13-11.64-13.15-21.57q0-22.74,0-45.48V133.2H23.82c-8.15,0-14.65-3.13-19.33-9.29A26.55,26.55,0,0,1,.06,113.09L0,112.83v-4.75l.06-.26A26.47,26.47,0,0,1,4.5,97c4.67-6.16,11.19-9.28,19.35-9.28H87.73V69.25c0-14.94,0-30.39,0-45.58,0-9.87,4.41-17.08,13-21.44a22.67,22.67,0,0,1,32.06,17.15,50.83,50.83,0,0,1,.36,6q0,23.24,0,46.49V87.71h18.24q22.82,0,45.63,0c9.9,0,17.14,4.34,21.52,12.88a22.65,22.65,0,0,1-17.09,32.23h0a50.06,50.06,0,0,1-5.75.35q-31.09,0-62.2,0h-.35v18.38q0,22.75,0,45.52c0,9.92-4.56,17.38-13.14,21.58a25,25,0,0,1-4.84,1.61c-.65.17-1.29.33-1.92.52Zm-4.23-5h3.5c.58-.17,1.17-.32,1.75-.47a21.77,21.77,0,0,0,3.9-1.26c6.94-3.4,10.32-9,10.33-17.09q0-22.77,0-45.52V128.2h5.35q31.09,0,62.2,0a46.91,46.91,0,0,0,5.17-.31,17.68,17.68,0,0,0,13.23-25c-3.51-6.83-9.1-10.15-17.08-10.16q-22.82,0-45.63,0H128.21V71.83q0-23.23,0-46.48a47.6,47.6,0,0,0-.32-5.39A17.69,17.69,0,0,0,103,6.69c-6.91,3.49-10.27,9.05-10.29,17,0,15.19,0,30.63,0,45.57V92.71H23.85c-6.61,0-11.64,2.39-15.37,7.3A21.79,21.79,0,0,0,5,108.62v3.67a21.72,21.72,0,0,0,3.47,8.6c3.74,4.92,8.76,7.31,15.35,7.31H92.73v23.43q0,22.74,0,45.47c0,8.11,3.4,13.7,10.35,17.09a20.07,20.07,0,0,0,3.88,1.26C107.55,215.6,108.14,215.75,108.72,215.92Z"/><path d="M189,65.69h-1.92l-.36-.11-.46-.12a9.09,9.09,0,0,1-1.71-.58,8.16,8.16,0,0,1-4.7-7.68c0-4.27,0-8.55,0-12.82V41H163.72a8.3,8.3,0,0,1-6.86-3.32A9.18,9.18,0,0,1,155.29,34l-.06-.26V32l.06-.26A9.18,9.18,0,0,1,156.86,28a8.3,8.3,0,0,1,6.87-3.32h16.16V21.34q0-6.45,0-12.89A8.19,8.19,0,0,1,184.54.82,8.18,8.18,0,0,1,196.15,7a17.36,17.36,0,0,1,.11,1.88q0,6.54,0,13.07v2.66h16.15a8.15,8.15,0,0,1,7.65,4.6,8.16,8.16,0,0,1-6.2,11.67h0a16.29,16.29,0,0,1-1.82.11H196.27v3.34q0,6.41,0,12.83a8.14,8.14,0,0,1-4.7,7.68,9.26,9.26,0,0,1-1.7.58l-.47.12Zm-1.21-5h.5l.28-.08a4.14,4.14,0,0,0,.76-.23,3.13,3.13,0,0,0,1.89-3.19q0-6.4,0-12.82V36h20.78a10.88,10.88,0,0,0,1.24-.08h0a3.17,3.17,0,0,0,2.33-4.41,3.21,3.21,0,0,0-3.2-1.89H191.27V22q0-6.54,0-13.07a9.9,9.9,0,0,0-.08-1.31,3,3,0,0,0-1.61-2.21,3,3,0,0,0-2.77-.12,3.2,3.2,0,0,0-1.91,3.18q0,6.43,0,12.88v8.31H163.73A3.34,3.34,0,0,0,160.84,31a4.11,4.11,0,0,0-.61,1.54v.63a4.13,4.13,0,0,0,.61,1.53A3.28,3.28,0,0,0,163.72,36h21.17v8.35c0,4.27,0,8.54,0,12.81a3.13,3.13,0,0,0,1.9,3.19,4.25,4.25,0,0,0,.75.23Z"/></g></g></svg>