<svg width="11" height="28" viewBox="0 0 11 28" fill="none" xmlns="http://www.w3.org/2000/svg">
<g clip-path="url(#clip0_821_1311)">
<path d="M1.85155 27.7678C1.36062 27.5967 0.962269 27.3242 0.831707 26.7853C0.795172 26.6216 0.778178 26.4541 0.781081 26.2864C0.777084 21.5884 0.775085 16.8906 0.775085 12.193C0.775085 11.437 1.0502 10.8408 1.64705 10.3791C2.24391 9.91751 2.82944 9.44655 3.41297 8.96894C3.47958 8.91298 3.55619 8.78975 3.53953 8.71847C3.27308 7.56007 3.377 6.41166 3.61014 5.26524C3.63812 5.12669 3.67209 4.9888 3.7114 4.85291C3.77801 4.61843 3.86993 4.39727 3.68009 4.16013C3.60948 4.07087 3.62014 3.905 3.61947 3.77444C3.61414 2.95909 3.61414 2.14353 3.61947 1.32774C3.61947 0.794831 3.87993 0.537704 4.41883 0.537038C5.37717 0.53615 6.33485 0.535706 7.29185 0.535706C7.7728 0.535706 8.04125 0.78817 8.04525 1.26379C8.05258 2.1231 8.04925 2.98307 8.04525 3.84305C8.04525 3.95563 8.04525 4.09885 7.97864 4.17612C7.80411 4.38462 7.88271 4.57979 7.93867 4.79562C8.27173 6.08658 8.42161 7.38754 8.13118 8.71114C8.11453 8.78508 8.18114 8.91098 8.24709 8.96294C8.79598 9.41191 9.34154 9.86555 9.91242 10.2865C10.6025 10.7968 10.9036 11.4556 10.901 12.3163C10.8859 16.8984 10.8859 21.4809 10.901 26.0639C10.905 26.8999 10.6445 27.4894 9.82649 27.7678H1.85155ZM10.0843 13.3554H4.93774C4.84887 13.3594 4.75982 13.3569 4.67129 13.3481C4.46013 13.3161 4.33023 13.1842 4.32224 12.9751C4.31358 12.7519 4.44148 12.6093 4.6633 12.5687C4.75161 12.5571 4.84079 12.5535 4.92975 12.5581H10.0703C10.1862 11.8526 9.98902 11.3257 9.41948 10.91C8.72604 10.4031 8.0679 9.84757 7.3991 9.31133C7.11666 9.08351 7.14997 9.01823 7.2712 8.6805C7.40443 8.31613 7.44307 7.92045 7.525 7.52743H4.14505C4.22232 7.92111 4.25229 8.29881 4.37619 8.64253C4.52874 9.06686 4.55605 9.08684 4.203 9.36862C3.53154 9.90485 2.87074 10.4584 2.18196 10.9673C1.63173 11.375 1.5045 11.8999 1.60176 12.5594H1.86155C2.18062 12.5594 2.4997 12.5514 2.81878 12.5627C3.11987 12.5727 3.29706 12.7859 3.23178 13.0503C3.17716 13.2755 3.00996 13.3567 2.79347 13.3567H1.59443V24.9974H10.0843V13.3554ZM1.57444 25.8261V26.1865C1.57444 26.8226 1.72099 26.9698 2.35515 26.9698H9.32156C9.4189 26.9736 9.51638 26.9707 9.61332 26.9612C9.87378 26.9252 10.0576 26.7553 10.0836 26.4949C10.1043 26.2784 10.0876 26.0586 10.0876 25.8287L1.57444 25.8261ZM4.57803 4.57646C4.43881 5.27857 4.30558 5.97401 4.1617 6.68943H7.45772C7.42018 6.01361 7.29179 5.34592 7.07603 4.70436C7.06135 4.67247 7.03923 4.64456 7.01153 4.623C6.98382 4.60144 6.95134 4.58685 6.91682 4.58046C6.1561 4.57247 5.39471 4.57513 4.58003 4.57513L4.57803 4.57646ZM4.43148 3.76312H7.22524V2.81321H4.43148V3.76312ZM4.43148 1.92126H7.23057V1.34905H4.43282L4.43148 1.92126Z" fill="black"/>
<path d="M5.8324 14.1468C6.86224 14.1375 7.8228 14.3913 8.74406 14.8069C9.17305 15.0008 9.32426 15.4591 9.10777 15.8781C9.00218 16.0826 8.88474 16.2808 8.75605 16.4716C8.50359 16.8466 8.17185 16.9239 7.73887 16.7933C7.20596 16.6335 6.67306 16.4709 6.12683 16.3937C5.43139 16.2924 4.75593 16.4603 4.10512 16.7174C3.41167 16.9892 3.16121 16.9012 2.77752 16.2564C2.70091 16.1272 2.61831 16 2.55236 15.8654C2.35252 15.4577 2.5024 14.9994 2.91607 14.8123C3.84599 14.3913 4.81455 14.1335 5.8324 14.1468ZM3.59419 16.0653C5.09899 15.3991 6.59179 15.4144 8.07859 16.0653L8.39034 15.5284C6.66573 14.757 4.98175 14.757 3.27711 15.5284L3.59419 16.0653Z" fill="black"/>
<path d="M5.90899 17.548C6.5658 17.5554 7.26857 17.7119 7.85143 18.1975C8.80533 18.9922 8.79001 20.102 7.83278 20.892C6.78829 21.758 4.76857 21.7194 3.75672 20.8207C2.82413 19.9881 2.92738 18.7457 3.98587 18.0663C4.54675 17.7059 5.16226 17.5527 5.90899 17.548ZM5.86569 18.3474C5.30081 18.3514 4.78856 18.4646 4.34558 18.7977C3.77071 19.23 3.77537 19.8422 4.35157 20.2792C5.15093 20.8827 6.5578 20.8734 7.34517 20.2592C7.88207 19.8409 7.89073 19.25 7.35916 18.8263C6.91685 18.4713 6.3966 18.3541 5.86569 18.3447V18.3474Z" fill="black"/>
<path d="M5.83312 22.6993C6.56765 22.6993 7.30239 22.6993 8.03735 22.6993C8.12634 22.6975 8.21534 22.7015 8.30381 22.7112C8.39411 22.7175 8.4787 22.7577 8.54051 22.8239C8.60231 22.89 8.63675 22.9771 8.63687 23.0676C8.64971 23.1569 8.62788 23.2478 8.57585 23.3215C8.52382 23.3952 8.44554 23.4462 8.3571 23.464C8.24516 23.4888 8.13065 23.4999 8.01604 23.4973C6.56476 23.4973 5.11303 23.4973 3.66087 23.4973C3.59023 23.4997 3.5195 23.4982 3.44904 23.4926C3.19924 23.466 3.03204 23.3041 3.03137 23.0929C3.03137 22.8691 3.20457 22.7013 3.47302 22.6993C4.26105 22.6933 5.04909 22.6993 5.83645 22.6993H5.83312Z" fill="black"/>
</g>
<defs>
<clipPath id="clip0_821_1311">
<rect width="10.1285" height="27.2321" fill="white" transform="translate(0.775085 0.535706)"/>
</clipPath>
</defs>
</svg>
