<svg width="14" height="29" viewBox="0 0 14 29" fill="none" xmlns="http://www.w3.org/2000/svg">
<g clip-path="url(#clip0_821_1318)">
<path d="M4.39764 28.1071C3.83894 27.9263 3.41696 27.5963 3.32109 26.9889C3.28847 26.7355 3.30691 26.4782 3.37531 26.2321C3.7965 24.5977 3.9906 22.9435 3.84679 21.2564C3.69699 19.6225 3.30587 18.0199 2.68616 16.5007C1.84595 14.4406 1.28438 12.2775 1.01632 10.0689C0.757189 7.94603 0.774887 5.79853 1.06897 3.68025C1.12712 3.27949 1.19705 2.89445 1.45165 2.56598C1.61757 2.34086 1.83259 2.15649 2.0804 2.02687C2.3282 1.89725 2.60228 1.82578 2.88182 1.81789C3.01949 1.81117 3.15303 1.76865 3.26923 1.69452C3.47961 1.5472 3.71762 1.44396 3.96893 1.39102C4.22025 1.33809 4.47968 1.33654 4.73161 1.38648C4.83951 1.39964 4.9484 1.37157 5.03651 1.3079C5.65729 0.836417 6.31659 0.746049 7.03324 1.06273C7.11842 1.09577 7.21288 1.09577 7.29806 1.06273C8.02572 0.741334 8.69129 0.836417 9.31994 1.32283C9.40266 1.38009 9.50419 1.40343 9.60362 1.38805C9.86467 1.33392 10.1343 1.33605 10.3944 1.39432C10.6546 1.45258 10.8993 1.56564 11.1124 1.72595C11.1973 1.78352 11.2967 1.81618 11.3992 1.82025C12.4137 1.84854 13.1193 2.52747 13.2521 3.54902C13.4634 5.11301 13.5336 6.69281 13.4619 8.26937C13.3322 11.0347 12.7404 13.7587 11.7112 16.3286C10.9701 18.1627 10.4916 20.062 10.4389 22.0532C10.3947 23.4103 10.5603 24.7661 10.9301 26.0726C11.2067 27.0313 10.8947 27.8014 9.92894 28.1071H4.39764ZM1.88306 9.75847C1.89249 9.89127 1.89564 9.99421 1.90821 10.0995C2.15458 12.0958 2.658 14.052 3.40596 15.9192C4.01496 17.4358 4.46051 18.998 4.66325 20.6246C4.90842 22.5938 4.7214 24.5301 4.22477 26.4443C4.08332 26.9896 4.26327 27.2199 4.81805 27.2207H9.49753C10.0578 27.2207 10.2393 26.9912 10.101 26.4522C9.80038 25.3218 9.61996 24.1629 9.56275 22.9946C9.4771 20.858 9.8535 18.7913 10.5961 16.7985C11.2703 14.9912 11.9367 13.1838 12.2416 11.2633C12.3202 10.7706 12.3869 10.2763 12.4624 9.75847H11.2153C9.5934 9.75847 7.97149 9.75847 6.34959 9.76397C6.25686 9.76397 6.11385 9.81662 6.07927 9.88734C5.80738 10.4083 5.38462 10.6975 4.80391 10.6975C4.2232 10.6975 3.81929 10.4036 3.55369 9.89127C3.53701 9.85917 3.51342 9.83117 3.48461 9.80929C3.4558 9.78741 3.4225 9.7722 3.3871 9.76476C2.89361 9.75454 2.39934 9.75847 1.88542 9.75847H1.88306ZM9.96116 4.12973V4.4307C9.96116 5.06956 9.96587 5.70764 9.96116 6.34571C9.96325 6.53126 9.94052 6.71625 9.89358 6.89578C9.80271 7.20471 9.60512 7.47136 9.33602 7.64823C9.06691 7.82509 8.74376 7.90068 8.42412 7.86153C7.73811 7.77588 7.22812 7.25017 7.20926 6.56495C7.18805 5.84829 7.19826 5.13007 7.19826 4.41105V4.13366H6.21679V8.85401H12.537C12.6376 7.26353 12.6345 5.69506 12.4262 4.12973H9.96116ZM2.09837 3.22606H3.66999C4.18705 3.22606 4.31121 3.35021 4.31121 3.86963C4.31121 5.60731 4.31121 7.34447 4.31121 9.08111C4.30808 9.18618 4.31387 9.29133 4.32849 9.39543C4.3458 9.51516 4.40739 9.62405 4.50108 9.70058C4.59478 9.77711 4.71377 9.81571 4.83455 9.80876C4.95553 9.80477 5.07072 9.75602 5.15782 9.67197C5.24492 9.58792 5.29774 9.47454 5.30604 9.35378C5.31468 9.26577 5.31075 9.17619 5.31075 9.08818C5.31075 7.34211 5.31075 5.59605 5.31075 3.84999C5.31075 3.35807 5.44748 3.22134 5.94647 3.22134C6.46039 3.22134 6.97431 3.22134 7.48901 3.22134C7.9322 3.22134 8.07365 3.36357 8.07444 3.81305C8.07444 4.61929 8.07444 5.42579 8.07444 6.23255C8.07444 6.30328 8.07444 6.374 8.07444 6.44472C8.09015 6.76926 8.29289 6.98614 8.57735 6.98614C8.86181 6.98614 9.0732 6.76769 9.07555 6.44472C9.08027 5.55833 9.07555 4.67194 9.07555 3.78634C9.07555 3.37615 9.22721 3.22291 9.63583 3.22134C10.3981 3.22134 11.1603 3.22134 11.9225 3.22134H12.2164C12.1399 3.04137 12.0043 2.89289 11.832 2.80045C11.6597 2.708 11.461 2.67713 11.2687 2.71292C11.1618 2.73989 11.0494 2.73669 10.9441 2.70367C10.8388 2.67066 10.7448 2.60913 10.6723 2.5259C10.3706 2.21158 10.0028 2.14793 9.59969 2.31295C9.2115 2.47011 9.1392 2.45518 8.85553 2.11807C8.70222 1.92478 8.48011 1.79828 8.23566 1.76503C7.99121 1.73179 7.74337 1.79437 7.54402 1.93969C7.20455 2.17543 7.12204 2.17543 6.78886 1.9444C6.58707 1.79456 6.33438 1.73024 6.08551 1.7654C5.83665 1.80055 5.61165 1.93234 5.45927 2.13221C5.20074 2.44654 5.1088 2.4709 4.73476 2.31531C4.34185 2.15343 3.97881 2.20215 3.6802 2.50233C3.4924 2.69171 3.30537 2.76243 3.03977 2.70978C2.67201 2.64063 2.31133 2.83944 2.09837 3.22606ZM1.89721 4.12973C1.7074 5.69753 1.67318 7.28026 1.79505 8.85479H3.42167V4.12973H1.89721Z" fill="black"/>
<path d="M10.5199 14.0577C10.4979 14.1362 10.468 14.2423 10.4311 14.35C10.0083 15.568 9.58083 16.786 9.16435 18.0048C9.07948 18.2547 9.03469 18.5179 8.9679 18.7749C8.88932 19.0625 8.66929 19.2165 8.4249 19.1536C8.18052 19.0908 8.0485 18.8692 8.11058 18.5729C8.40054 17.237 8.86731 15.9609 9.36787 14.6942C9.47474 14.4231 9.56039 14.1441 9.66805 13.8722C9.69985 13.7684 9.77131 13.6812 9.86693 13.6298C9.96256 13.5783 10.0746 13.5666 10.1788 13.5972C10.3926 13.6451 10.5041 13.7976 10.5199 14.0577Z" fill="black"/>
<path d="M7.18492 25.3419C7.61869 25.3419 8.04931 25.3419 8.48779 25.3419C8.80997 25.3419 9.01349 25.5132 9.01899 25.7748C9.0245 26.0365 8.82254 26.2235 8.50351 26.2251C7.60873 26.2309 6.7137 26.2309 5.8184 26.2251C5.51429 26.2251 5.31784 26.0436 5.31313 25.7913C5.30841 25.5391 5.51508 25.345 5.8294 25.3419C6.28124 25.3387 6.73308 25.3419 7.18492 25.3419Z" fill="black"/>
<path d="M11.2217 11.3262C11.1636 11.5918 11.1023 11.9407 11.0096 12.2817C10.9799 12.3857 10.9111 12.4741 10.8176 12.5283C10.7241 12.5826 10.6132 12.5984 10.5082 12.5725C10.3984 12.5493 10.3018 12.4844 10.2388 12.3915C10.1758 12.2986 10.1512 12.1849 10.1703 12.0743C10.2261 11.7434 10.2906 11.4134 10.3707 11.0873C10.3837 11.0329 10.4073 10.9817 10.4402 10.9364C10.473 10.8912 10.5144 10.8529 10.5621 10.8237C10.6098 10.7945 10.6627 10.775 10.7179 10.7663C10.7731 10.7576 10.8295 10.7599 10.8838 10.773C11.0976 10.8123 11.2351 11.0024 11.2217 11.3262Z" fill="black"/>
</g>
<defs>
<clipPath id="clip0_821_1318">
<rect width="12.6546" height="27.2321" fill="white" transform="translate(0.833313 0.874939)"/>
</clipPath>
</defs>
</svg>
