<svg class="cart-icon" width="23" height="24" viewBox="0 0 23 24" fill="none" xmlns="http://www.w3.org/2000/svg">
<path d="M22.9634 6.06611C22.6693 4.94197 21.8974 4.3391 20.7378 4.3343C19.3603 4.3307 17.9828 4.3277 16.6052 4.3391C16.3916 4.3391 16.3141 4.27072 16.2511 4.07516C15.9378 3.10098 15.6161 2.1292 15.2787 1.16342C15.0309 0.452581 14.1587 0.273222 13.6659 0.819698C13.4 1.11543 13.3616 1.45855 13.4859 1.82627C13.7388 2.5917 13.9931 3.35712 14.2488 4.12255C14.2674 4.17834 14.283 4.23593 14.3088 4.31391H8.69789C8.71469 4.24972 8.7273 4.18734 8.7471 4.12735C9.007 3.33973 9.2771 2.55571 9.5274 1.76508C9.57879 1.61549 9.59213 1.45547 9.56621 1.29945C9.54029 1.14342 9.47593 0.996288 9.37893 0.871317C9.28193 0.746346 9.15534 0.647462 9.01057 0.583577C8.86579 0.519693 8.70739 0.492816 8.54963 0.505369C8.14508 0.532363 7.83536 0.793904 7.68531 1.242C7.36719 2.19279 7.04607 3.13937 6.74055 4.09376C6.68053 4.28391 6.5935 4.3397 6.39482 4.3385C5.00991 4.3289 3.62479 4.3275 2.23947 4.3343C1.16447 4.3391 0.33736 4.94796 0.0660587 5.90895C-0.0599884 6.35165 0.018641 6.78355 0.0942693 7.21845C0.930582 12.0426 1.76649 16.8667 2.60201 21.6908C2.67123 22.1266 2.87364 22.5304 3.18151 22.8468C3.48938 23.1632 3.88762 23.3767 4.32165 23.458C4.36416 23.4692 4.40587 23.4832 4.4465 23.5H18.5518L18.7859 23.4346C19.7786 23.1526 20.269 22.4676 20.4377 21.473C21.0679 17.7599 21.7186 14.0509 22.3584 10.3401C22.5585 9.17641 22.7585 8.01287 22.9586 6.84953C22.9679 6.81433 22.9808 6.78017 22.997 6.74756V6.1189C22.9886 6.1009 22.9682 6.08531 22.9634 6.06611ZM7.6649 18.6705C7.6649 19.2433 7.23454 19.6734 6.69974 19.6692C6.16494 19.665 5.75018 19.2337 5.74778 18.6603C5.74478 18.0322 5.74778 17.4041 5.74778 16.7761C5.74778 16.1636 5.74778 15.5506 5.74778 14.9375C5.74778 14.3544 6.14453 13.9309 6.68893 13.9237C7.24834 13.9165 7.6631 14.3304 7.6661 14.9255C7.6725 16.174 7.6721 17.4223 7.6649 18.6705ZM12.4469 18.7514C12.4433 19.2313 12.0795 19.6009 11.591 19.662C11.154 19.7172 10.7092 19.4221 10.5832 18.9782C10.555 18.8624 10.5421 18.7434 10.5448 18.6243C10.5412 18.0112 10.5448 17.3981 10.5448 16.7857C10.5448 16.1354 10.5364 15.4852 10.5478 14.8349C10.5529 14.6123 10.6375 14.3989 10.7863 14.2332C10.9352 14.0676 11.1384 13.9605 11.3593 13.9315C11.8485 13.8715 12.2764 14.1463 12.4133 14.6076C12.4351 14.679 12.4466 14.7531 12.4475 14.8277C12.4505 16.1354 12.4565 17.4431 12.4469 18.7514ZM17.2487 18.6471C17.2487 19.2349 16.8321 19.6728 16.2883 19.6698C15.7523 19.6662 15.3346 19.2361 15.3322 18.6615C15.3262 17.4129 15.3262 16.1646 15.3322 14.9165C15.3352 14.3346 15.7469 13.9219 16.2955 13.9237C16.8441 13.9255 17.2469 14.3436 17.2493 14.9243C17.2529 15.5524 17.2493 16.1804 17.2493 16.8085C17.2493 17.4209 17.2511 18.034 17.2487 18.6471Z" fill="#B61F24"/>
</svg>
