<svg class="cart-mob" xmlns="http://www.w3.org/2000/svg" width="15" height="16" viewBox="0 0 15 16" fill="none">
<path d="M14.976 4.13006C14.7842 3.39692 14.2808 3.00375 13.5245 3.00062C12.6261 2.99827 11.7277 2.99632 10.8293 3.00375C10.69 3.00375 10.6395 2.95915 10.5984 2.83162C10.3941 2.19628 10.1842 1.56251 9.96424 0.932654C9.80257 0.469063 9.2338 0.352089 8.91241 0.708487C8.739 0.901356 8.71395 1.12513 8.79498 1.36495C8.95991 1.86414 9.12575 2.36333 9.29251 2.86252C9.30465 2.8989 9.31483 2.93646 9.33166 2.98732H5.67238C5.68334 2.94546 5.69156 2.90477 5.70448 2.86565C5.87397 2.35198 6.05013 1.84067 6.21336 1.32504C6.24688 1.22748 6.25558 1.12312 6.23867 1.02137C6.22177 0.919608 6.1798 0.823654 6.11654 0.742151C6.05328 0.660648 5.97072 0.596159 5.8763 0.554495C5.78188 0.512831 5.67857 0.495303 5.57569 0.50349C5.31185 0.521095 5.10986 0.691665 5.012 0.983903C4.80453 1.60398 4.5951 2.22132 4.39586 2.84374C4.35671 2.96776 4.29995 3.00414 4.17038 3.00336C3.26717 2.9971 2.36384 2.99619 1.46037 3.00062C0.759279 3.00375 0.21986 3.40083 0.0429239 4.02756C-0.0392808 4.31628 0.0119993 4.59795 0.0613221 4.88159C0.606743 8.02774 1.1519 11.1739 1.6968 14.3201C1.74195 14.6043 1.87396 14.8677 2.07474 15.074C2.27552 15.2803 2.53525 15.4196 2.81831 15.4726C2.84603 15.4799 2.87323 15.489 2.89973 15.5H12.0988L12.2515 15.4573C12.8989 15.2735 13.2188 14.8267 13.3288 14.1781C13.7398 11.7564 14.1641 9.33753 14.5814 6.91747C14.7119 6.15851 14.8424 5.39969 14.9729 4.64099C14.9789 4.61803 14.9873 4.59575 14.9979 4.57448V4.16449C14.9924 4.15275 14.9791 4.14258 14.976 4.13006ZM4.99869 12.3503C4.99869 12.7239 4.71802 13.0044 4.36924 13.0017C4.02045 12.9989 3.74996 12.7176 3.7484 12.3436C3.74644 11.934 3.7484 11.5244 3.7484 11.1148C3.7484 10.7154 3.7484 10.3156 3.7484 9.91575C3.7484 9.53549 4.00715 9.25929 4.36219 9.2546C4.72702 9.2499 4.99752 9.51984 4.99947 9.90793C5.00365 10.7222 5.00339 11.5363 4.99869 12.3503ZM8.11738 12.4031C8.11503 12.7161 7.87781 12.9571 7.55917 12.997C7.27419 13.033 6.98413 12.8405 6.90192 12.551C6.88355 12.4755 6.87513 12.3979 6.87687 12.3202C6.87452 11.9203 6.87687 11.5205 6.87687 11.1211C6.87687 10.697 6.87139 10.2729 6.87883 9.84885C6.88217 9.70369 6.93736 9.5645 7.03442 9.45645C7.13148 9.34839 7.26401 9.2786 7.40807 9.25968C7.7271 9.22056 8.00621 9.39974 8.09546 9.70058C8.10969 9.74714 8.11721 9.79548 8.11777 9.84416C8.11973 10.697 8.12364 11.5499 8.11738 12.4031ZM11.249 12.335C11.249 12.7184 10.9773 13.004 10.6227 13.0021C10.2731 12.9997 10.0006 12.7192 9.99908 12.3444C9.99517 11.5302 9.99517 10.716 9.99908 9.90206C10.001 9.52258 10.2696 9.25342 10.6274 9.2546C10.9851 9.25577 11.2478 9.52845 11.2494 9.90715C11.2517 10.3167 11.2494 10.7264 11.2494 11.136C11.2494 11.5354 11.2505 11.9352 11.249 12.335Z" fill="#B61F24"/>
</svg>