<svg width="26" height="28" viewBox="0 0 26 28" fill="none" xmlns="http://www.w3.org/2000/svg">
<g clip-path="url(#clip0_821_1325)">
<path d="M14.3835 0.535706C15.891 1.37106 16.3153 3.48141 14.953 4.88899C15.029 4.98091 15.1083 5.07284 15.1835 5.1681C15.4162 5.45944 15.5865 5.79544 15.684 6.15529C15.7816 6.51514 15.8042 6.89118 15.7505 7.26013C15.6968 7.62907 15.5679 7.98306 15.3718 8.30017C15.1758 8.61729 14.9167 8.89078 14.6106 9.10371C14.3642 9.2769 14.1144 9.27024 13.9758 9.08639C13.8253 8.88654 13.8892 8.65206 14.1477 8.45488C15.1076 7.72611 15.2628 6.46043 14.4934 5.59044C14.3768 5.46881 14.25 5.35737 14.1144 5.25737C13.8312 5.03221 13.8126 4.72911 14.107 4.53326C14.3732 4.35586 14.5917 4.11569 14.7432 3.83392C14.8946 3.55215 14.9745 3.23744 14.9756 2.91754C14.9767 2.59764 14.8991 2.28238 14.7496 1.99956C14.6001 1.71674 14.3833 1.47504 14.1184 1.29578C13.7813 1.06862 13.8159 0.79617 14.171 0.535706H14.3835Z" fill="black"/>
<path d="M24.6241 24.1307H23.6482C22.9034 24.1307 22.1587 24.1307 21.4139 24.1307C21.308 24.1344 21.202 24.1239 21.0988 24.0994C20.9043 24.0441 20.7764 23.8915 20.8324 23.7037C20.8717 23.5704 21.0149 23.4512 21.1355 23.3573C21.1927 23.312 21.3067 23.3346 21.3953 23.3346C22.5566 23.3346 23.7179 23.3346 24.8792 23.3346C25.3455 23.3346 25.4548 23.4445 25.4568 23.9155C25.4568 24.128 25.4568 24.3405 25.4568 24.5537C25.4568 24.9167 25.3615 25.0346 25.0164 25.1006C24.0598 25.2831 23.1026 25.4616 22.146 25.6428C21.1894 25.824 20.2515 26.0039 19.2742 26.1904C19.2742 26.5368 19.2742 26.8805 19.2742 27.2243C19.2709 27.6313 19.1357 27.7685 18.7313 27.7685C14.9369 27.7685 11.1428 27.7685 7.34885 27.7685C6.92985 27.7685 6.79595 27.6353 6.79262 27.2089C6.79262 26.8759 6.79262 26.5388 6.79262 26.1911C5.83137 26.0066 4.89476 25.8254 3.95749 25.6475C2.99224 25.4643 2.02566 25.2844 1.06041 25.1013C0.712018 25.0346 0.611429 24.9141 0.608765 24.5617C0.608765 24.3312 0.608765 24.1007 0.608765 23.8702C0.608765 23.4605 0.735333 23.3373 1.15234 23.3373C1.4248 23.3373 1.69658 23.3373 1.91908 23.3373C1.85646 22.8757 1.75387 22.4373 1.74721 21.9963C1.73655 21.3861 1.95372 20.8299 2.25615 20.3103C2.30275 20.2175 2.38419 20.1469 2.48267 20.114C2.58115 20.081 2.68867 20.0884 2.78174 20.1345C2.98158 20.2317 3.06219 20.4515 2.94894 20.6774C2.71712 21.1437 2.51861 21.61 2.52461 22.1429C2.52994 22.5532 2.62586 22.9336 2.95227 23.2181C2.99824 23.258 3.05419 23.3186 3.10416 23.3173C3.70369 23.3007 4.32521 23.4885 4.86012 23.0355C5.66683 22.3494 6.16577 21.524 6.0865 20.4309C6.07185 20.231 5.98525 20.0312 5.9133 19.7647C5.81138 19.898 5.75742 19.9646 5.71346 20.0359C5.30444 20.6465 4.8961 21.2578 4.48841 21.8698C4.36051 22.0623 4.1993 22.1929 3.95549 22.1089C3.68903 22.019 3.62775 21.7285 3.81294 21.4474C4.21662 20.8332 4.6283 20.2237 5.03599 19.6115C5.08461 19.5389 5.13058 19.4643 5.1952 19.3631C4.79551 19.2751 4.46243 19.3944 4.13535 19.5529C4.02411 19.6075 3.92152 19.6801 3.80827 19.7294C3.5991 19.8214 3.41658 19.7667 3.30467 19.5722C3.19275 19.3777 3.23206 19.1825 3.41791 19.0546C3.96615 18.6789 4.56302 18.4604 5.24249 18.549C5.32776 18.5603 5.41369 18.567 5.52561 18.5783C5.47698 18.2526 5.39837 17.9502 5.39238 17.6457C5.36373 16.1036 5.35374 14.5621 5.33908 13.02C5.33908 12.6743 5.33242 12.3285 5.34308 11.9828C5.34517 11.7679 5.42463 11.5609 5.56691 11.3997C5.7092 11.2386 5.90477 11.1341 6.11781 11.1055C6.24042 11.0875 6.36428 11.0794 6.48819 11.0815C9.72389 11.0815 12.9594 11.0815 16.1946 11.0815C16.3006 11.0794 16.4066 11.0875 16.5111 11.1055C16.6024 11.123 16.6843 11.1729 16.7418 11.246C16.7993 11.3191 16.8285 11.4105 16.824 11.5034C16.8196 11.5963 16.7818 11.6845 16.7175 11.7517C16.6533 11.819 16.567 11.8608 16.4744 11.8696C16.3685 11.8778 16.2622 11.8807 16.156 11.8782H6.58012C6.13446 11.8782 6.13446 11.8782 6.13446 12.3319V12.6649H19.9224C19.9224 12.4558 19.9431 12.2433 19.9111 12.0394C19.9004 11.9728 19.7539 11.8855 19.6673 11.8829C19.1443 11.8682 18.6214 11.8762 18.0985 11.8749C18.0099 11.8749 17.8953 11.8989 17.8387 11.8542C17.7181 11.759 17.5529 11.6304 17.5449 11.5058C17.5369 11.3813 17.6781 11.2241 17.7901 11.1228C17.8567 11.0648 17.9899 11.0802 18.0978 11.0788C18.6028 11.0788 19.1084 11.0788 19.6133 11.0788C20.3567 11.0788 20.6791 11.3846 20.7264 12.1254C20.7282 12.1444 20.7323 12.1632 20.7384 12.1813C21.0622 12.1813 21.3766 12.174 21.691 12.1813C24.1051 12.2479 26.035 14.5621 25.6726 16.9523C25.3309 19.2098 23.5116 20.7267 21.232 20.6254C20.841 20.6081 20.4553 20.4689 20.065 20.4016C19.985 20.3883 19.8451 20.4216 19.8145 20.4782C19.2115 21.5792 18.3521 22.5188 17.3091 23.2174C17.2763 23.2474 17.2464 23.2804 17.2198 23.316C17.3411 23.3213 17.4257 23.3286 17.5109 23.3286C18.2204 23.3286 18.9298 23.3286 19.6386 23.3286C19.9371 23.3286 20.1136 23.4785 20.1216 23.7103C20.1296 23.9422 19.9437 24.11 19.6366 24.1233C19.5487 24.1273 19.4594 24.1233 19.3702 24.1233H1.44611C1.32754 24.3458 1.48542 24.3625 1.62397 24.3898C2.68493 24.5919 3.7461 24.793 4.8075 24.9933C5.50296 25.1266 6.19842 25.2598 6.89521 25.385C7.10368 25.4245 7.31522 25.4454 7.52738 25.4477C10.7915 25.4516 14.0516 25.4343 17.3138 25.4596C18.3847 25.4676 19.4535 25.3615 20.502 25.1432C21.7856 24.8768 23.0759 24.6523 24.3616 24.4005C24.4815 24.3838 24.724 24.4351 24.6241 24.1307ZM10.3685 23.2201C10.547 23.2547 10.7495 23.326 10.9534 23.3273C12.2191 23.338 13.4847 23.3133 14.7544 23.3426C15.2374 23.3533 15.6591 23.2254 16.0747 23.0202C16.2253 22.9463 16.3718 22.8623 16.5151 22.7744C18.6094 21.4834 19.7792 19.6182 19.9071 17.1554C19.9677 16.0063 19.9244 14.8519 19.9271 13.7001C19.9237 13.6364 19.9162 13.573 19.9044 13.5103H6.13313C6.13313 14.5761 6.13313 15.6226 6.13313 16.6672C6.1185 17.7693 6.35879 18.86 6.83525 19.854C6.91186 20.0125 6.97981 20.0758 7.17232 20.0365C7.87842 19.8879 8.61255 19.9485 9.28468 20.2111C10.2006 20.5648 10.7682 21.3935 10.645 22.2894C10.6037 22.5899 10.4724 22.8783 10.3672 23.2201H10.3685ZM20.7398 14.0638C21.5838 13.87 22.3585 13.9719 23.0267 14.5301C23.6948 15.0884 23.9926 15.8278 23.8973 16.7011C23.8649 17.0337 23.7607 17.3553 23.592 17.6437C23.4233 17.9321 23.194 18.1805 22.9201 18.3718C22.1826 18.9107 21.3733 18.9674 20.5173 18.6656C20.4173 18.986 20.3234 19.2871 20.2295 19.5869C21.4092 20.1798 23.1133 19.7634 24.0738 18.6543C24.5731 18.0765 24.8661 17.3492 24.9067 16.5867C24.9473 15.8242 24.7333 15.0698 24.2983 14.4422C23.3704 13.1159 21.7277 12.7522 20.7371 13.0859L20.7398 14.0638ZM18.4569 26.2757H7.59866V26.9538H18.4569V26.2757ZM21.4839 18.0554C22.1893 18.0234 22.7209 17.6983 22.9933 17.0389C23.2598 16.3934 23.1466 15.7785 22.6603 15.2716C22.1886 14.7806 21.6058 14.6674 20.9536 14.8539C20.7624 14.9085 20.7204 15.0151 20.7211 15.1996C20.7258 15.943 20.7211 16.6871 20.7038 17.4299C20.6905 17.8895 20.7264 17.9581 21.1868 18.0294C21.282 18.0447 21.3799 18.0461 21.4839 18.0554ZM5.82937 23.3333H8.77308C9.26003 23.3333 9.78762 22.809 9.80561 22.2961C9.76098 22.3041 9.71834 22.3094 9.67637 22.3181C8.90364 22.4706 8.13224 22.6285 7.35818 22.7731C7.01311 22.8397 6.78529 22.6398 6.82992 22.3387C6.86523 22.1049 7.04109 22.027 7.2416 21.9863C7.63197 21.9071 8.02366 21.8331 8.41402 21.7552C8.82704 21.6733 9.23938 21.588 9.69769 21.4954C9.62614 21.4086 9.54797 21.3276 9.46387 21.2529C8.70446 20.676 7.86512 20.6534 6.99113 20.9125C6.93984 20.9272 6.8992 21.0238 6.87922 21.0897C6.77796 21.4181 6.728 21.7698 6.57945 22.0743C6.37028 22.5026 6.08917 22.9003 5.82604 23.3326L5.82937 23.3333Z" fill="black"/>
<path d="M18.5902 6.86414C18.5589 7.78542 18.1978 8.52951 17.4577 9.07775C17.178 9.28492 16.9301 9.28559 16.7823 9.08574C16.6344 8.8859 16.7017 8.65008 16.9821 8.44024C17.918 7.73013 18.0639 6.4438 17.2979 5.58646C17.1731 5.46135 17.0395 5.34536 16.8982 5.2394C16.6923 5.06887 16.645 4.83971 16.7803 4.65785C16.9155 4.47599 17.146 4.44668 17.3698 4.60056C18.1639 5.14681 18.5562 5.91088 18.5902 6.86414Z" fill="black"/>
<path d="M12.7433 6.86412C12.7113 7.81804 12.3243 8.57479 11.5442 9.12169C11.3118 9.2849 11.0673 9.26358 10.9347 9.07706C10.8022 8.89054 10.8421 8.63807 11.0779 8.48153C12.2324 7.71346 12.2231 6.00279 11.0726 5.24671C10.8375 5.09216 10.7982 4.83769 10.9394 4.65117C11.0806 4.46465 11.3138 4.45133 11.5529 4.61653C12.3323 5.16677 12.7127 5.92685 12.7433 6.86412Z" fill="black"/>
</g>
<defs>
<clipPath id="clip0_821_1325">
<rect width="25.1131" height="27.2321" fill="white" transform="translate(0.604126 0.535706)"/>
</clipPath>
</defs>
</svg>
