<svg width="25" height="28" viewBox="0 0 25 28" fill="none" xmlns="http://www.w3.org/2000/svg">
<g clip-path="url(#clip0_821_1332)">
<path d="M23.76 3.79983C24.0211 3.51206 24.143 3.2003 23.9825 2.82925C23.822 2.45821 23.4982 2.3443 23.1132 2.3463C22.2359 2.35096 21.3579 2.3463 20.4806 2.3463C20.3966 2.3463 20.3134 2.3383 20.1775 2.33231C20.5212 1.96859 20.831 1.64484 21.1374 1.31643C21.4438 0.98802 21.4165 0.794837 21.0628 0.535706H20.7963C20.2821 1.06862 19.7625 1.60154 19.2588 2.14645C19.1994 2.215 19.125 2.26898 19.0414 2.30421C18.9577 2.33943 18.8671 2.35497 18.7766 2.34963C13.1845 2.34474 7.5917 2.34474 1.99828 2.34963C1.86463 2.34428 1.73078 2.35186 1.59859 2.37228C1.46549 2.3957 1.34062 2.45285 1.23589 2.53827C1.13117 2.62369 1.05008 2.73452 1.00037 2.86019C0.950668 2.98586 0.934 3.12217 0.951962 3.25612C0.969924 3.39006 1.02192 3.51717 1.10298 3.6253C1.1989 3.752 1.30187 3.87321 1.4114 3.98835C4.0418 6.88254 6.67153 9.77496 9.3006 12.6656C9.90879 13.3317 10.505 14.0159 11.1398 14.658C11.2246 14.7356 11.2912 14.8309 11.3347 14.9372C11.3783 15.0435 11.3977 15.1582 11.3916 15.2729C11.385 18.2866 11.3834 21.3002 11.387 24.3139C11.387 25.0393 11.1258 25.4064 10.443 25.6462C9.47357 25.9837 8.50411 26.3208 7.53464 26.6574C7.42496 26.6916 7.31807 26.7341 7.21489 26.7846C7.11758 26.8312 7.03857 26.9089 6.99032 27.0054C6.94207 27.1019 6.92733 27.2117 6.94843 27.3175C6.98373 27.5647 7.13761 27.7126 7.38076 27.7592C7.46901 27.7715 7.5582 27.7757 7.64722 27.7718C10.882 27.7718 14.1171 27.7718 17.3523 27.7718C17.4586 27.7765 17.565 27.7687 17.6694 27.7485C17.7684 27.724 17.8579 27.6707 17.9267 27.5955C17.9956 27.5203 18.0406 27.4264 18.0563 27.3256C18.0719 27.2249 18.0575 27.1217 18.0147 27.0291C17.972 26.9366 17.9028 26.8587 17.816 26.8053C17.7391 26.7619 17.6578 26.7268 17.5735 26.7007C16.5885 26.3565 15.6028 26.0128 14.6165 25.6695C13.8597 25.403 13.6172 25.064 13.6172 24.2706C13.6172 21.3635 13.6239 18.4564 13.6106 15.5494C13.6106 15.1343 13.7038 14.8399 14.0056 14.5122C17.2691 10.9529 20.5092 7.37039 23.76 3.79983ZM19.3308 3.22961C19.3798 3.18125 19.4446 3.15216 19.5133 3.14767C20.743 3.14301 21.9734 3.14434 23.2757 3.14434C22.537 3.95704 21.8315 4.7038 21.1634 5.48319C20.9136 5.77496 20.6584 5.89354 20.2794 5.86622C19.8131 5.83292 19.3468 5.85823 18.8505 5.85823C19.019 5.20141 18.8805 4.62386 18.5208 4.08228C18.7912 3.7925 19.0557 3.50739 19.3308 3.22961ZM14.3593 26.4236L15.7842 26.9152C15.7842 26.9305 15.7842 26.9458 15.7842 26.9611H9.13872C9.27195 26.9052 9.33857 26.8739 9.40518 26.8499C9.83907 26.6967 10.273 26.5441 10.7068 26.3923C11.7061 26.0425 12.1817 25.373 12.1824 24.3085C12.1824 21.5698 12.1824 18.8312 12.1824 16.0929V15.2269H12.8105V15.5287C12.8105 18.4358 12.8105 21.3428 12.8105 24.2499C12.8139 25.399 13.2742 26.0452 14.3593 26.4236ZM13.4021 13.9999C12.8838 14.5675 12.1171 14.5728 11.6035 14.0079C9.4114 11.6044 7.22355 9.19741 5.03991 6.78684C5.0166 6.76153 4.99861 6.73155 4.94399 6.65361C5.32103 6.65361 5.65943 6.65361 5.9985 6.65361C6.14039 6.65361 6.28295 6.65961 6.42417 6.64762C6.47358 6.64738 6.52244 6.63723 6.56786 6.61779C6.61328 6.59834 6.65435 6.56999 6.68862 6.53441C6.7229 6.49883 6.7497 6.45673 6.76744 6.41062C6.78517 6.3645 6.79349 6.3153 6.79188 6.26591C6.79854 6.05741 6.67597 5.91419 6.4668 5.87289C6.36168 5.85698 6.25526 5.8514 6.14905 5.85623C5.56417 5.85623 4.97929 5.8609 4.39441 5.8509C4.28447 5.85096 4.17822 5.81121 4.09531 5.73899C3.33724 4.92229 2.58849 4.09294 1.8384 3.26691C1.81642 3.24227 1.80043 3.21229 1.75847 3.151H18.2996L17.9372 3.52938C17.2611 3.14301 16.5663 3.03376 15.8721 3.44544C15.178 3.85712 14.9669 4.51528 15.0421 5.24404C14.6644 5.3373 14.3094 5.42324 13.957 5.5105C13.9044 5.52101 13.8557 5.54592 13.8164 5.58245C13.5433 5.8942 13.1836 5.86423 12.8172 5.86223C11.373 5.8549 9.92811 5.86223 8.48323 5.86223C8.3861 5.85702 8.28869 5.86261 8.19279 5.87888C7.97496 5.92884 7.85172 6.06873 7.87104 6.29855C7.88969 6.51439 8.02559 6.63163 8.23543 6.65428C8.31497 6.66073 8.39482 6.66251 8.47457 6.65961H13.0297V7.41169C12.2536 7.38971 11.6015 7.62219 11.2311 8.3443C10.8634 9.05241 10.9999 9.73322 11.4249 10.4C11.2917 10.5406 11.1585 10.6771 11.0326 10.821C10.8541 11.0209 10.8434 11.2587 10.9993 11.4166C11.1725 11.5924 11.399 11.5791 11.6088 11.3713C11.742 11.242 11.8659 11.1048 12.0038 10.9589C12.682 11.3406 13.3781 11.4545 14.0722 11.0422C14.7663 10.6299 14.9855 9.97636 14.8916 9.17298C15.4911 9.21628 16.0174 9.08305 16.433 8.65672C16.8487 8.23038 16.9593 7.6908 16.8994 7.09593C17.0879 7.08061 17.2624 7.07595 17.4323 7.04864C17.5708 7.02732 17.7347 7.01666 17.8366 6.93606C18.2683 6.59566 18.7692 6.6656 19.2562 6.66227C19.504 6.66227 19.7518 6.66227 20.0336 6.66227C20.0032 6.71678 19.9687 6.76889 19.9303 6.81815C17.7542 9.21273 15.5782 11.6066 13.4021 13.9999ZM13.8351 7.25781C13.7205 6.57234 14.1975 6.05874 14.8936 6.1107C15.5597 6.16333 16.1166 6.76219 16.1166 7.42101C16.1166 7.9919 15.689 8.39892 15.1107 8.37827C14.8044 8.3585 14.5132 8.23784 14.2827 8.03514C14.0521 7.83244 13.8952 7.5591 13.8364 7.25781H13.8351ZM14.1142 9.52871C14.1142 10.0869 13.7292 10.48 13.1676 10.4886C12.4788 10.5 11.8453 9.90375 11.8166 9.21628C11.808 9.07216 11.8323 8.92796 11.8878 8.79464C11.9432 8.66131 12.0283 8.54237 12.1365 8.44683C12.2448 8.35129 12.3734 8.28166 12.5125 8.24324C12.6517 8.20481 12.7978 8.19859 12.9398 8.22506C13.6126 8.32964 14.1109 8.88521 14.1142 9.52871ZM15.8255 4.89165C15.8582 4.35873 16.2472 3.99501 16.7828 3.99102C17.5588 3.98502 18.2483 4.76175 18.1057 5.48652C18.0726 5.69842 17.967 5.8923 17.8071 6.03523C17.6472 6.17815 17.4427 6.26131 17.2284 6.27058C16.495 6.3312 15.7796 5.62574 15.8255 4.89032V4.89165Z" fill="black"/>
</g>
<defs>
<clipPath id="clip0_821_1332">
<rect width="23.11" height="27.2321" fill="white" transform="translate(0.945068 0.535706)"/>
</clipPath>
</defs>
</svg>
