<svg width="21" height="29" viewBox="0 0 21 29" fill="none" xmlns="http://www.w3.org/2000/svg">
<g clip-path="url(#clip0_821_1209)">
<path d="M17.0054 26.4818C16.1879 26.6647 15.7005 26.2028 15.3143 25.5856C15.1098 25.2598 14.9026 25.1813 14.5026 25.2695C12.7299 25.6583 11.2678 25.022 10.0276 23.7797C9.70261 23.4545 9.41297 23.0942 9.11416 22.7434C9.07735 22.7047 9.04889 22.6588 9.03055 22.6087C9.01222 22.5585 9.0044 22.5051 9.00759 22.4518C9.01077 22.3984 9.02489 22.3463 9.04906 22.2987C9.07324 22.2511 9.10695 22.2089 9.14811 22.1749C9.32628 22.0267 9.54139 22.0393 9.71428 22.2284C10.0247 22.5681 10.3087 22.9343 10.6357 23.2559C11.8345 24.4368 13.2329 24.9091 14.8854 24.3669C15.4786 24.1648 16.0314 23.8597 16.5186 23.4656C16.2908 23.1562 16.0765 22.8461 15.8429 22.5508C14.7902 21.2177 13.5807 20.0606 12.0595 19.2692C9.92301 18.1582 7.77037 18.1684 5.63332 19.2545C5.02117 19.5657 4.45801 19.976 3.87562 20.3456C3.8104 20.3964 3.75051 20.4536 3.69688 20.5165L3.73777 20.6005C3.8357 20.5759 3.93226 20.546 4.02702 20.5111C4.40029 20.3503 4.75992 20.1512 5.14439 20.0259C6.19785 19.682 7.13093 20.002 7.99599 20.6122C8.10609 20.6864 8.2119 20.7668 8.3129 20.8529C8.49428 21.0188 8.51806 21.2437 8.37452 21.4209C8.23833 21.5896 8.0349 21.6147 7.82951 21.478C7.62413 21.3413 7.42538 21.1907 7.21559 21.0591C6.38723 20.5412 5.55206 20.6055 4.71647 21.043C4.53269 21.15 4.34326 21.247 4.14901 21.3335C3.70646 21.5058 3.2235 21.3349 3.01647 20.9535C2.80158 20.5562 2.92373 20.0691 3.30544 19.7709C4.18836 19.0692 5.17556 18.5098 6.23128 18.113C6.26387 18.1011 6.29673 18.084 6.35082 18.0609C6.25658 17.9415 6.17109 17.8155 6.09502 17.6838C5.87423 17.232 5.662 16.7752 5.45417 16.3174C5.19653 15.7453 4.97053 15.1568 4.67674 14.6046C4.2833 13.8814 3.98569 13.1101 3.79142 12.3101C3.6113 11.5471 3.30599 10.8156 3.08476 10.0614C2.93592 9.56277 2.81925 9.05505 2.73547 8.54143C2.60248 7.69503 2.52559 6.84007 2.39857 5.9926C2.30187 5.3504 2.29081 4.72426 2.51537 4.10351C2.93324 2.94015 3.91644 2.34613 5.13922 2.52187C5.7522 2.60963 6.28111 2.87724 6.77272 3.2448C7.47427 3.76785 8.18649 4.27545 8.89649 4.78768C9.11253 4.94367 9.18167 5.16556 9.06344 5.35748C8.9452 5.5494 8.7056 5.59848 8.47959 5.46744C8.26732 5.34559 8.05791 5.21047 7.84299 5.07861L7.20994 5.85802C7.5974 6.27017 8.02178 6.65125 8.36071 7.09723C8.69964 7.54321 8.9498 8.06103 9.28088 8.61755L10.305 7.31932C10.1153 7.08394 9.93981 6.88482 9.78616 6.67103C9.65567 6.49061 9.66808 6.30293 9.84189 6.14742C10.0157 5.99191 10.2448 5.99045 10.3844 6.17786C10.9688 6.94756 11.7607 7.50288 12.423 8.19072C12.7821 8.56351 13.0467 9.0264 13.3603 9.44364C13.7397 9.94244 14.1234 10.4387 14.4986 10.94C14.8868 11.4535 15.2688 11.9706 15.6606 12.4943C15.9336 12.2872 16.2421 12.0078 16.5917 11.7973C17.2428 11.4042 17.9098 11.0363 18.5858 10.6879C18.7828 10.5887 19.0096 10.5664 19.2221 10.6255C19.4346 10.6846 19.6174 10.8208 19.7349 11.0074C19.8523 11.1941 19.896 11.4178 19.8573 11.6349C19.8186 11.8521 19.7004 12.047 19.5257 12.1816C19.28 12.3832 19.0049 12.5477 18.7481 12.736C18.0518 13.2479 17.777 13.9497 17.8237 14.797C17.8676 15.6021 18.0949 16.3651 18.3687 17.1145C18.6605 17.9219 19.0037 18.7102 19.1007 19.5739C19.266 21.0239 18.8862 22.2928 17.8796 23.3606C17.7675 23.4794 17.7287 23.5769 17.8086 23.7279C17.8946 23.8918 17.9441 24.0765 18.0355 24.2372C18.3729 24.8321 18.3562 25.3962 17.9174 25.9335L17.0054 26.4818ZM17.2101 22.9136C17.5599 22.5798 17.8403 22.1802 18.0352 21.7378C18.2302 21.2954 18.3359 20.8188 18.3462 20.3354C18.3787 19.417 18.0777 18.5787 17.7522 17.741C17.3761 16.7737 17.0636 15.7868 17.0276 14.7364C16.9959 13.8338 17.2556 13.0342 17.9242 12.4065C18.2123 12.1358 18.5551 11.9237 18.8687 11.6792C18.9441 11.6137 19.0154 11.5437 19.0822 11.4695L19.0322 11.4049C18.9745 11.4101 18.9175 11.4215 18.8623 11.439C17.5537 12.0074 16.3831 12.7716 15.465 13.8811C14.1179 15.5096 13.7707 17.4034 14.01 19.4462C14.0336 19.5458 14.0888 19.6351 14.1673 19.7008C14.4481 19.9573 14.7648 20.1783 15.0204 20.4563C15.7581 21.2598 16.4681 22.078 17.2101 22.9136ZM9.04481 14.8413C9.45218 15.9876 10.1361 16.962 10.8956 17.8897C11.0076 18.0266 11.1355 18.015 11.2746 17.9331C11.8897 17.5671 12.5055 17.2008 13.1213 16.8345C13.3045 16.7254 13.3491 16.5848 13.2545 16.3896C12.9588 15.7856 12.6975 15.1628 12.3672 14.5785C12.122 14.1454 11.79 13.7639 11.5056 13.3707C11.083 13.6585 10.7068 13.941 10.3052 14.1808C9.90363 14.4205 9.47756 14.6177 9.04481 14.8413ZM8.61633 14.121C9.50814 13.7797 10.334 13.2864 11.0573 12.663C10.5434 11.6198 9.99359 10.6178 9.1999 9.82862L7.00437 11.1348C7.33362 12.211 7.94015 13.1735 8.61756 14.1203L8.61633 14.121ZM6.60393 6.4493L5.2783 7.23793C5.46017 8.37782 5.98707 9.38027 6.63116 10.3378C7.38757 10.0813 8.08152 9.66851 8.66786 9.12615C8.37182 8.32961 7.35287 7.01446 6.60393 6.4493ZM4.52626 11.6934C4.60028 12.8578 5.15578 13.8374 5.72766 14.8057C5.74539 14.828 5.76818 14.8457 5.79415 14.8575C5.82013 14.8692 5.84852 14.8746 5.87699 14.8731C6.52918 14.7432 7.17945 14.6045 7.89048 14.4552C7.15258 13.4485 6.59276 12.4491 6.2321 11.3618L4.52626 11.6934ZM11.6963 12.187C12.1598 11.6424 12.582 11.158 12.9867 10.6592C13.034 10.5997 13.0235 10.443 12.9791 10.3684C12.7312 9.96011 12.4751 9.55589 12.201 9.16476C11.8443 8.6541 11.355 8.27936 10.8875 7.9008L9.77195 9.25671C10.5548 10.0887 11.17 11.0535 11.6963 12.187ZM13.6762 15.3356C13.9843 14.58 14.4098 13.8777 14.9369 13.2548C14.9539 13.2269 14.9642 13.1955 14.9671 13.1629C14.9699 13.1304 14.9653 13.0976 14.9535 13.0672C14.6566 12.3562 14.2033 11.7212 13.6274 11.2093L12.1741 12.8051L13.6762 15.3356ZM8.20231 15.1713L6.10248 15.6943C6.2709 16.3922 6.58042 17.0483 7.01197 17.6221C7.12952 17.778 7.22129 17.8168 7.41727 17.7945C8.08312 17.7292 8.75599 17.7078 9.42733 17.6739C9.50841 17.6712 9.59748 17.6819 9.69889 17.6869L8.20231 15.1713ZM3.5114 7.66297C3.40501 8.82298 3.821 9.85172 4.28538 10.9104L5.87217 10.633C5.19998 9.62685 4.72153 8.6113 4.50401 7.48518L3.5114 7.66297ZM4.17535 3.87689C4.07874 4.86981 4.54991 5.64653 4.97422 6.47098L6.07382 5.81682C5.54533 5.04525 5.09478 4.26288 4.17499 3.87628L4.17535 3.87689ZM15.7744 24.881C15.9629 25.1228 16.1303 25.3598 16.3215 25.5769C16.5006 25.7806 16.7155 25.747 16.9167 25.6042C17.1613 25.4314 17.552 25.3693 17.4538 24.9249C17.4523 24.916 17.4502 24.9074 17.4474 24.8989C17.3326 24.6363 17.2156 24.3701 17.0945 24.0956L15.7744 24.881ZM7.18914 4.61073C6.48165 4.08047 5.9058 3.38918 4.95387 3.34757C5.69548 3.82115 6.17544 4.53061 6.6742 5.26611L7.18914 4.61073ZM4.20647 6.72922C3.78263 5.94171 3.40736 5.17328 3.33739 4.29518C2.9271 5.16124 3.2453 5.99919 3.38687 6.86695L4.20647 6.72922ZM13.1377 17.8255L12.1505 18.4128C12.4914 18.5979 12.8084 18.7707 13.1477 18.956L13.1377 17.8255Z" fill="black"/>
</g>
<defs>
<clipPath id="clip0_821_1209">
<rect width="19.4551" height="27.2321" fill="white" transform="translate(0.772583 0.892822)"/>
</clipPath>
</defs>
</svg>
