<svg xmlns="http://www.w3.org/2000/svg" width="27" height="24" viewBox="0 0 27 24" fill="none">
<path d="M26.9842 20.0493C26.9051 19.1622 26.5086 18.3362 25.8708 17.7293C25.233 17.1224 24.3987 16.7774 23.5276 16.7602C23.3716 16.7602 23.2859 16.7179 23.2209 16.56C22.753 15.4266 22.2734 14.2932 21.7989 13.1599C21.7807 13.1078 21.7659 13.0545 21.7546 13.0004C22.0184 13.0473 22.2601 13.11 22.5054 13.1289C22.8114 13.1515 23.0058 12.9702 23.0073 12.6619C23.0132 11.4641 23.0132 10.2665 23.0073 9.0691C23.0109 9.00717 23.0013 8.94518 22.9792 8.88739C22.9571 8.8296 22.9231 8.77737 22.8794 8.7343C22.8358 8.69123 22.7835 8.65833 22.7262 8.63787C22.6689 8.6174 22.608 8.60986 22.5476 8.61574C22.3544 8.62073 22.1625 8.64992 21.9763 8.70263C21.2557 8.91118 20.7753 9.39929 20.4797 10.1337C19.9579 9.4756 19.2971 9.37813 18.5448 9.50432C18.1671 9.56854 17.765 9.55796 17.4221 9.32071C16.9292 8.97994 16.6483 8.45858 16.2788 7.96065C16.9831 7.86922 17.3992 7.49671 17.6209 6.8726C17.6754 6.72945 17.7602 6.60042 17.8693 6.4948C18.2388 6.13212 18.4139 5.62814 18.0459 5.13927C17.873 4.9126 17.8316 4.56956 17.7503 4.27412C17.7504 4.23344 17.7603 4.19342 17.7791 4.15757C17.7979 4.12173 17.8251 4.09117 17.8582 4.0686C17.9556 4.02325 18.0358 3.94658 18.0867 3.85027C18.1375 3.75396 18.1561 3.6433 18.1398 3.53516C18.1278 3.31874 18.1032 3.10326 18.0658 2.88988C17.9116 2.13087 17.5234 1.44238 16.9584 0.925375C16.3934 0.408371 15.6812 0.0900606 14.9263 0.0171282C13.4733 -0.13399 12.0262 0.726627 11.3854 2.13278C10.7446 3.53893 11.0587 5.18612 12.1917 6.27644C12.2644 6.33278 12.3413 6.3833 12.4216 6.42755C10.6478 6.97536 9.88507 8.35053 9.34925 9.82771C9.00262 9.71588 8.68408 9.53001 8.36702 9.52547C6.77211 9.49525 5.17645 9.50658 3.58154 9.51489C3.36796 9.51494 3.15753 9.56756 2.96804 9.6683C2.77855 9.76904 2.61558 9.91494 2.49289 10.0937C2.31329 10.3377 2.33325 10.609 2.53649 10.7737C2.73974 10.9384 2.96368 10.8855 3.17505 10.6785C3.28295 10.5727 3.4219 10.4518 3.55863 10.436C3.83652 10.3982 4.1218 10.4246 4.42334 10.4246C4.42334 10.8689 4.42334 11.2822 4.42334 11.6955C4.42704 12.0665 4.5852 12.2244 4.94956 12.229C5.61472 12.229 6.27989 12.229 6.94505 12.229C7.37888 12.229 7.52226 12.0779 7.52374 11.6351C7.52374 11.2339 7.52374 10.8319 7.52374 10.4163C7.78242 10.4163 8.00266 10.4163 8.2229 10.4163C8.65378 10.4201 8.84964 10.6165 8.85038 11.0548C8.85038 12.1398 8.85038 13.2243 8.85038 14.3084C8.85038 14.7443 8.6523 14.9393 8.21773 14.9423C7.80237 14.9423 7.38775 14.9423 6.9724 14.9423C5.87561 14.9423 4.77809 14.9423 3.68057 14.9423C3.33617 14.9423 3.17357 14.8025 3.13957 14.4889C3.39825 14.4889 3.65692 14.4889 3.91412 14.4889C4.22231 14.4837 4.41521 14.3136 4.4226 14.0499C4.42999 13.7862 4.23192 13.5905 3.9119 13.5853C3.64732 13.5815 3.38273 13.5853 3.11666 13.5853V12.6785C3.24526 12.6785 3.35464 12.6785 3.46477 12.6785C3.78626 12.6717 3.98212 12.4919 3.98212 12.2176C3.98212 11.9434 3.78404 11.7771 3.47733 11.7749C2.78753 11.7708 2.09601 11.7708 1.40276 11.7749C1.08126 11.7749 0.885409 11.9592 0.885409 12.235C0.885409 12.5108 1.08274 12.6725 1.39019 12.6778C1.65478 12.6823 1.92011 12.6778 2.19356 12.6778V13.5845C1.63483 13.5845 1.09235 13.5845 0.549871 13.5845C0.201029 13.5845 -0.000737047 13.7545 2.02334e-06 14.0379C0.000741094 14.3212 0.202507 14.4874 0.552827 14.4912C1.09604 14.4912 1.63852 14.4912 2.19652 14.4912C2.31551 15.2181 2.68431 15.6775 3.37164 15.8218C3.56323 15.85 3.75706 15.8588 3.95034 15.8482C4.55342 15.8482 5.1565 15.8482 5.77288 15.8482C5.59699 16.1195 5.41591 16.3477 5.28879 16.6038C4.73081 17.7254 4.43554 18.9641 4.4263 20.2224C4.41965 20.6757 4.56746 20.8268 5.01755 20.8268H6.21485C6.58438 22.7256 7.91471 23.9247 9.68405 23.9656C11.157 24.0011 12.8621 23.0135 13.2545 20.8427H19.9401C19.952 20.9107 19.9608 20.9651 19.9712 21.0195C20.3407 23.0324 22.2623 24.3532 24.1898 23.9164C25.9554 23.5198 27.1527 21.8605 26.9842 20.0493ZM6.62355 11.3056H5.31836V10.4405H6.62355V11.3056ZM22.1256 9.61992V12.0975C21.6821 12.0265 21.2919 11.5323 21.2446 10.9981C21.2153 10.7001 21.2868 10.4008 21.4471 10.15C21.6074 9.89924 21.8468 9.71217 22.1256 9.61992ZM18.6652 10.4511C19.0969 10.2372 19.6075 10.3664 19.8315 10.7631C19.9191 10.9445 19.9956 11.1312 20.0606 11.3223C19.4828 11.6329 18.8375 11.7889 18.1848 11.7756C18.1563 11.7705 18.1293 11.7587 18.106 11.7409C18.0828 11.7232 18.064 11.7002 18.0511 11.6736C17.9166 11.3034 18.2477 10.6536 18.6652 10.4488V10.4511ZM17.0644 5.9402C16.9668 6.06412 16.8479 6.20163 16.822 6.34897C16.7311 6.87789 16.5219 7.08492 15.9994 7.029C15.7099 6.98417 15.4249 6.9126 15.148 6.81517C15.0992 6.80006 15.0504 6.68823 15.0497 6.62098C15.0423 6.07545 15.0349 5.52916 15.0497 4.98438C15.0584 4.7613 15.1445 4.54867 15.2925 4.3845C15.4405 4.22033 15.6407 4.11532 15.8575 4.08825C15.9491 4.07968 16.0412 4.07716 16.1332 4.08069C16.3549 4.08069 16.5714 4.08069 16.7244 4.08069L17.2647 5.77775C17.1906 5.82172 17.1231 5.87644 17.0644 5.9402ZM11.9456 3.59787C11.9663 2.1834 13.1281 0.969927 14.5094 0.914769C15.8228 0.861878 17.0807 1.9061 17.1952 3.17549C16.7895 3.17549 16.4029 3.17549 16.0171 3.17549C14.9536 3.18456 14.1695 3.98398 14.1591 5.069C14.1554 5.47173 14.1591 5.87446 14.1591 6.27795C12.964 6.1903 11.9271 4.91864 11.9456 3.59711V3.59787ZM9.95011 11.0246C10.1519 10.1587 10.4445 9.32826 10.9486 8.59232C11.7342 7.44609 12.8798 7.00558 14.1266 7.36222C14.6639 7.51334 15.077 7.84957 15.4141 8.29008C15.6121 8.54925 15.7962 8.819 15.9868 9.08648C16.3734 9.62597 16.8131 10.1005 17.4258 10.3015L17.0954 11.6615C17.0321 11.655 16.9694 11.6436 16.9077 11.6275C15.9678 11.3527 15.1594 10.7342 14.6366 9.88967C14.6018 9.83451 14.5715 9.77633 14.5368 9.72041C14.3698 9.45369 14.131 9.37662 13.9056 9.51641C13.6802 9.65619 13.6255 9.92367 13.7844 10.1813C13.9433 10.439 14.1266 10.6944 14.3062 10.9618C13.9176 11.4237 13.6334 11.9676 13.474 12.5546C13.4608 12.5854 13.4404 12.6123 13.4146 12.6331C13.3889 12.6539 13.3585 12.668 13.3262 12.674C12.1392 12.6808 10.9523 12.6793 9.74687 12.6793C9.69144 12.0983 9.82669 11.5603 9.94863 11.0238L9.95011 11.0246ZM9.8762 23.0898C8.52518 23.1563 7.24733 22.1128 7.14164 20.8314C7.39958 20.8314 7.65899 20.8223 7.91102 20.8382C7.96792 20.8419 8.04331 20.9235 8.06992 20.9893C8.38402 21.7449 8.94202 22.1642 9.738 22.1612C10.534 22.1582 11.0883 21.7351 11.3987 20.9787C11.4184 20.9421 11.446 20.9105 11.4794 20.8864C11.5129 20.8623 11.5512 20.8463 11.5916 20.8397C11.8296 20.8223 12.069 20.8329 12.3077 20.8329C12.3107 21.9119 11.0994 23.0286 9.87842 23.0891L9.8762 23.0898ZM9.01371 20.8495H10.463C10.0588 21.4117 9.36107 21.4064 9.01371 20.8495ZM5.27179 19.9148C5.36787 19.392 5.42626 18.8804 5.56151 18.3916C5.69492 17.9237 5.86803 17.4686 6.07886 17.0315C6.44396 16.2563 7.0766 15.8641 7.91471 15.8573C9.26869 15.8452 10.6227 15.8513 11.9796 15.8573C12.7312 15.8573 13.2685 16.4081 13.2752 17.1728C13.2752 17.5022 13.2863 17.8324 13.2752 18.1619C13.253 18.7754 13.3195 19.364 13.7142 19.9209L5.27179 19.9148ZM14.1576 17.1668C14.1495 15.8989 13.2272 14.9506 11.9922 14.9453C11.2198 14.9453 10.4468 14.9453 9.69217 14.9453C9.71213 14.492 9.73061 14.0552 9.75056 13.6011C9.80525 13.5966 9.85773 13.5883 9.91094 13.5883C11.1725 13.5883 12.4341 13.5815 13.6957 13.5883C14.7718 13.5951 15.6025 14.2048 15.8442 15.1501C15.8849 15.2854 15.9097 15.4251 15.9181 15.5664C15.9285 16.3008 15.9277 17.0353 15.9307 17.7697C15.9307 17.8725 15.9307 17.9745 15.9307 18.1007H14.1584C14.1584 17.7826 14.1599 17.4743 14.1576 17.1668ZM15.7533 19.9216C15.5426 19.9273 15.3319 19.9073 15.1258 19.8619C14.7119 19.7516 14.4267 19.4766 14.2426 19.0187H14.978C15.4651 19.0187 15.9528 19.0112 16.4399 19.0187C16.9151 19.0285 17.2529 19.3965 17.2307 19.9216C16.74 19.9247 16.2463 19.9299 15.7533 19.9216ZM18.108 19.5506C17.9513 18.8872 17.5906 18.4286 16.9661 18.2261C16.8057 18.174 16.8131 18.075 16.8131 17.9465C16.8131 17.2302 16.8131 16.5142 16.8131 15.7984C16.8131 14.266 15.944 13.1349 14.491 12.7813C14.4562 12.773 14.4237 12.7549 14.3165 12.7118C14.5183 12.3272 14.7127 11.9562 14.9167 11.5701C15.5827 12.1156 16.3715 12.4821 17.2115 12.6362C17.2802 12.6491 17.3593 12.7874 17.3793 12.8765C17.6941 14.2411 17.9993 15.6072 18.3075 16.9733C18.3925 17.3511 18.4805 17.7244 18.5625 18.1007C18.6955 18.693 18.5071 19.293 18.108 19.5506ZM20.3511 19.9284C19.9298 19.9163 19.507 19.9247 19.1257 19.9247C19.2469 19.5 19.3962 19.0882 19.4745 18.6628C19.5114 18.4021 19.4971 18.1365 19.4324 17.8815C19.051 16.158 18.6534 14.4383 18.2735 12.7707L20.439 12.2577C20.4464 12.2736 20.4848 12.3468 20.5166 12.4224C21.1448 13.917 21.7693 15.413 22.402 16.9053C22.4759 17.0776 22.4759 17.2015 22.3613 17.364C21.8004 18.146 21.2527 18.9379 20.7095 19.7327C20.6741 19.7968 20.6216 19.8493 20.5582 19.8839C20.4947 19.9186 20.4228 19.934 20.3511 19.9284ZM23.8092 23.0656C22.5136 23.2848 21.184 22.3554 20.8758 21.0142C20.8659 20.9532 20.8595 20.8916 20.8566 20.8299C21.1084 20.8202 21.3605 20.8235 21.6119 20.8397C21.6858 20.848 21.7738 20.9628 21.81 21.0482C21.9546 21.4087 22.2076 21.7128 22.5325 21.9166C22.8573 22.1203 23.2371 22.2131 23.617 22.1816C23.9966 22.1477 24.3551 21.9882 24.6382 21.7274C24.9213 21.4666 25.1136 21.1187 25.1861 20.7362C25.3265 20.0161 25.1077 19.4048 24.5438 18.9545C23.9799 18.5041 23.3332 18.4467 22.671 18.7542C22.6296 18.7739 22.5912 18.8003 22.5505 18.823C22.529 18.8376 22.5049 18.8478 22.4795 18.8528C22.4541 18.8579 22.428 18.8578 22.4027 18.8525C22.6607 18.4815 22.9142 18.1075 23.181 17.744C23.2408 17.6915 23.318 17.6644 23.3968 17.6685C24.77 17.6239 25.9562 18.7051 26.0995 20.1264C26.2429 21.5477 25.2526 22.8223 23.8092 23.0656ZM23.399 19.9254C23.1876 19.9194 22.9762 19.9186 22.7641 19.9141C22.7597 19.9141 22.756 19.899 22.7516 19.8914C22.8378 19.7319 22.9735 19.6062 23.1373 19.5342C23.3011 19.4623 23.4836 19.4481 23.6562 19.494C23.8483 19.5428 24.0189 19.656 24.1408 19.8155C24.2627 19.9749 24.3289 20.1715 24.3289 20.3739C24.3289 20.5762 24.2627 20.7728 24.1408 20.9323C24.0189 21.0917 23.8483 21.2049 23.6562 21.2537C23.4776 21.2994 23.2891 21.2822 23.1213 21.2047C22.9535 21.1272 22.8162 20.9941 22.7316 20.8268C22.9651 20.8268 23.1817 20.8306 23.3968 20.8268C23.699 20.82 23.8919 20.6402 23.8919 20.3735C23.8919 20.1068 23.7013 19.9337 23.399 19.9254Z" fill="white"/>
</svg>