<svg width="28" height="24" viewBox="0 0 28 24" fill="none" xmlns="http://www.w3.org/2000/svg">
<g clip-path="url(#clip0_821_1246)">
<path d="M0.544617 11.4737C0.710312 11.3373 0.856295 11.1578 1.0449 11.071C4.39682 9.52908 7.75157 7.99378 11.1092 6.46504C11.1651 6.43947 11.2189 6.41177 11.269 6.38619C11.1763 5.96423 11.0516 5.55665 11.0063 5.14001C10.9652 4.78938 10.9795 4.43445 11.049 4.0883C11.236 3.22679 11.8865 2.8629 12.683 2.70306C12.9851 2.64339 13.2946 2.61888 13.617 2.57626C13.6484 2.11167 13.7736 1.67479 14.0667 1.30078C14.2508 1.05514 14.4867 0.852987 14.7577 0.708624C15.0287 0.564262 15.328 0.481219 15.6346 0.465374C16.0129 0.439801 16.2713 0.648119 16.2852 0.96992C16.2985 1.28 16.0752 1.49365 15.705 1.52508C15.1216 1.57463 14.7204 1.9902 14.7039 2.57946C15.6128 2.66737 16.5425 2.72437 17.1136 3.63703C17.2735 3.56457 17.4397 3.50384 17.5931 3.42072C19.0189 2.64019 20.4707 2.65724 21.938 3.28912C24.993 4.60883 26.9541 6.84811 27.6308 10.1402C27.7284 10.6538 27.7748 11.1758 27.7693 11.6986C27.7805 15.5186 27.7757 19.3387 27.7752 23.1587C27.7752 23.6995 27.6047 23.8673 27.0548 23.8673C18.4593 23.8673 9.8637 23.8691 1.26814 23.8727C0.942073 23.8727 0.701255 23.7837 0.545149 23.4949L0.544617 11.4737ZM3.64062 11.0475L3.64701 11.1008H16.1104C16.5665 11.1008 16.8185 11.2915 16.8169 11.6336C16.8153 11.9756 16.5643 12.1632 16.1067 12.1637H1.61018V15.3433L1.68104 15.3998C1.95276 15.2283 2.24419 15.0801 2.49354 14.8804C3.75304 13.8681 5.207 13.875 6.44519 14.9107C7.30404 15.6284 8.19698 15.6273 9.06488 14.907C10.3281 13.8585 11.6904 13.8617 12.9414 14.9166C13.7827 15.6257 14.5733 15.6156 15.4332 14.9294C15.7471 14.679 16.0971 14.4419 16.4695 14.3023C17.4908 13.9187 18.4174 14.1686 19.2437 14.8495C20.2214 15.655 21.02 15.6513 22.0094 14.8526C22.2191 14.6757 22.4511 14.5269 22.6993 14.4099C23.8182 13.9165 24.8528 14.0806 25.814 14.8244C26.0804 15.0306 26.3734 15.2032 26.6952 15.419V12.1653H20.7483C20.6594 12.1688 20.5705 12.1667 20.4819 12.1589C20.3529 12.1441 20.2339 12.0823 20.1474 11.9854C20.061 11.8885 20.0133 11.7632 20.0133 11.6333C20.0133 11.5035 20.061 11.3781 20.1474 11.2812C20.2339 11.1843 20.3529 11.1225 20.4819 11.1077C20.5705 11.0999 20.6594 11.0978 20.7483 11.1013H26.6824C26.6744 10.9852 26.6696 10.8978 26.6616 10.8104C26.6547 10.731 26.6483 10.6506 26.6345 10.5728C26.0969 7.53594 24.3515 5.47726 21.5427 4.28277C20.9353 4.0249 20.3087 3.8608 19.6342 3.89596C18.8239 3.93805 18.1536 4.34776 17.4498 4.6733C17.3965 4.69887 17.3561 4.81235 17.3497 4.88641C17.2479 6.07292 16.8137 7.1241 16.0268 8.01225C14.8951 9.29093 13.4252 9.28453 12.2856 8.01225C12.2381 7.95897 12.1907 7.90569 12.1481 7.84975C12.0208 7.68245 11.8961 7.51303 11.7624 7.33401L3.64062 11.0475ZM26.7101 22.7911C26.7101 21.7719 26.7101 20.7719 26.7043 19.7718C26.6963 19.7376 26.6799 19.7058 26.6567 19.6794C26.6335 19.653 26.604 19.6328 26.5711 19.6205C26.0063 19.4815 25.5369 19.181 25.0926 18.815C24.3861 18.2337 23.4602 18.2427 22.743 18.8102C22.6738 18.8634 22.6061 18.9226 22.5379 18.9791C21.8703 19.5331 21.11 19.7782 20.2427 19.6717C19.5644 19.5886 19.0173 19.2518 18.5053 18.8192C17.8004 18.2273 16.9602 18.2374 16.2468 18.815C16.1573 18.8874 16.0715 18.9647 15.9804 19.0361C15.324 19.555 14.5888 19.7979 13.7491 19.6637C13.1236 19.5635 12.6185 19.2375 12.1433 18.8347C11.4171 18.222 10.5801 18.231 9.84275 18.8347L9.6584 18.987C8.99669 19.5321 8.24546 19.775 7.38715 19.6727C6.72064 19.5923 6.1756 19.2726 5.66839 18.8464C4.96672 18.2603 4.06365 18.2113 3.36837 18.7537C2.83558 19.1661 2.3028 19.5443 1.62137 19.6546V22.7916L26.7101 22.7911ZM1.61817 18.6333C1.95383 18.4202 2.24473 18.2715 2.4946 18.0717C3.75304 17.0626 5.20647 17.069 6.44626 18.1058C7.29871 18.8166 8.19911 18.8198 9.04517 18.1154C10.3313 17.045 11.6851 17.0498 12.9627 18.1287C13.7736 18.8135 14.5888 18.8144 15.4082 18.1314C16.7103 17.0435 18.0471 17.0429 19.3465 18.1314C20.1622 18.8139 21.0749 18.8064 21.9071 18.1314C22.1527 17.9321 22.4148 17.7345 22.7009 17.6066C23.8049 17.1138 24.8363 17.2731 25.7911 18.0062C26.0655 18.2166 26.3644 18.3957 26.7101 18.6279V18.3125C26.7101 17.7451 26.7144 17.1777 26.7037 16.6108C26.6979 16.5726 26.6828 16.5363 26.6596 16.5053C26.6365 16.4743 26.6061 16.4494 26.5711 16.4329C26.0063 16.2922 25.5369 15.9928 25.0926 15.6268C24.3856 15.045 23.4602 15.054 22.743 15.6215C22.6738 15.6747 22.6061 15.7333 22.5379 15.7903C21.8703 16.3444 21.11 16.5895 20.2427 16.483C19.5644 16.3999 19.0173 16.0637 18.5053 15.6337C17.8004 15.0418 16.9602 15.0514 16.2468 15.6289C16.1573 15.7014 16.071 15.7781 15.9804 15.8495C15.324 16.3684 14.5893 16.6119 13.7491 16.4776C13.1236 16.3775 12.6185 16.0514 12.1433 15.6492C11.4166 15.0365 10.5801 15.0444 9.84275 15.646L9.6584 15.7983C8.99722 16.3434 8.24546 16.5869 7.38768 16.4851C6.71904 16.4057 6.174 16.0855 5.66733 15.6609C4.96352 15.0716 4.06258 15.0215 3.3657 15.566C2.83292 15.979 2.30014 16.3567 1.61604 16.4675L1.61817 18.6333ZM14.08 3.61306C13.6378 3.6722 13.1247 3.71002 12.6265 3.81711C12.2222 3.90396 12.0378 4.15596 12.0405 4.56674C12.0506 5.75857 12.4827 6.78258 13.3724 7.58016C13.8951 8.04848 14.454 8.03356 14.9708 7.55565C15.7966 6.79537 16.2266 5.83263 16.2782 4.71432C16.3043 4.1533 16.0704 3.86187 15.5212 3.7665C15.0731 3.68711 14.6101 3.66687 14.08 3.61306Z" fill="black"/>
<path d="M18.9443 11.6449C18.9419 11.7501 18.9082 11.8522 18.8474 11.9382C18.7867 12.0242 18.7017 12.0901 18.6033 12.1275C18.505 12.165 18.3977 12.1723 18.2951 12.1485C18.1926 12.1247 18.0995 12.0709 18.0277 11.9939C17.9559 11.9169 17.9086 11.8203 17.892 11.7164C17.8753 11.6125 17.89 11.5059 17.9342 11.4104C17.9784 11.3149 18.05 11.2346 18.14 11.18C18.2299 11.1253 18.3341 11.0987 18.4393 11.1036C18.5769 11.1115 18.7062 11.1722 18.8003 11.273C18.8943 11.3738 18.9459 11.507 18.9443 11.6449Z" fill="black"/>
<path d="M4.37261 20.6787C4.47806 20.6784 4.5812 20.7096 4.66885 20.7682C4.75649 20.8269 4.82466 20.9103 4.86462 21.0079C4.90459 21.1055 4.91454 21.2128 4.89321 21.3161C4.87188 21.4193 4.82023 21.5139 4.74487 21.5877C4.66951 21.6614 4.57386 21.711 4.47016 21.7302C4.36645 21.7493 4.2594 21.737 4.16269 21.695C4.06598 21.6529 3.98401 21.583 3.92725 21.4941C3.8705 21.4053 3.84154 21.3015 3.84409 21.196C3.84887 21.0584 3.90642 20.9279 4.00483 20.8316C4.10323 20.7353 4.23492 20.6805 4.37261 20.6787Z" fill="black"/>
<path d="M11.4985 21.1971C11.5009 21.3025 11.4717 21.4062 11.4148 21.495C11.3579 21.5837 11.2758 21.6535 11.179 21.6954C11.0823 21.7372 10.9752 21.7493 10.8716 21.73C10.7679 21.7107 10.6724 21.661 10.5971 21.5871C10.5219 21.5132 10.4704 21.4186 10.4492 21.3153C10.428 21.212 10.4381 21.1048 10.4782 21.0073C10.5183 20.9098 10.5866 20.8264 10.6743 20.7679C10.7619 20.7094 10.8651 20.6783 10.9705 20.6787C11.1083 20.6806 11.2401 20.7355 11.3385 20.832C11.4368 20.9286 11.4941 21.0594 11.4985 21.1971Z" fill="black"/>
<path d="M17.8808 21.2094C17.8802 21.3147 17.8483 21.4175 17.7891 21.5046C17.7298 21.5917 17.646 21.6592 17.5482 21.6984C17.4505 21.7377 17.3433 21.7469 17.2402 21.725C17.1372 21.703 17.043 21.6509 16.9698 21.5752C16.8965 21.4995 16.8475 21.4037 16.8289 21.3C16.8103 21.1964 16.823 21.0895 16.8654 20.9931C16.9078 20.8966 16.978 20.815 17.067 20.7587C17.156 20.7023 17.2598 20.6737 17.3651 20.6766C17.5032 20.6817 17.6339 20.74 17.7301 20.8393C17.8262 20.9386 17.8802 21.0712 17.8808 21.2094Z" fill="black"/>
<path d="M23.9396 20.6788C24.0451 20.6774 24.1485 20.7075 24.2368 20.7652C24.325 20.823 24.394 20.9057 24.435 21.0029C24.476 21.1001 24.487 21.2073 24.4667 21.3108C24.4464 21.4143 24.3958 21.5093 24.3212 21.5839C24.2466 21.6584 24.1514 21.709 24.0479 21.7292C23.9444 21.7493 23.8372 21.7382 23.7401 21.6971C23.643 21.6561 23.5603 21.587 23.5026 21.4987C23.445 21.4104 23.415 21.3069 23.4164 21.2014C23.4198 21.0638 23.476 20.9327 23.5734 20.8354C23.6709 20.7381 23.802 20.682 23.9396 20.6788Z" fill="black"/>
</g>
<defs>
<clipPath id="clip0_821_1246">
<rect width="27.2321" height="23.4084" fill="white" transform="translate(0.544617 0.465454)"/>
</clipPath>
</defs>
</svg>
