<svg width="238" height="419" viewBox="0 0 238 419" fill="none" xmlns="http://www.w3.org/2000/svg">
<g opacity="0.5">
<path d="M216.089 314.236C217.041 304.536 214.665 296.363 210.785 295.982C206.905 295.601 202.99 303.157 202.038 312.858C201.087 322.558 203.458 330.731 207.338 331.111C211.218 331.492 215.137 323.937 216.089 314.236ZM267.778 317.579C266.376 331.862 259.358 345.003 248.268 354.113C237.178 363.222 222.925 367.555 208.641 366.157L147.766 360.184C140.69 359.493 133.82 357.415 127.548 354.068C121.276 350.721 115.724 346.172 111.211 340.679C106.697 335.186 103.31 328.857 101.243 322.055C99.1763 315.253 98.4697 308.11 99.164 301.035L99.5709 296.887C100.265 289.812 102.347 282.943 105.696 276.673C109.046 270.402 113.598 264.853 119.093 260.343C124.588 255.832 130.918 252.449 137.721 250.385C144.525 248.322 151.667 247.619 158.742 248.318L219.617 254.29C233.9 255.695 247.04 262.714 256.147 273.804C265.255 284.895 269.585 299.149 268.185 313.432L267.778 317.579ZM363.932 243.231C358.59 224.549 358.093 216.935 365.262 205.536C346.571 210.962 336.527 247.533 334.073 253.039C326.315 270.431 305.886 256.454 316.413 239.198C329.902 216.307 333.399 198.497 317.271 177.542C314.801 202.718 283.058 217.767 277.653 211.181C272.248 204.594 316.272 174.74 240.867 92.5687C217.117 66.6933 277.903 23.5685 277.903 23.5685C277.903 23.5685 197.016 39.8417 176.1 74.1115C156.249 106.642 177.11 128.341 185.252 159.746C190.079 178.378 181.733 201.769 158.342 193.423C134.951 185.077 121.666 135.359 137.188 100.554C118.614 104.788 83.008 142.359 69.7905 178.678C58.7908 208.894 67.9378 251.136 55.9459 249.959C43.954 248.782 34.3198 223.627 24.0925 204.465C-8.70936 292.034 37.5771 328.186 61.2921 349.881C87.3255 373.717 105.92 392.091 176.924 401.421C247.928 410.751 305.325 392.743 337.81 338.142C370.296 283.541 369.275 261.914 363.912 243.229" fill="#E4D2BD"/>
<path d="M153.476 325.822C157.356 326.202 161.275 318.652 162.227 308.951C163.179 299.251 160.803 291.078 156.923 290.697C153.042 290.316 149.128 297.872 148.176 307.573C147.224 317.273 149.596 325.441 153.476 325.822Z" fill="#E4D2BD"/>
</g>
</svg>
