<svg width="183" height="200" viewBox="0 0 183 200" fill="none" xmlns="http://www.w3.org/2000/svg">
<path d="M107.824 152.986C107.824 147.937 106.187 143.843 104.168 143.843C102.149 143.843 100.514 147.937 100.514 152.986C100.514 158.036 102.149 162.129 104.168 162.129C106.187 162.129 107.824 158.036 107.824 152.986ZM134.632 152.095C134.631 159.53 131.679 166.66 126.424 171.918C121.17 177.175 114.043 180.13 106.611 180.132H74.9369C71.2555 180.134 67.6098 179.41 64.2081 178.001C60.8064 176.593 57.7153 174.528 55.1116 171.925C52.5078 169.321 50.4423 166.23 49.0331 162.827C47.6238 159.425 46.8985 155.778 46.8985 152.095V149.936C46.8985 146.253 47.6239 142.606 49.0331 139.204C50.4424 135.802 52.5079 132.711 55.1117 130.107C57.7155 127.504 60.8066 125.439 64.2083 124.031C67.61 122.623 71.2556 121.9 74.9369 121.902H106.611C114.043 121.903 121.17 124.857 126.424 130.114C131.679 135.372 134.631 142.502 134.632 149.936V152.095ZM180.426 108.899C176.728 99.5374 176.087 95.6371 179.205 89.3974C169.847 93.1407 166.52 112.504 165.534 115.466C162.415 124.826 151.18 118.653 155.733 109.224C161.527 96.7397 162.428 87.3803 153.057 77.3923C153.057 90.4975 137.459 99.8621 134.341 96.7397C131.222 93.6173 152.401 75.9985 109.385 37.4479C95.837 25.3088 124.983 0 124.983 0C124.983 0 84.12 12.4818 75.0734 31.2083C66.4878 48.9843 78.3362 59.1165 84.12 74.8959C87.5501 84.2579 84.4316 96.7397 71.9549 93.6199C59.4782 90.5001 50.1175 65.5391 56.3571 46.8099C46.9989 49.9323 30.5488 71.1037 25.5736 90.4975C21.4327 106.632 28.2826 127.948 22.043 127.948C15.8034 127.948 9.56632 115.466 3.32669 106.104C-9.15 152.912 16.5321 169.209 29.8509 179.194C44.4727 190.166 54.9846 198.699 92.0489 199.917C129.113 201.136 157.783 188.948 171.763 159.154C185.744 129.36 184.124 118.261 180.416 108.899" fill="#AF1E23"/>
<path d="M75.4461 162.3C77.3966 162.3 78.9789 158.011 78.9789 152.717C78.9789 147.423 77.3966 143.131 75.4461 143.131C73.4956 143.131 71.9158 147.423 71.9158 152.717C71.9158 158.011 73.4956 162.3 75.4461 162.3Z" fill="#AF1E23"/>
</svg>
