<svg width="20" height="22" viewBox="0 0 20 22" fill="none" xmlns="http://www.w3.org/2000/svg">
<path d="M11.7841 16.713C11.7841 16.1614 11.6051 15.7141 11.3844 15.7141C11.1638 15.7141 10.9851 16.1614 10.9851 16.713C10.9851 17.2646 11.1638 17.7118 11.3844 17.7118C11.6051 17.7118 11.7841 17.2646 11.7841 16.713ZM14.7139 16.6156C14.7138 17.4278 14.3911 18.2067 13.8169 18.7811C13.2426 19.3555 12.4637 19.6783 11.6515 19.6785H8.18983C7.78749 19.6787 7.38905 19.5996 7.01728 19.4458C6.6455 19.2919 6.30769 19.0663 6.02312 18.7819C5.73856 18.4975 5.51282 18.1597 5.3588 17.788C5.20479 17.4163 5.12552 17.0179 5.12552 16.6156V16.3798C5.12552 15.9774 5.20479 15.579 5.35881 15.2073C5.51283 14.8357 5.73857 14.498 6.02314 14.2136C6.30771 13.9291 6.64553 13.7036 7.0173 13.5498C7.38907 13.396 7.7875 13.3169 8.18983 13.3171H11.6515C12.4637 13.3173 13.2426 13.64 13.8169 14.2143C14.3911 14.7887 14.7138 15.5676 14.7139 16.3798V16.6156ZM19.7187 11.8967C19.3146 10.874 19.2445 10.4479 19.5853 9.76622C18.5625 10.1751 18.1989 12.2904 18.0911 12.6141C17.7503 13.6366 16.5224 12.9622 17.02 11.9322C17.6532 10.5683 17.7517 9.54585 16.7276 8.45471C16.7276 9.88639 15.0229 10.9094 14.6821 10.5683C14.3412 10.2272 16.6558 8.30245 11.9546 4.091C10.474 2.76486 13.6593 0 13.6593 0C13.6593 0 9.19344 1.36357 8.20475 3.40935C7.26643 5.35128 8.56133 6.45818 9.19344 8.182C9.56832 9.20475 9.2275 10.5683 7.86392 10.2275C6.50035 9.88667 5.47732 7.15981 6.15925 5.11375C5.1365 5.45485 3.33866 7.76772 2.79492 9.88639C2.34237 11.649 3.091 13.9777 2.40907 13.9777C1.72714 13.9777 1.0455 12.6141 0.363572 11.5913C-1 16.7048 1.80679 18.4852 3.26239 19.5761C4.8604 20.7747 6.00924 21.7068 10.06 21.84C14.1107 21.9731 17.244 20.6416 18.7719 17.3867C20.2999 14.1319 20.1228 12.9195 19.7176 11.8967" fill="#AF1E23"/>
<path d="M8.32154 17.7115C8.54219 17.7115 8.72119 17.2646 8.72119 16.7129C8.72119 16.1613 8.54219 15.7141 8.32154 15.7141C8.10089 15.7141 7.92218 16.1613 7.92218 16.7129C7.92218 17.2646 8.10089 17.7115 8.32154 17.7115Z" fill="#AF1E23"/>
</svg>
