<svg width="24" height="28" viewBox="0 0 24 28" fill="none" xmlns="http://www.w3.org/2000/svg">
<g clip-path="url(#clip0_821_1272)">
<path d="M10.8797 0.214294C11.2129 0.365624 11.3876 0.616418 11.4352 0.987991C11.4978 1.46969 11.6008 1.9457 11.6924 2.45723H16.2593C16.9172 2.45723 17.1687 2.71229 17.1708 3.37658V3.76165C17.6944 3.86751 17.8188 3.9549 17.8188 4.20072C17.8188 4.44654 17.6994 4.52682 17.1794 4.63694C17.1417 5.11935 17.3065 5.70264 16.6003 5.92928C16.6671 6.02093 16.7204 6.09695 16.7765 6.17013C17.2341 6.76834 17.6774 7.37792 18.1541 7.96121C18.6414 8.53321 18.8889 9.27141 18.8447 10.0216C18.8404 10.1089 18.8447 10.197 18.8447 10.3249C19.0173 10.3249 19.1729 10.3192 19.3285 10.3249C19.9814 10.3541 20.6514 10.305 21.2844 10.4343C22.7118 10.7249 23.7192 11.9903 23.7348 13.4517C23.7554 15.419 23.7597 17.387 23.7348 19.3542C23.7114 21.1048 22.3032 22.4512 20.52 22.4803C19.9729 22.4881 19.4258 22.4803 18.8454 22.4803C18.8454 22.7602 18.8454 23.0138 18.8454 23.2682C18.8454 24.4454 18.3268 25.1538 17.2028 25.5189C17.1786 25.5268 17.1552 25.5388 17.1126 25.5573C17.1126 25.9054 17.1126 26.2592 17.1126 26.6123C17.1062 27.1274 16.7957 27.4379 16.2792 27.4386C12.7077 27.4386 9.13546 27.4514 5.56395 27.4322C4.12952 27.4251 2.91392 26.8617 1.93347 25.8131C1.83969 25.7129 1.75088 25.5459 1.76651 25.4237C1.78184 25.3542 1.81365 25.2894 1.85928 25.2347C1.9049 25.1801 1.963 25.1372 2.02867 25.1097C2.15372 25.077 2.33915 25.1403 2.4514 25.2241C2.77751 25.4657 3.05601 25.7754 3.39561 25.9928C4.10024 26.4386 4.92101 26.6658 5.75454 26.646C6.58808 26.6261 7.3971 26.36 8.07971 25.8813C8.77616 25.3983 9.31317 24.7191 9.62238 23.93C9.93159 23.1409 9.99902 22.2776 9.81609 21.4501C9.46938 19.8089 8.12376 18.501 6.45345 18.182C3.32741 17.5823 0.665291 20.486 1.53703 23.5474C1.55408 23.6071 1.57256 23.6668 1.58677 23.7264C1.64218 23.9715 1.54201 24.1676 1.32816 24.2351C1.11431 24.3026 0.909692 24.1918 0.83083 23.9545C0.613909 23.3329 0.531807 22.6722 0.589982 22.0163C0.826567 19.6263 2.33773 17.9212 4.68582 17.3983C4.88333 17.3543 4.86343 17.2449 4.86343 17.1141C4.86343 14.7298 4.8748 12.3462 4.85704 9.96188C4.83624 9.23954 5.07777 8.53412 5.53695 7.97613C6.0222 7.37721 6.47761 6.75484 6.94581 6.14242C6.99341 6.0799 7.03533 6.01311 7.09216 5.92928C6.4023 5.71188 6.53729 5.12929 6.51527 4.63126C6.00799 4.54174 5.87585 4.45009 5.88082 4.19716C5.88579 3.94424 5.99805 3.86822 6.52024 3.7652C6.52024 3.6025 6.52024 3.43554 6.52024 3.26787C6.52805 2.7535 6.81366 2.46505 7.3323 2.45865C7.83602 2.45297 8.34045 2.45865 8.88325 2.45865C8.8122 2.03806 8.74968 1.6402 8.67863 1.24447C8.57704 0.68107 8.67295 0.477167 9.17596 0.215005L10.8797 0.214294ZM9.86724 8.03439C8.77384 8.03439 7.69322 8.03439 6.61331 8.03439C6.56171 8.03137 6.51089 8.04814 6.47122 8.08128C6.07407 8.58855 5.6485 9.06527 5.65418 9.7864C5.67265 12.197 5.66129 14.6076 5.66129 17.0175V17.2846C7.55468 17.3799 9.03387 18.1734 9.99513 19.7883C10.9564 21.4032 10.9365 23.0778 10.1251 24.7758H16.5193C17.5296 24.7758 18.0454 24.2643 18.0454 23.2604C18.0454 18.8114 18.0454 14.3627 18.0454 9.91428C18.0454 9.78995 18.0383 9.66633 18.0298 9.54271C17.9928 9.00275 17.6447 8.62549 17.3456 8.21982C17.3068 8.15745 17.2518 8.10671 17.1865 8.07295C17.1213 8.03919 17.0481 8.02366 16.9747 8.02799C15.6249 8.03581 14.2807 8.03226 12.9336 8.03297C12.8547 8.03297 12.7766 8.03936 12.6956 8.04362C12.6909 8.10036 12.6909 8.1574 12.6956 8.21414C12.9656 9.75727 13.2365 11.3002 13.5084 12.8428C14.0171 15.7463 14.5248 18.6497 15.0316 21.5531C15.1311 22.1258 14.8291 22.4767 14.2451 22.4817C13.8899 22.486 13.5347 22.4817 13.1794 22.4817C12.5841 22.4817 12.3581 22.2785 12.2558 21.6824C12.1279 20.9229 11.9915 20.1649 11.8594 19.4089C11.6491 18.2059 11.4393 17.0026 11.2299 15.7991C11.1773 15.4914 11.3606 15.252 11.6292 15.2762C11.8978 15.3003 11.9844 15.4978 12.0278 15.7337C12.2437 16.9813 12.4614 18.2281 12.6807 19.4743C12.8086 20.2047 12.9369 20.9353 13.0658 21.6661H14.2309C14.2174 21.5659 14.2103 21.4878 14.1968 21.411C13.7791 19.022 13.3608 16.6329 12.9421 14.2439C12.5902 12.2389 12.235 10.2342 11.8764 8.22977C11.8637 8.15872 11.7784 8.04647 11.7223 8.04362C11.3805 8.02657 11.0374 8.0351 10.6722 8.0351C10.7695 8.58997 10.8598 9.11216 10.9521 9.63507C11.1889 10.9769 11.4246 12.3194 11.659 13.6627C11.7173 13.9973 11.6058 14.1813 11.3365 14.224C11.0821 14.2637 10.927 14.1233 10.8711 13.8027C10.6722 12.6602 10.473 11.518 10.2736 10.3761C10.1479 9.60025 10.0086 8.82585 9.86724 8.03439ZM18.8688 12.8769V19.9212C18.8932 19.9287 18.9182 19.9342 18.9434 19.9375C19.4301 19.9375 19.9168 19.9411 20.4035 19.9375C20.9555 19.9375 21.1949 19.6974 21.1956 19.1461C21.1956 18.0221 21.1956 16.8979 21.1956 15.7735C21.1956 15.0396 21.1992 14.3042 21.1956 13.571C21.1956 13.181 20.9619 12.8926 20.6066 12.8805C20.0319 12.8606 19.4578 12.8769 18.8688 12.8769ZM18.8553 21.6661C19.5154 21.6661 20.1455 21.7094 20.7686 21.6569C22.0055 21.5524 22.9171 20.5869 22.9341 19.3436C22.9604 17.3862 22.9562 15.4275 22.9341 13.4694C22.9324 12.9642 22.7667 12.4732 22.4619 12.0702C22.1571 11.6672 21.7297 11.3742 21.2439 11.235C20.4624 11.0176 19.6639 11.164 18.8632 11.1214V12.0791C19.4436 12.0791 20.0084 12.072 20.5732 12.0791C20.9466 12.079 21.3049 12.2259 21.5708 12.4879C21.8367 12.75 21.9888 13.1061 21.9942 13.4794C22.006 15.4289 22.006 17.3782 21.9942 19.3272C21.9989 19.6597 21.8818 19.9824 21.6651 20.2345C21.4484 20.4867 21.147 20.6509 20.8176 20.6963C20.2763 20.7674 19.7221 20.729 19.1736 20.7389C19.0706 20.7389 18.9683 20.7389 18.8603 20.7389L18.8553 21.6661ZM16.3026 25.6014C16.2849 25.5936 16.2666 25.5872 16.2479 25.5822C14.0692 25.5822 11.8904 25.5805 9.71165 25.5772C9.65125 25.5731 9.59124 25.5894 9.54114 25.6234C9.18591 25.9559 8.83067 26.2948 8.4861 26.6273H16.3012L16.3026 25.6014ZM16.3595 4.61918H7.3323V5.1229H16.3595V4.61918ZM7.33656 3.78225H16.3595V3.2693H7.33656V3.78225ZM12.5301 7.2209H16.5797C16.2849 6.83441 16.0071 6.48344 15.7456 6.12039C15.7052 6.05878 15.6486 6.0094 15.5822 5.97759C15.5157 5.94579 15.4417 5.93276 15.3684 5.93994C14.4391 5.94704 13.5098 5.93994 12.5805 5.93994H12.3063C12.3816 6.39534 12.4533 6.80457 12.5272 7.22233L12.5301 7.2209ZM7.13053 7.2209H9.73012C9.66334 6.83086 9.6065 6.45644 9.52906 6.08416C9.5134 6.04887 9.48925 6.018 9.45875 5.99432C9.42825 5.97064 9.39236 5.95489 9.35429 5.94846C8.98342 5.93567 8.61114 5.93851 8.23957 5.94846C8.17141 5.9478 8.10558 5.97322 8.05555 6.01951C7.74508 6.40387 7.44953 6.79676 7.12484 7.22233L7.13053 7.2209ZM10.6331 1.02991H9.4502C9.53759 1.51658 9.62142 1.98193 9.70241 2.43521H10.8754C10.7908 1.95351 10.7099 1.49313 10.6274 1.03133L10.6331 1.02991ZM10.3248 5.9442C10.3958 6.35698 10.4548 6.73779 10.5287 7.11647C10.541 7.14561 10.5605 7.17118 10.5854 7.1908C10.6102 7.21042 10.6396 7.22346 10.6708 7.22872C11.0139 7.23867 11.3571 7.2344 11.7223 7.2344C11.6512 6.82731 11.5915 6.44579 11.5169 6.06711C11.5059 6.03795 11.4877 6.01198 11.4642 5.99152C11.4406 5.97107 11.4124 5.95676 11.382 5.94988C11.0317 5.94136 10.6892 5.94562 10.3191 5.94562L10.3248 5.9442Z" fill="black"/>
<path d="M7.11006 22.3716C7.10162 22.7548 6.94346 23.1195 6.66944 23.3876C6.39542 23.6556 6.02734 23.8057 5.64401 23.8057C5.26069 23.8057 4.8926 23.6556 4.61859 23.3876C4.34457 23.1195 4.1864 22.7548 4.17797 22.3716C4.17367 22.1764 4.20841 21.9822 4.28016 21.8006C4.3519 21.619 4.4592 21.4535 4.59576 21.3139C4.73232 21.1743 4.89539 21.0634 5.0754 20.9877C5.25541 20.9119 5.44873 20.8729 5.64401 20.8729C5.8393 20.8729 6.03262 20.9119 6.21263 20.9877C6.39263 21.0634 6.5557 21.1743 6.69226 21.3139C6.82882 21.4535 6.93613 21.619 7.00787 21.8006C7.07961 21.9822 7.11436 22.1764 7.11006 22.3716ZM6.3115 22.3588C6.30938 22.2269 6.26823 22.0985 6.19322 21.9899C6.11822 21.8814 6.01274 21.7974 5.89008 21.7488C5.76743 21.7001 5.63311 21.6888 5.50407 21.7164C5.37502 21.744 5.25705 21.8093 5.16504 21.9038C5.07303 21.9984 5.0111 22.1182 4.98707 22.2479C4.96304 22.3777 4.97799 22.5116 5.03003 22.6329C5.08208 22.7542 5.16887 22.8573 5.27948 22.9293C5.39008 23.0012 5.51952 23.0388 5.65147 23.0373C5.73984 23.0377 5.82738 23.0203 5.90887 22.9862C5.99035 22.952 6.06411 22.9017 6.12573 22.8384C6.18734 22.775 6.23555 22.6999 6.26747 22.6175C6.29939 22.5351 6.31436 22.4471 6.3115 22.3588Z" fill="black"/>
<path d="M8.38464 22.3652C8.38499 22.4672 8.34621 22.5654 8.27629 22.6397C8.20638 22.714 8.11064 22.7586 8.0088 22.7644C7.90224 22.7679 7.79863 22.729 7.72062 22.6564C7.64262 22.5837 7.59654 22.4831 7.59247 22.3765C7.59442 22.2744 7.63425 22.1766 7.70422 22.1022C7.77419 22.0277 7.86932 21.982 7.97115 21.9737C8.07782 21.971 8.18122 22.0107 8.25871 22.0841C8.3362 22.1574 8.38148 22.2585 8.38464 22.3652Z" fill="black"/>
<path d="M6.03995 20.0363C6.03885 20.0891 6.02728 20.1411 6.00591 20.1894C5.98454 20.2376 5.95379 20.2812 5.91546 20.3175C5.87712 20.3537 5.83196 20.382 5.78259 20.4007C5.73322 20.4194 5.68064 20.4281 5.62788 20.4263C5.52616 20.4189 5.43082 20.374 5.36043 20.3002C5.29003 20.2264 5.24963 20.129 5.24707 20.027C5.25273 19.9206 5.29912 19.8205 5.37663 19.7473C5.45414 19.6742 5.55683 19.6336 5.6634 19.6342C5.76544 19.641 5.86107 19.6863 5.93097 19.761C6.00087 19.8356 6.03982 19.934 6.03995 20.0363Z" fill="black"/>
<path d="M3.99527 21.1105C3.89442 21.106 3.79911 21.0631 3.72885 20.9906C3.6586 20.9181 3.61871 20.8214 3.61735 20.7205C3.61598 20.6196 3.65325 20.5219 3.72153 20.4475C3.78981 20.3732 3.88392 20.3277 3.98462 20.3205C4.03785 20.3176 4.0911 20.3255 4.1412 20.3438C4.19129 20.362 4.23718 20.3902 4.27611 20.4266C4.31505 20.463 4.34623 20.5069 4.36778 20.5556C4.38933 20.6044 4.40081 20.657 4.40153 20.7103C4.40225 20.7636 4.39219 20.8165 4.37196 20.8658C4.35173 20.9151 4.32175 20.9598 4.28381 20.9973C4.24586 21.0347 4.20075 21.0641 4.15117 21.0837C4.10159 21.1033 4.04856 21.1126 3.99527 21.1112V21.1105Z" fill="black"/>
<path d="M7.69133 20.7176C7.69248 20.8199 7.65321 20.9186 7.58204 20.9922C7.51087 21.0657 7.41356 21.1083 7.31124 21.1105C7.25936 21.11 7.2081 21.0993 7.16037 21.0789C7.11264 21.0586 7.06938 21.0291 7.03306 20.992C6.99674 20.955 6.96808 20.9112 6.9487 20.863C6.92932 20.8149 6.91961 20.7634 6.92012 20.7116C6.92064 20.6597 6.93136 20.6084 6.95169 20.5607C6.97201 20.513 7.00154 20.4697 7.03859 20.4334C7.07563 20.3971 7.11946 20.3684 7.16759 20.349C7.21571 20.3297 7.26718 20.3199 7.31905 20.3205C7.42082 20.3245 7.5169 20.3685 7.58655 20.4428C7.6562 20.5171 7.69384 20.6158 7.69133 20.7176Z" fill="black"/>
<path d="M3.69918 22.3645C3.70088 22.4696 3.66074 22.5711 3.58759 22.6467C3.51444 22.7222 3.41428 22.7656 3.30914 22.7673C3.20399 22.769 3.10248 22.7289 3.02694 22.6557C2.95139 22.5826 2.908 22.4824 2.9063 22.3773C2.90461 22.2721 2.94475 22.1706 3.01789 22.0951C3.09104 22.0195 3.1912 21.9761 3.29635 21.9744C3.40149 21.9727 3.503 22.0129 3.57855 22.086C3.65409 22.1592 3.69749 22.2593 3.69918 22.3645Z" fill="black"/>
<path d="M3.99101 23.6306C4.09289 23.6333 4.18998 23.6744 4.26283 23.7457C4.33568 23.817 4.37892 23.9131 4.3839 24.0149C4.38315 24.1174 4.3426 24.2156 4.27082 24.2887C4.19904 24.3618 4.10164 24.4042 3.9992 24.4069C3.89676 24.4096 3.79728 24.3723 3.72178 24.303C3.64629 24.2337 3.60067 24.1378 3.59457 24.0355C3.59392 23.9829 3.60366 23.9306 3.62325 23.8817C3.64283 23.8329 3.67187 23.7883 3.70871 23.7507C3.74554 23.7131 3.78944 23.6831 3.83788 23.6625C3.88633 23.6419 3.93837 23.631 3.99101 23.6306Z" fill="black"/>
<path d="M7.31032 23.6306C7.36318 23.632 7.4152 23.644 7.46328 23.666C7.51136 23.688 7.55451 23.7195 7.59013 23.7586C7.62575 23.7977 7.65312 23.8435 7.6706 23.8934C7.68808 23.9433 7.6953 23.9963 7.69184 24.049C7.69049 24.0996 7.67903 24.1493 7.65814 24.1954C7.63724 24.2414 7.60734 24.2828 7.57019 24.3171C7.53304 24.3514 7.4894 24.3779 7.44184 24.3951C7.39428 24.4122 7.34376 24.4197 7.29327 24.417C7.19118 24.4167 7.09334 24.3761 7.02088 24.3042C6.94843 24.2323 6.90719 24.1348 6.90607 24.0327C6.907 23.9259 6.94996 23.8239 7.02563 23.7486C7.1013 23.6733 7.20359 23.6309 7.31032 23.6306Z" fill="black"/>
<path d="M5.63872 24.3161C5.74088 24.3168 5.83902 24.356 5.91346 24.426C5.9879 24.4959 6.03315 24.5914 6.04014 24.6934C6.04252 24.746 6.03435 24.7987 6.01611 24.8481C5.99786 24.8976 5.96992 24.9429 5.93391 24.9814C5.89791 25.02 5.85457 25.0509 5.80644 25.0724C5.75831 25.094 5.70636 25.1057 5.65364 25.1068C5.55162 25.1073 5.45319 25.0693 5.37808 25.0002C5.30297 24.9312 5.25675 24.8363 5.24868 24.7346C5.24758 24.6281 5.28745 24.5253 5.36006 24.4474C5.43266 24.3695 5.53243 24.3225 5.63872 24.3161Z" fill="black"/>
<path d="M15.6186 9.65352C15.6181 9.70623 15.6071 9.75831 15.5864 9.80677C15.5656 9.85522 15.5355 9.8991 15.4977 9.93588C15.4599 9.97265 15.4153 10.0016 15.3663 10.0211C15.3173 10.0405 15.2649 10.0501 15.2122 10.0492C15.1106 10.0404 15.0156 9.995 14.9449 9.92144C14.8743 9.84787 14.8327 9.75116 14.8279 9.64925C14.8327 9.54277 14.8786 9.4423 14.956 9.36901C15.0334 9.29572 15.1362 9.25534 15.2428 9.25637C15.3446 9.26114 15.4407 9.30517 15.5107 9.37922C15.5808 9.45326 15.6195 9.55157 15.6186 9.65352Z" fill="black"/>
<path d="M7.72032 15.0573C7.61843 15.0528 7.52206 15.0097 7.4508 14.9367C7.37954 14.8638 7.33874 14.7664 7.33667 14.6644C7.34102 14.5585 7.38581 14.4583 7.4618 14.3845C7.53779 14.3106 7.63921 14.2686 7.74519 14.2673C7.79804 14.2701 7.8498 14.2834 7.89744 14.3064C7.94509 14.3295 7.98765 14.3618 8.02265 14.4015C8.05765 14.4412 8.08438 14.4874 8.10127 14.5376C8.11816 14.5877 8.12488 14.6408 8.12102 14.6936C8.11497 14.7945 8.06965 14.8891 7.99477 14.9571C7.91989 15.025 7.82139 15.061 7.72032 15.0573Z" fill="black"/>
<path d="M16.7177 12.7973C16.6113 12.793 16.5107 12.7478 16.4368 12.6712C16.3628 12.5946 16.3212 12.4924 16.3206 12.386C16.3267 12.2843 16.3715 12.1887 16.4457 12.1189C16.5199 12.049 16.6179 12.0101 16.7198 12.0101C16.7702 12.0092 16.8203 12.0183 16.8672 12.0368C16.9141 12.0553 16.9568 12.0829 16.993 12.1181C17.0291 12.1532 17.0579 12.1952 17.0777 12.2415C17.0976 12.2879 17.108 12.3377 17.1085 12.3881C17.1104 12.4408 17.1017 12.4934 17.083 12.5427C17.0642 12.5919 17.0358 12.637 16.9994 12.6751C16.963 12.7133 16.9193 12.7437 16.8709 12.7647C16.8225 12.7857 16.7704 12.7968 16.7177 12.7973Z" fill="black"/>
<path d="M9.59251 12.609C9.58918 12.7155 9.54438 12.8165 9.46766 12.8904C9.39095 12.9643 9.28839 13.0054 9.18186 13.0048C9.08006 13.0002 8.98389 12.9568 8.91317 12.8834C8.84245 12.8101 8.80257 12.7124 8.80176 12.6105C8.80152 12.5578 8.81197 12.5057 8.83246 12.4572C8.85296 12.4087 8.88307 12.3648 8.921 12.3283C8.95892 12.2918 9.00385 12.2633 9.05309 12.2446C9.10232 12.226 9.15483 12.2175 9.20744 12.2197C9.30904 12.2236 9.40535 12.266 9.47685 12.3383C9.54836 12.4106 9.5897 12.5074 9.59251 12.609Z" fill="black"/>
<path d="M9.02834 10.0464C9.02986 10.0974 9.02117 10.1482 9.00278 10.1958C8.98439 10.2434 8.95668 10.2868 8.92127 10.3236C8.88586 10.3603 8.84347 10.3896 8.79658 10.4097C8.7497 10.4298 8.69926 10.4404 8.64824 10.4407C8.59499 10.4443 8.54156 10.437 8.49124 10.4192C8.44091 10.4015 8.39476 10.3736 8.35561 10.3373C8.31646 10.301 8.28514 10.2571 8.26358 10.2083C8.24202 10.1595 8.23067 10.1067 8.23024 10.0534C8.2298 9.99999 8.24028 9.94709 8.26104 9.89791C8.2818 9.84874 8.31239 9.80433 8.35095 9.76742C8.3895 9.7305 8.43519 9.70186 8.48522 9.68325C8.53524 9.66464 8.58855 9.65646 8.64185 9.65921C8.69277 9.65883 8.74326 9.66859 8.79037 9.68793C8.83748 9.70726 8.88027 9.73578 8.91624 9.77182C8.95221 9.80786 8.98065 9.8507 8.9999 9.89784C9.01915 9.94499 9.02882 9.99549 9.02834 10.0464Z" fill="black"/>
<path d="M7.79573 11.7459C7.79717 11.7988 7.78793 11.8514 7.76857 11.9006C7.74921 11.9498 7.72012 11.9947 7.68305 12.0324C7.64598 12.0701 7.60168 12.1 7.55281 12.1202C7.50393 12.1405 7.45148 12.1506 7.39858 12.1501C7.29697 12.1461 7.20045 12.1046 7.12763 12.0337C7.05481 11.9627 7.01087 11.8672 7.00427 11.7658C7.00521 11.6595 7.04804 11.5579 7.12346 11.483C7.19889 11.4081 7.30082 11.366 7.40711 11.3658C7.50866 11.3659 7.60614 11.4058 7.67874 11.4768C7.75134 11.5478 7.79332 11.6444 7.79573 11.7459Z" fill="black"/>
<path d="M15.1596 11.7615C15.1619 11.8155 15.1531 11.8694 15.1336 11.9199C15.1141 11.9703 15.0844 12.0162 15.0463 12.0546C15.0082 12.093 14.9627 12.1231 14.9124 12.143C14.8621 12.163 14.8083 12.1723 14.7542 12.1704C14.7002 12.1685 14.6471 12.1555 14.5984 12.1322C14.5496 12.1088 14.5062 12.0756 14.4709 12.0347C14.4355 11.9937 14.4091 11.9459 14.3931 11.8943C14.3771 11.8426 14.372 11.7882 14.3781 11.7345C14.3892 11.6364 14.4368 11.5461 14.5116 11.4816C14.5863 11.4171 14.6827 11.3831 14.7813 11.3865C14.88 11.3899 14.9738 11.4304 15.0439 11.4999C15.114 11.5694 15.1553 11.6628 15.1596 11.7615Z" fill="black"/>
</g>
<defs>
<clipPath id="clip0_821_1272">
<rect width="23.1825" height="27.2321" fill="white" transform="translate(0.569458 0.214294)"/>
</clipPath>
</defs>
</svg>
