<svg width="27" height="28" viewBox="0 0 27 28" fill="none" xmlns="http://www.w3.org/2000/svg">
<g clip-path="url(#clip0_821_1219)">
<path d="M13.5744 27.7857C13.4624 27.7375 13.3468 27.6964 13.239 27.6403C12.7021 27.3638 12.4752 26.9071 12.4752 26.3191C12.4752 25.0899 12.4752 23.8607 12.4752 22.6315V22.3123C10.6441 22.2325 8.83818 21.8555 7.12807 21.1961L6.50896 22.3776C5.9941 23.364 5.48421 24.3526 4.96155 25.3348C4.59562 26.0227 3.85525 26.2858 3.18366 25.9865C2.45464 25.6582 2.17097 24.8278 2.55321 24.0881C3.23354 22.7709 3.92096 21.4566 4.61548 20.1451C4.72469 19.9395 4.702 19.843 4.51974 19.699C2.46173 18.0758 1.26394 15.9426 0.837017 13.3732C0.7661 12.9392 0.759008 12.4946 0.71504 12.0556C0.632067 11.1911 1.01218 10.5358 1.64689 9.9983C2.52839 9.25154 3.57442 8.82675 4.6559 8.48138C6.52527 7.88355 8.45209 7.58357 10.4002 7.40557C12.2591 7.23306 14.1283 7.20153 15.992 7.31125C18.5847 7.46656 21.1477 7.79916 23.6092 8.6835C24.4602 8.98986 25.275 9.37068 25.9799 9.95291C26.6529 10.5082 27.0132 11.1833 26.9728 12.0939C26.8262 15.227 25.5379 17.7767 23.1078 19.743L22.9305 19.8848C22.9731 19.9728 23.0114 20.0579 23.0553 20.1416C23.7411 21.4564 24.434 22.7655 25.1119 24.0874C25.5757 24.988 25.0821 25.9617 24.0999 26.1135C23.5517 26.1979 23.005 25.9007 22.71 25.3433C22.1533 24.2888 21.6051 23.2307 21.0526 22.174C20.8853 21.8542 20.7172 21.5358 20.542 21.2011C18.8324 21.8555 17.0281 22.2291 15.1991 22.3074V22.6279C15.1991 23.7775 15.175 24.927 15.2069 26.0759C15.2296 26.9205 14.9346 27.5127 14.1042 27.7836L13.5744 27.7857ZM1.84617 13.737C1.85019 13.7963 1.85777 13.8553 1.86886 13.9136C2.53264 16.6262 4.08218 18.6509 6.57066 19.9416C8.11523 20.7415 9.77682 21.1294 11.4937 21.3138C11.8143 21.3486 12.1362 21.367 12.4575 21.3932C12.4752 20.999 12.4617 20.6422 12.5128 20.2955C12.6227 19.5473 13.3943 19.0473 14.1297 19.2189C14.7758 19.37 15.18 19.8848 15.1984 20.589C15.2055 20.8585 15.1984 21.128 15.1984 21.4018C16.86 21.3308 18.4287 21.033 19.9336 20.4614C22.9121 19.3267 24.8978 17.2581 25.7488 14.1569C25.7863 14.0207 25.8076 13.8803 25.8487 13.6831C24.8836 14.3739 23.8631 14.788 22.8029 15.1072C20.1406 15.9071 17.4025 16.1936 14.6375 16.2624C12.3551 16.3225 10.0722 16.1633 7.82022 15.7873C6.22529 15.5171 4.64952 15.1518 3.17302 14.4604C2.72128 14.2484 2.29365 13.9831 1.84617 13.737ZM14.063 15.3681C16.6437 15.3284 19.106 15.1221 21.5207 14.5171C22.7057 14.2214 23.8723 13.8626 24.9126 13.1995C25.2322 12.9961 25.5224 12.7499 25.775 12.4676C26.1743 12.0159 26.175 11.5046 25.775 11.0493C25.5275 10.7656 25.2396 10.4869 24.9119 10.321C24.1744 9.94724 23.4227 9.5806 22.639 9.32813C20.1045 8.50266 17.4763 8.24452 14.8268 8.16722C12.8375 8.10523 10.8465 8.21008 8.87475 8.48067C7.2004 8.71399 5.55016 9.05581 3.98148 9.69903C3.25883 9.99475 2.55746 10.3337 2.0114 10.9138C1.48236 11.4762 1.46676 12.0591 2.01637 12.5953C2.34101 12.9066 2.70423 13.1749 3.09714 13.3938C4.12828 13.9746 5.25657 14.3058 6.40188 14.5767C8.95276 15.1802 11.5483 15.3667 14.063 15.3674V15.3681ZM14.2921 23.5172C14.2921 22.9073 14.2921 22.2979 14.2921 21.689C14.2921 21.3181 14.2992 20.9472 14.2886 20.5763C14.2801 20.2763 14.0978 20.0926 13.8375 20.0933C13.5773 20.094 13.4056 20.2791 13.3851 20.5791C13.3851 20.6231 13.3851 20.6678 13.3851 20.7117C13.3851 22.5556 13.3851 24.4011 13.3851 26.2482C13.3827 26.3366 13.3888 26.4249 13.4035 26.512C13.42 26.6179 13.4752 26.7139 13.5584 26.7815C13.6416 26.8491 13.7468 26.8835 13.8538 26.878C14.0801 26.8595 14.2347 26.7404 14.2793 26.5092C14.2932 26.4132 14.2989 26.3161 14.2964 26.2192C14.294 25.318 14.2926 24.4172 14.2921 23.5165V23.5172ZM21.3725 20.8316C22.1008 22.2244 22.8156 23.5917 23.5312 24.9583C23.5475 24.9895 23.5617 25.0334 23.5886 25.0455C23.7262 25.1072 23.8773 25.2199 24.0056 25.1994C24.0793 25.1817 24.148 25.1474 24.2064 25.0991C24.2648 25.0508 24.3113 24.9897 24.3425 24.9207C24.3879 24.7852 24.3474 24.5881 24.2779 24.4519C23.6134 23.1577 22.9355 21.8698 22.2596 20.5812C22.2284 20.5217 22.1887 20.4664 22.1511 20.4082L21.3725 20.8316ZM5.53243 20.4103C5.50265 20.4323 5.48279 20.4394 5.4757 20.4536C4.76653 21.8131 4.05027 23.1726 3.34819 24.5363C3.29997 24.6292 3.26805 24.7888 3.31486 24.8597C3.40351 24.993 3.53896 25.1341 3.68434 25.1809C3.90418 25.2518 4.06516 25.105 4.16941 24.9058C4.74904 23.7952 5.32914 22.6842 5.90971 21.5727C6.03524 21.3316 6.15934 21.0897 6.29408 20.8302L5.53243 20.4103Z" fill="black"/>
<path d="M12.0845 0.553589C12.232 0.676275 12.4142 0.757121 12.4582 0.884771C12.4819 0.965391 12.4887 1.05005 12.4781 1.13341C12.4675 1.21678 12.4397 1.29704 12.3965 1.36913C12.1284 1.74145 11.8178 2.08256 11.5214 2.43289C11.0072 3.0442 10.9966 3.29595 11.4363 3.9569C11.9398 4.715 11.8519 5.666 11.1016 6.38439C11.0212 6.46347 10.9129 6.50779 10.8002 6.50779C10.6874 6.50779 10.5792 6.46347 10.4988 6.38439C10.4199 6.31224 10.3694 6.21427 10.3564 6.10815C10.3434 6.00204 10.3687 5.89477 10.4279 5.8057C10.4322 5.79783 10.4375 5.79045 10.4435 5.78372C10.9718 5.2561 10.9193 4.74762 10.4895 4.16043C10.0598 3.57324 10.13 2.735 10.5874 2.15277C10.942 1.70103 11.315 1.26347 11.693 0.830165C11.7824 0.725208 11.9242 0.66351 12.0845 0.553589Z" fill="black"/>
<path d="M13.5923 6.50496C13.2008 6.50496 12.9881 6.1759 13.1058 5.88089C13.117 5.8472 13.1348 5.81609 13.1583 5.78941C13.6965 5.25115 13.6277 4.737 13.1958 4.14271C12.764 3.54843 12.8512 2.72437 13.3143 2.13718C13.6689 1.69395 14.0341 1.26348 14.4007 0.833015C14.6078 0.589769 14.8666 0.55502 15.0744 0.726639C15.2822 0.898259 15.2872 1.17342 15.095 1.41099C14.7638 1.81451 14.4234 2.21022 14.0922 2.61658C13.7611 3.02293 13.754 3.4073 14.0554 3.82713C14.661 4.66679 14.6028 5.58304 13.8802 6.32199C13.7931 6.39593 13.6962 6.4575 13.5923 6.50496Z" fill="black"/>
<path d="M18.0173 1.03156C17.9223 1.20318 17.8755 1.32799 17.7953 1.42657C17.4791 1.81803 17.1514 2.20027 16.8302 2.58748C16.4756 3.01298 16.4642 3.39452 16.7834 3.83704C17.3805 4.66606 17.3081 5.60074 16.5905 6.33403C16.3933 6.53614 16.1479 6.56096 15.9522 6.39998C15.7565 6.239 15.7395 5.96739 15.9132 5.73832C15.9508 5.68939 15.9919 5.644 16.0302 5.59649C16.355 5.18375 16.3649 4.80931 16.0635 4.38735C15.4799 3.57039 15.5083 2.76194 16.1494 1.99178C16.477 1.59819 16.8039 1.20389 17.1344 0.813135C17.2713 0.651444 17.4564 0.55216 17.6485 0.658536C17.7939 0.737254 17.8904 0.898235 18.0173 1.03156Z" fill="black"/>
<path d="M10.2888 14.6541C9.89236 14.6541 9.67181 14.3257 9.80301 14.0378C9.85567 13.9367 9.92577 13.8457 10.0101 13.769C11.5911 12.1861 13.1727 10.6047 14.7551 9.02466C14.8196 8.95208 14.8941 8.88904 14.9764 8.83744C15.0628 8.78768 15.1635 8.76832 15.2622 8.78246C15.3609 8.7966 15.4521 8.84342 15.5211 8.91543C15.5901 8.98745 15.6329 9.08052 15.6428 9.17976C15.6527 9.279 15.6291 9.3787 15.5757 9.46293C15.5349 9.52136 15.4873 9.5747 15.4338 9.62178C13.8264 11.2292 12.2189 12.8346 10.6115 14.4378C10.5126 14.5221 10.4044 14.5947 10.2888 14.6541Z" fill="black"/>
<path d="M12.4753 8.70911C12.625 8.81903 12.7945 8.88356 12.854 9.0027C12.9136 9.12184 12.886 9.30339 12.854 9.44806C12.8363 9.53033 12.737 9.59841 12.6682 9.66649C11.2376 11.0976 9.80674 12.5282 8.37563 13.9584C8.33343 14.0037 8.28868 14.0465 8.2416 14.0867C8.15494 14.1645 8.04126 14.2051 7.92498 14.1999C7.80869 14.1947 7.69907 14.1442 7.61966 14.0591C7.54017 13.9746 7.49591 13.863 7.49591 13.7471C7.49591 13.6311 7.54017 13.5195 7.61966 13.435C7.6544 13.3946 7.69057 13.3591 7.73099 13.3215C9.16872 11.8848 10.6069 10.4487 12.0456 9.01334C12.164 8.90484 12.3122 8.82825 12.4753 8.70911Z" fill="black"/>
<path d="M17.9762 9.65226C17.8776 9.81396 17.8294 9.94302 17.7408 10.0317C16.2572 11.5223 14.77 13.0095 13.2794 14.4931C13.0666 14.7023 12.8021 14.7058 12.6177 14.525C12.422 14.3342 12.4284 14.0697 12.651 13.8456C14.1304 12.3625 15.6113 10.8815 17.094 9.40264C17.2493 9.24733 17.4386 9.14521 17.6386 9.27357C17.7727 9.35938 17.8599 9.51681 17.9762 9.65226Z" fill="black"/>
<path d="M20.237 10.0934C20.142 10.2572 20.0952 10.3955 20.0023 10.4891C18.6747 11.8252 17.3432 13.1572 16.0075 14.4853C15.7856 14.7058 15.5111 14.7094 15.326 14.5143C15.1409 14.3193 15.1551 14.0626 15.3636 13.8534C16.6997 12.5131 18.0377 11.1746 19.3775 9.83807C19.5314 9.68489 19.7222 9.61965 19.9066 9.72673C20.0349 9.8019 20.1179 9.95579 20.237 10.0934Z" fill="black"/>
<path d="M22.9546 10.1019C22.8625 10.26 22.8171 10.3912 22.7298 10.4799C21.5455 11.6722 20.3574 12.8603 19.1656 14.0441C18.9528 14.2569 18.6918 14.2569 18.5046 14.0711C18.3174 13.8853 18.3145 13.6229 18.5245 13.4116C19.7163 12.215 20.9106 11.0207 22.1072 9.82884C22.2625 9.67353 22.4568 9.62034 22.6376 9.7331C22.7646 9.81324 22.8447 9.96925 22.9546 10.1019Z" fill="black"/>
<path d="M5.75373 13.7442C5.32823 13.7371 5.12399 13.3683 5.29703 13.0726C5.34151 13.0062 5.39443 12.9459 5.45446 12.8932C6.60474 11.742 7.75548 10.5917 8.9067 9.44236C8.95987 9.38312 9.02041 9.33093 9.08683 9.28706C9.17105 9.23871 9.26872 9.21908 9.36508 9.23111C9.46144 9.24315 9.55127 9.28621 9.62101 9.35379C9.69075 9.42136 9.73661 9.50979 9.75168 9.60573C9.76674 9.70166 9.75019 9.79989 9.70452 9.8856C9.66998 9.94702 9.62648 10.0029 9.57545 10.0515C8.40674 11.2212 7.23613 12.389 6.06364 13.5548C5.96973 13.6322 5.86541 13.6959 5.75373 13.7442Z" fill="black"/>
<path d="M6.05513 9.68201C6.48843 9.6891 6.69338 10.0494 6.5246 10.3486C6.47747 10.4238 6.42073 10.4924 6.35581 10.5529C5.66886 11.2417 4.98121 11.9294 4.29284 12.6158C4.26163 12.647 4.23114 12.6797 4.19781 12.708C3.98931 12.886 3.72905 12.8867 3.55388 12.708C3.37872 12.5293 3.37233 12.2676 3.5631 12.0698C3.83046 11.7861 4.11058 11.518 4.38574 11.2429C4.83535 10.7926 5.28142 10.3387 5.73884 9.89547C5.83606 9.81285 5.94213 9.74126 6.05513 9.68201Z" fill="black"/>
<path d="M21.9547 13.815C21.8214 13.6959 21.671 13.6023 21.5845 13.4718C21.4703 13.2952 21.5455 13.113 21.6866 12.9697C22.0022 12.6492 22.3213 12.3315 22.6398 12.0145C22.9078 11.7464 23.1731 11.4762 23.4447 11.211C23.6751 10.9869 23.9283 10.9748 24.1226 11.1698C24.3169 11.3649 24.2985 11.6308 24.0822 11.8499C23.5049 12.4319 22.9241 13.0108 22.3398 13.5867C22.2511 13.6732 22.1199 13.7143 21.9547 13.815Z" fill="black"/>
</g>
<defs>
<clipPath id="clip0_821_1219">
<rect width="26.2726" height="27.2321" fill="white" transform="translate(0.703064 0.553589)"/>
</clipPath>
</defs>
</svg>
