<svg width="35" height="36" viewBox="0 0 35 36" fill="none" xmlns="http://www.w3.org/2000/svg">
<path d="M17.324 8.51416C12.4131 8.51416 8.43724 12.5362 8.43724 17.4946C8.43724 22.4573 12.4174 26.475 17.324 26.475C22.235 26.475 26.2108 22.4529 26.2108 17.4946C26.2108 12.5319 22.2307 8.51416 17.324 8.51416ZM17.324 23.3235C14.1362 23.3235 11.5558 20.7146 11.5558 17.4946C11.5558 14.2746 14.1376 11.6656 17.324 11.6656C20.5105 11.6656 23.0922 14.2746 23.0922 17.4946C23.0937 20.7146 20.5119 23.3235 17.324 23.3235Z" fill="#E4D2BD"/>
<path d="M24.4585 0.111892C21.272 -0.0383163 13.3796 -0.0310246 10.1903 0.111892C7.3877 0.2446 4.91562 0.928558 2.92266 2.94252C-0.408077 6.30835 0.0176455 10.8438 0.0176455 17.4952C0.0176455 24.3027 -0.357568 28.7331 2.92266 32.0479C6.26639 35.4254 10.8195 34.9835 17.3236 34.9835C23.9967 34.9835 26.2999 34.9879 28.6594 34.0648C31.8675 32.8063 34.289 29.9085 34.5257 24.7038C34.6758 21.4823 34.6671 13.5081 34.5257 10.2852C34.24 4.14127 30.9771 0.415225 24.4585 0.111892ZM29.5022 29.821C27.3187 32.0275 24.2896 31.8306 17.2818 31.8306C10.0661 31.8306 7.17267 31.9385 5.06138 29.7992C2.62971 27.3535 3.06986 23.4263 3.06986 17.4719C3.06986 9.4146 2.25161 3.61189 10.2538 3.19772C12.0923 3.1321 12.6335 3.11022 17.2616 3.11022L17.3265 3.15397C25.017 3.15397 31.0507 2.34022 31.4129 10.4252C31.4952 12.27 31.5139 12.8242 31.5139 17.4938C31.5125 24.7008 31.6481 27.6423 29.5022 29.821Z" fill="#E4D2BD"/>
<path d="M26.5629 10.2581C27.7098 10.2581 28.6395 9.31857 28.6395 8.15958C28.6395 7.00058 27.7098 6.06104 26.5629 6.06104C25.4159 6.06104 24.4862 7.00058 24.4862 8.15958C24.4862 9.31857 25.4159 10.2581 26.5629 10.2581Z" fill="#E4D2BD"/>
</svg>
