<svg width="23" height="28" viewBox="0 0 23 28" fill="none" xmlns="http://www.w3.org/2000/svg">
<g clip-path="url(#clip0_821_1262)">
<path d="M7.55878 27.4464C7.02878 27.2574 6.83482 26.8716 6.80782 26.3225C6.68704 23.8706 6.53998 21.4202 6.40357 18.9691C6.3401 17.8191 6.279 16.6687 6.22027 15.5177C6.20535 15.2165 6.3446 15.0445 6.58687 15.0317C6.82913 15.019 6.99823 15.1888 7.01741 15.4985C7.05648 16.1536 7.08846 16.8079 7.12682 17.463L7.50834 24.3651C7.51289 24.3982 7.51953 24.4309 7.52823 24.4632H18.0765C18.0992 24.1023 18.1227 23.7357 18.1476 23.3691C18.1547 23.2625 18.1596 23.1559 18.166 23.0501C18.1838 22.7538 18.3294 22.5925 18.5753 22.5968C18.8211 22.601 18.9745 22.7801 18.9632 23.0941C18.9518 23.3946 18.9298 23.6959 18.9127 23.9964C18.868 24.7836 18.8047 25.5708 18.7848 26.3587C18.7713 26.8908 18.5511 27.2489 18.0616 27.4478L7.55878 27.4464ZM7.55878 25.2958C7.57725 25.6454 7.59644 25.9722 7.61065 26.2983C7.62628 26.6479 7.62486 26.6486 7.9808 26.6486H17.6048C17.6757 26.6576 17.7477 26.6552 17.8179 26.6415C17.874 26.6216 17.9522 26.5633 17.96 26.5164C17.9941 26.115 18.0133 25.7122 18.0381 25.2958H7.55878Z" fill="black"/>
<path d="M12.3856 4.17157C12.5526 3.99538 12.7082 3.83765 12.8574 3.67425C13.0499 3.46111 13.0513 3.27425 12.8474 3.06751C11.8472 2.04433 10.5507 1.36134 9.14122 1.11503C7.73172 0.868727 6.28046 1.07157 4.9925 1.69489C4.70832 1.82988 4.476 1.7702 4.37298 1.54853C4.26996 1.32687 4.37298 1.1116 4.64722 0.975899C7.55444 -0.459952 11.192 0.179467 13.4321 2.51974C13.9231 3.0327 13.9252 3.72256 13.4264 4.23196C12.944 4.72574 12.4467 5.21098 11.9579 5.70049C11.8982 5.76017 11.8428 5.82412 11.7561 5.9179H16.1241L16.8303 3.27639C16.8715 3.12293 16.9077 2.96733 16.9503 2.81387C17.1535 2.09204 17.5962 1.58406 18.3052 1.3219C19.2288 0.97803 20.1482 0.632744 21.076 0.295983C21.6281 0.0949212 22.1076 0.320139 22.3229 0.867908C22.4067 1.08199 22.4868 1.29774 22.563 1.51514C22.7612 2.08351 22.541 2.55668 21.9719 2.77125C21.2337 3.05046 20.4956 3.32896 19.7517 3.59183C19.5386 3.66714 19.4221 3.77442 19.3681 4.00319C19.2167 4.63835 19.037 5.2664 18.8636 5.91505C18.988 5.93566 19.0924 5.94561 19.1926 5.9726C19.6089 6.08344 19.8888 6.4749 19.8647 6.94239C19.7936 8.27877 19.7169 9.61445 19.6423 10.9508C19.5428 12.7114 19.4434 14.4721 19.3439 16.2331C19.2515 17.8881 19.1601 19.543 19.0697 21.1979C19.054 21.4821 18.8857 21.6583 18.6505 21.649C18.4153 21.6398 18.259 21.4572 18.2739 21.1673C18.3493 19.7161 18.4279 18.2648 18.5098 16.8136C18.6083 15.0346 18.708 13.2558 18.8089 11.4773C18.8338 11.0283 18.8565 10.5786 18.8849 10.0464C18.5745 10.1693 18.3052 10.2482 18.0636 10.3775C17.4047 10.7355 16.659 10.9028 15.9102 10.8606C15.3673 10.8397 14.8366 10.6938 14.3593 10.4343C13.6646 10.0384 12.8447 9.92376 12.068 10.1139C11.7703 10.185 11.4862 10.327 11.2069 10.4578C10.0311 11.0134 8.86241 11.0134 7.69014 10.445C7.39104 10.3029 7.07772 10.1835 6.71467 10.0301C6.73741 10.5025 6.75446 10.8961 6.77648 11.2897C6.81911 12.0421 6.86671 12.7938 6.90863 13.5462C6.9271 13.8687 6.7779 14.0712 6.5264 14.0819C6.27489 14.0925 6.13067 13.9149 6.1122 13.6009C6.07383 12.9757 6.03689 12.3505 5.99639 11.6791C5.91043 11.7501 5.85004 11.7949 5.79817 11.846C5.33211 12.3092 4.8703 12.776 4.40211 13.2364C3.86357 13.7664 3.15737 13.7643 2.62594 13.2364C1.90362 12.5197 1.33191 11.6658 0.944436 10.725C0.556961 9.78408 0.361548 8.77522 0.36969 7.75772C0.377832 6.74021 0.589365 5.73461 0.991847 4.80005C1.39433 3.8655 1.97963 3.02087 2.71333 2.31584C2.80285 2.22916 2.89379 2.14461 2.99041 2.06717C3.19645 1.90164 3.43587 1.91229 3.58294 2.08849C3.73001 2.26468 3.69804 2.47711 3.52255 2.65686C3.21066 2.9851 2.86821 3.2906 2.59255 3.64512C0.489574 6.34631 0.745341 10.2318 3.17087 12.6474C3.41669 12.8925 3.60497 12.894 3.8586 12.6524C4.00567 12.5103 4.15558 12.3732 4.32751 12.2112C2.86395 10.8862 2.11867 9.27129 2.25153 7.30899C2.35028 5.85182 2.96199 4.62272 4.01846 3.60746C6.14772 1.56416 10.061 1.44552 12.3856 4.17157ZM15.9074 6.72925H14.6214C12.0368 6.72925 9.45186 6.72925 6.86671 6.72925C6.64931 6.72925 6.51148 6.75056 6.53848 7.02906C6.58111 7.47808 6.58821 7.93136 6.61379 8.37895C6.63013 8.6674 6.65286 8.95585 6.66707 9.16686C7.23118 9.40202 7.74272 9.61871 8.2578 9.82688C8.42904 9.89921 8.60642 9.95603 8.78781 9.99668C9.61479 10.1643 10.375 9.98815 11.126 9.61232C12.2329 9.05815 13.3675 9.08799 14.4886 9.61232C14.6726 9.69757 14.8559 9.78638 15.0669 9.88656L15.9074 6.72925ZM4.74455 4.03587C5.3726 4.66108 5.96797 5.25858 6.5669 5.84827C6.60898 5.89287 6.66522 5.92149 6.72604 5.92926C7.212 5.93566 7.69938 5.92926 8.20097 5.92926V2.9041C6.90508 2.83661 5.76833 3.19823 4.74455 4.03587ZM5.79746 8.05498C5.78041 7.75374 5.74773 7.46458 5.7527 7.17613C5.75768 6.88768 5.80101 6.59213 5.82375 6.33068L4.13995 4.64758C3.34375 5.62329 2.97786 6.75909 3.04228 8.05498H5.79746ZM16.9425 5.93424C17.2672 5.93424 17.5407 5.92642 17.8136 5.93424C17.9748 5.94063 18.0452 5.88735 18.0857 5.72536C18.2526 5.05681 18.4473 4.39537 18.6093 3.7254C18.7151 3.28846 18.9595 3.01493 19.3872 2.86858C19.9821 2.66681 20.5718 2.44964 21.1563 2.21708C22.0124 1.87606 21.9229 2.14106 21.5904 1.19117C21.5329 1.02634 21.4483 0.995792 21.2906 1.05618C20.367 1.40289 19.4434 1.73681 18.5283 2.08494C18.1809 2.21637 17.9031 2.45651 17.7994 2.81245C17.5031 3.83197 17.236 4.85717 16.9425 5.93424ZM9.03647 3.0327V5.93282C9.54019 5.93282 10.0262 5.93282 10.5121 5.93282C10.565 5.93013 10.6153 5.90902 10.6542 5.87314C11.0329 5.50156 11.4066 5.12573 11.7909 4.74208C11.0371 3.88881 10.1555 3.2906 9.03647 3.0327ZM3.17158 8.88196C3.44156 10.008 4.03764 10.8826 4.88451 11.6286C5.21985 11.2947 5.55235 10.965 5.87917 10.634C5.91116 10.6028 5.92998 10.5606 5.93174 10.516C5.90474 9.97181 5.87206 9.4276 5.8408 8.88196H3.17158ZM15.8434 10.0805C16.1838 10.0542 16.4758 10.0485 16.7607 10.0002C16.8136 9.98372 16.8621 9.95528 16.9024 9.9171C16.9427 9.87892 16.9737 9.83201 16.993 9.77999C17.2352 8.92032 17.4605 8.05569 17.6907 7.19247C17.7283 7.05038 17.7617 6.90829 17.8065 6.73351C17.4619 6.73351 17.1528 6.72783 16.8452 6.73919C16.8144 6.74703 16.7859 6.76224 16.7623 6.78353C16.7386 6.80482 16.7205 6.83155 16.7095 6.86139C16.4211 7.91004 16.1411 8.96011 15.8434 10.0812V10.0805ZM17.9002 9.52138C18.215 9.43683 18.4985 9.37147 18.7741 9.28124C18.8134 9.2642 18.8481 9.23826 18.8756 9.20545C18.9031 9.17265 18.9226 9.13389 18.9326 9.09226C18.9842 8.378 19.0249 7.66351 19.0548 6.94878C19.0468 6.90376 19.0278 6.8614 18.9996 6.82546C18.9713 6.78952 18.9346 6.76111 18.8928 6.74275C18.7848 6.70864 18.6462 6.69586 18.6008 6.87205C18.372 7.7509 18.1375 8.6269 17.9002 9.52138Z" fill="black"/>
<path d="M15.3105 21.5737C15.1841 21.8089 15.101 22.0455 14.9496 22.2259C14.6968 22.5115 14.4283 22.7828 14.1454 23.0387C13.7447 23.4202 13.2069 23.4174 12.8097 23.033C12.5355 22.768 12.2641 22.4995 11.9998 22.2245C11.6254 21.8359 11.6232 21.3045 11.9962 20.9137C12.2652 20.6295 12.5414 20.3536 12.8246 20.086C12.9951 19.9128 13.2273 19.8142 13.4703 19.8118C13.7133 19.8094 13.9474 19.9034 14.1212 20.0732C14.4242 20.3466 14.7115 20.6369 14.9816 20.9428C15.1223 21.1084 15.1905 21.3357 15.3105 21.5737ZM14.4466 21.5794C14.4299 21.5367 14.4077 21.4963 14.3805 21.4593C14.1191 21.1943 13.8598 20.9258 13.5841 20.6778C13.5429 20.6409 13.3916 20.6622 13.3397 20.7091C13.0903 20.9357 12.8609 21.1837 12.6172 21.4196C12.4992 21.5332 12.5106 21.6228 12.6228 21.7307C12.853 21.9517 13.0811 22.1762 13.3013 22.4071C13.4264 22.5393 13.5273 22.5492 13.6566 22.4114C13.8761 22.1798 14.1077 21.9588 14.3322 21.7322C14.3733 21.6835 14.4115 21.6325 14.4466 21.5794Z" fill="black"/>
<path d="M15.7148 15.652C15.9685 15.7899 16.2036 15.8758 16.3841 16.0272C16.6634 16.2732 16.9293 16.534 17.1805 16.8087C17.5677 17.2101 17.5756 17.7387 17.1947 18.1415C16.9333 18.4186 16.6619 18.6879 16.3848 18.95C15.9706 19.3429 15.442 19.3365 15.0307 18.9372C14.7692 18.6843 14.5118 18.4276 14.2584 18.1671C13.8506 17.7479 13.852 17.2151 14.2584 16.7959C14.5037 16.5275 14.7632 16.2723 15.0356 16.0314C15.2268 15.8787 15.4683 15.7877 15.7148 15.652ZM15.7219 16.5216C15.6778 16.5411 15.6356 16.5649 15.5962 16.5927C15.3376 16.847 15.0747 17.0964 14.8324 17.365C14.7912 17.4104 14.8069 17.5689 14.8552 17.6229C15.079 17.8715 15.3276 18.0989 15.5607 18.3404C15.6722 18.4562 15.7639 18.4491 15.8726 18.3404C16.0999 18.106 16.3301 17.8737 16.5667 17.6484C16.6924 17.5291 16.6868 17.4353 16.5667 17.3181C16.3358 17.0985 16.1155 16.8691 15.8889 16.6467C15.8365 16.6014 15.7812 16.5596 15.7234 16.5216H15.7219Z" fill="black"/>
<path d="M10.1612 18.5443C10.054 18.5417 9.95225 18.4971 9.8777 18.4202C9.80315 18.3432 9.76181 18.2401 9.76258 18.1329C9.76718 18.0307 9.81131 17.9342 9.88566 17.8638C9.96001 17.7934 10.0588 17.7547 10.1612 17.7557C10.2141 17.754 10.2668 17.7634 10.316 17.7833C10.3651 17.8032 10.4095 17.8331 10.4464 17.8712C10.4832 17.9092 10.5117 17.9546 10.53 18.0043C10.5483 18.0541 10.556 18.1071 10.5526 18.1599C10.55 18.2623 10.5077 18.3596 10.4347 18.4314C10.3616 18.5031 10.2635 18.5436 10.1612 18.5443Z" fill="black"/>
<path d="M9.75323 14.9544C9.75377 15.0074 9.7435 15.0599 9.72305 15.1088C9.70261 15.1577 9.67242 15.2019 9.63432 15.2387C9.59623 15.2755 9.55103 15.3042 9.50148 15.323C9.45193 15.3418 9.39908 15.3503 9.34614 15.348C9.24381 15.3424 9.1474 15.2983 9.07634 15.2244C9.00527 15.1506 8.96484 15.0526 8.9632 14.9501C8.96379 14.8971 8.97509 14.8449 8.99641 14.7964C9.01773 14.7479 9.04863 14.7042 9.08725 14.668C9.12587 14.6318 9.17142 14.6037 9.22116 14.5855C9.2709 14.5673 9.3238 14.5594 9.37669 14.5622C9.42739 14.5624 9.47753 14.5729 9.52413 14.5929C9.57073 14.6129 9.61283 14.642 9.64795 14.6786C9.68307 14.7152 9.71048 14.7584 9.72857 14.8058C9.74665 14.8532 9.75504 14.9037 9.75323 14.9544Z" fill="black"/>
<path d="M11.8947 16.2857C11.8954 16.3373 11.8859 16.3885 11.8668 16.4365C11.8477 16.4844 11.8194 16.5281 11.7834 16.5651C11.7474 16.6021 11.7045 16.6316 11.6571 16.652C11.6097 16.6724 11.5587 16.6832 11.5071 16.6839C11.4555 16.6846 11.4043 16.6752 11.3564 16.6561C11.3084 16.637 11.2647 16.6086 11.2278 16.5726C11.1908 16.5366 11.1613 16.4937 11.1409 16.4463C11.1205 16.3989 11.1096 16.348 11.1089 16.2964C11.1075 16.1922 11.1475 16.0917 11.2202 16.017C11.2929 15.9423 11.3923 15.8996 11.4965 15.8982C11.6007 15.8968 11.7012 15.9368 11.7759 16.0095C11.8505 16.0822 11.8933 16.1815 11.8947 16.2857Z" fill="black"/>
</g>
<defs>
<clipPath id="clip0_821_1262">
<rect width="22.2624" height="27.2321" fill="white" transform="translate(0.368835 0.214294)"/>
</clipPath>
</defs>
</svg>
