<svg width="28" height="26" viewBox="0 0 28 26" fill="none" xmlns="http://www.w3.org/2000/svg">
<g clip-path="url(#clip0_821_1255)">
<path d="M0.223267 13.5583C0.266611 13.3786 0.300717 13.196 0.35543 13.019C0.753343 11.7329 1.60743 10.9136 2.8971 10.5321C2.9516 10.5154 3.00219 10.4879 3.04588 10.4513C3.08957 10.4146 3.12548 10.3696 3.15148 10.3189C4.10315 7.65336 5.80186 5.60767 8.2476 4.18181C8.28313 4.16121 8.3151 4.13421 8.37195 4.0937C6.70995 3.39878 5.81394 2.18515 5.70878 0.378906H7.29901C7.35088 1.16549 7.66707 1.82063 8.3286 2.28178C8.85726 2.65056 9.452 2.73085 10.127 2.68183C9.65806 1.97766 9.38449 1.23158 9.38165 0.378906H10.9655C11.0088 1.12073 11.2931 1.73749 11.8793 2.19794C12.3241 2.54529 12.8787 2.72175 13.4425 2.69533C15.216 2.65269 16.9171 2.96179 18.5251 3.71853C21.4064 5.07356 23.401 7.24716 24.4853 10.245C24.5055 10.3239 24.5476 10.3954 24.6069 10.4513C24.6661 10.5071 24.74 10.545 24.82 10.5605C25.5808 10.7588 26.2535 11.2057 26.731 11.8303C27.2086 12.4549 27.4635 13.2212 27.4554 14.0074C27.4462 15.6104 26.3683 16.9918 24.7908 17.4067C24.7234 17.4188 24.6608 17.4496 24.61 17.4954C24.5591 17.5412 24.5221 17.6003 24.503 17.6661C22.981 21.7163 20.0976 24.2117 15.8705 25.0736C10.5498 26.1565 4.98401 22.9164 3.20761 17.7606C3.133 17.5439 3.02713 17.4486 2.80544 17.3804C1.40635 16.947 0.557229 16.0019 0.272295 14.5574C0.259061 14.5071 0.242686 14.4578 0.223267 14.4096L0.223267 13.5583ZM11.2199 6.91604C11.2255 6.99918 11.2298 7.05815 11.2341 7.12068C11.33 8.39969 12.4257 9.46055 13.7004 9.51029C15.177 9.56784 16.414 8.43735 16.4474 6.99918C16.4837 5.48214 15.3383 4.28911 13.8184 4.29408C11.2987 4.30261 9.10809 5.17802 7.25353 6.87412C5.82247 8.18297 4.88879 9.79736 4.42551 11.6782C4.36227 11.934 4.26919 12.0335 3.98851 12.0299C3.68824 12.0208 3.38861 12.0629 3.10245 12.1543C2.68427 12.3001 2.32942 12.5861 2.09811 12.9638C1.8668 13.3414 1.77327 13.7875 1.83339 14.2263C1.9819 15.2004 2.72372 15.8605 3.7519 15.9238C4.32887 15.9614 4.32887 15.9614 4.48164 16.5114C5.8111 21.3112 10.5008 24.388 15.383 23.5253C19.3565 22.8233 21.9507 20.4444 23.17 16.5875C23.234 16.3857 23.2333 16.1128 23.369 15.9991C23.5047 15.8854 23.769 15.9394 23.9772 15.9195L24.1094 15.9074C24.3943 15.8779 24.6693 15.7858 24.9145 15.6378C25.1598 15.4898 25.3693 15.2894 25.5282 15.0511C25.6871 14.8127 25.7914 14.5422 25.8337 14.2588C25.876 13.9755 25.8552 13.6863 25.7728 13.412C25.5085 12.5444 24.778 12.0356 23.7676 12.02C23.3505 12.0129 23.3491 12.0136 23.2461 11.6249C22.5987 9.18414 21.2323 7.25498 19.1248 5.86442C18.675 5.56811 18.1848 5.3315 17.7137 5.06717L17.6618 5.12757C18.0592 5.98726 18.1548 6.95591 17.9332 7.87672C17.719 8.80123 17.1918 9.62331 16.441 10.2038C15.7818 10.7274 14.98 11.04 14.1403 11.1008C13.3007 11.1617 12.4622 10.9679 11.7343 10.5449C10.4276 9.78172 9.48824 8.14389 9.66587 6.92102L11.2199 6.91604Z" fill="black"/>
<path d="M9.9892 18.371L11.3613 17.5609C11.9532 18.4527 12.771 18.9643 13.8411 18.9622C14.9112 18.96 15.7184 18.4648 16.3146 17.5595L17.6881 18.3681C16.7992 19.7445 15.5649 20.5169 13.9442 20.551C12.2445 20.5872 10.9413 19.817 9.9892 18.371Z" fill="black"/>
<path d="M11.8891 14.2852H10.3209C10.1454 13.6017 9.8285 13.2905 9.29913 13.2677C8.75627 13.2457 8.42941 13.5441 8.19422 14.2852H6.64307C6.65728 13.353 7.0424 12.6289 7.79488 12.1273C8.68166 11.5354 9.62812 11.4977 10.5554 12.02C11.4145 12.5032 11.8429 13.2713 11.8891 14.2852Z" fill="black"/>
<path d="M17.3711 14.2859H15.7994C15.81 13.3665 16.1888 12.6481 16.9249 12.1443C17.8039 11.5425 18.7454 11.5013 19.6854 12.0022C20.5381 12.4563 21.0689 13.3828 21.0198 14.276H19.4616C19.4254 13.9207 19.2825 13.5804 18.9308 13.412C18.7328 13.3185 18.515 13.2748 18.2963 13.2848C17.7939 13.316 17.482 13.6663 17.3711 14.2859Z" fill="black"/>
</g>
<defs>
<clipPath id="clip0_821_1255">
<rect width="27.2321" height="24.9029" fill="white" transform="translate(0.223267 0.378906)"/>
</clipPath>
</defs>
</svg>
