<svg width="92" height="102" viewBox="0 0 92 102" fill="none" xmlns="http://www.w3.org/2000/svg">
<path d="M20.2241 85.1704L18.2867 84.4552L18.721 83.2809L23.7658 85.1469L23.3315 86.3213L21.3953 85.6026L17.5499 95.9673L16.3728 95.5352L20.2241 85.1704Z" fill="white"/>
<path d="M22.2003 97.5574L21.0951 97.2298L26.6672 86.0512L28.401 86.5667L26.9415 98.9655L25.7444 98.6132L26.0387 96.1165L23.3221 95.3097L22.2003 97.5574ZM26.2023 94.9339L27.0262 87.7704L23.8153 94.2235L26.2023 94.9339Z" fill="white"/>
<path d="M38.6625 89.5801C38.9592 90.0874 39.0239 90.7959 38.8567 91.7057L38.7508 92.2752C38.6331 92.9434 38.4307 93.4496 38.1623 93.8019C38.023 93.9781 37.8502 94.1252 37.6539 94.2349C37.4576 94.3445 37.2416 94.4144 37.0182 94.4407C37.9496 94.9214 38.2839 95.8762 38.021 97.3049L37.8327 98.3243C37.6632 99.2457 37.3262 99.9112 36.8216 100.321C36.3171 100.73 35.6403 100.856 34.7912 100.698L32.2559 100.228L34.4852 88.1321L36.957 88.5854C37.7966 88.7412 38.3651 89.0728 38.6625 89.5801ZM36.0813 99.2532C36.3402 99.0269 36.5215 98.6316 36.6251 98.0671L36.8228 96.9961C36.9405 96.3385 36.9087 95.8535 36.7169 95.5376C36.525 95.2217 36.1566 95.015 35.6116 94.9152L34.5405 94.719L33.7095 99.2285L35.016 99.4693C35.4665 99.5507 35.8215 99.4787 36.0813 99.2532ZM36.9052 93.5259C37.1846 93.3388 37.3807 92.9399 37.4937 92.3292L37.6244 91.6246C37.724 91.0829 37.7032 90.6652 37.562 90.3716C37.4207 90.078 37.1324 89.8905 36.6969 89.8091L35.4845 89.586L34.7642 93.4918L35.7058 93.6656C36.2237 93.7596 36.6219 93.713 36.9005 93.5259H36.9052Z" fill="white"/>
<path d="M41.3086 89.99C41.788 89.4787 42.4476 89.2603 43.2872 89.3347C44.1268 89.409 44.7404 89.7394 45.1281 90.3258C45.5157 90.913 45.6672 91.6845 45.5824 92.6404L45.0222 98.9819C44.9382 99.9386 44.6537 100.672 44.1688 101.181C43.6839 101.691 43.022 101.91 42.1831 101.837C41.3529 101.764 40.7444 101.434 40.3575 100.847C39.9706 100.26 39.8192 99.4877 39.9032 98.531L40.4634 92.193C40.5474 91.2355 40.8291 90.5012 41.3086 89.99ZM41.3439 100.047C41.54 100.37 41.8563 100.551 42.2926 100.588C43.1754 100.667 43.6685 100.116 43.7721 98.9373L44.3442 92.4619C44.3936 91.9022 44.323 91.4579 44.1323 91.1291C43.9416 90.8002 43.623 90.6163 43.1765 90.5771C42.741 90.5395 42.3977 90.6652 42.1466 90.9541C41.8955 91.243 41.7456 91.6681 41.697 92.2294L41.1249 98.7048C41.0763 99.2771 41.1493 99.7245 41.3439 100.047Z" fill="white"/>
<path d="M48.7969 101.946L47.5658 102L47.0231 89.7128L51.4853 89.5167L51.5406 90.7626L48.3096 90.9012L48.7969 101.946Z" fill="white"/>
<path d="M53.3815 89.9841C53.7158 89.3695 54.2989 88.9925 55.1306 88.8532C55.9624 88.7138 56.6396 88.879 57.1622 89.3488C57.6856 89.8185 58.0274 90.527 58.1874 91.4743L59.2468 97.7465C59.4037 98.6946 59.3139 99.4775 58.9772 100.095C58.6406 100.713 58.0548 101.091 57.2199 101.228C56.3991 101.365 55.727 101.199 55.2036 100.729C54.6802 100.26 54.3389 99.5511 54.1796 98.6038L53.1202 92.3316C52.9609 91.3819 53.048 90.5994 53.3815 89.9841ZM55.9569 99.7076C56.2292 99.9707 56.5823 100.066 57.0163 99.993C57.8896 99.8466 58.2278 99.1902 58.0309 98.0236L56.948 91.6129C56.8538 91.0586 56.6734 90.6464 56.4066 90.3763C56.1398 90.1062 55.7847 90.0084 55.3413 90.0827C54.9105 90.1555 54.6104 90.3634 54.4409 90.7063C54.2714 91.0492 54.2322 91.4982 54.3232 92.0533L55.4061 98.464C55.5026 99.0301 55.6862 99.445 55.9569 99.7088V99.7076Z" fill="white"/>
<path d="M63.4665 99.7687L62.2635 100.105L58.949 88.2578L60.1519 87.9219L61.6432 93.2534L64.2963 92.5148L62.805 87.1844L64.0079 86.8486L67.3213 98.6954L66.1184 99.03L64.6271 93.6997L61.9752 94.4384L63.4665 99.7687Z" fill="white"/>
<path d="M72.8029 91.9347L73.3278 93.3134C73.6707 94.2106 73.741 94.9762 73.5385 95.6104C73.3361 96.2445 72.8378 96.7123 72.0437 97.0137L69.7543 97.8816L65.3745 86.3836L66.5421 85.942L68.2689 90.475L69.3011 90.0792C70.931 89.4654 72.0982 90.0839 72.8029 91.9347ZM72.3697 95.1148C72.4615 94.786 72.4054 94.3531 72.2014 93.816L71.6188 92.2893C71.4104 91.7409 71.1562 91.3874 70.8549 91.2254C70.5535 91.0633 70.1828 91.0669 69.7437 91.2324L68.7114 91.6247L70.477 96.2727L71.5999 95.8464C72.0221 95.6883 72.2787 95.4444 72.3697 95.1148Z" fill="white"/>
<path d="M28.0361 57.6967C28.5502 57.8155 29.0729 57.8941 29.5993 57.9315C30.3632 57.9245 30.4232 57.7119 30.5974 55.9352C30.7975 53.9188 31.3319 49.3424 31.3578 48.5063C31.4814 44.5875 31.6638 43.8324 30.2337 43.85C29.6452 43.8582 29.072 43.8864 28.4752 43.9005C28.1833 47.7042 27.2875 59.2503 26.6884 67.2699C26.4601 70.5722 26.1529 74.7611 26.6107 77.3411C26.1046 77.2354 24.6557 76.9712 24.1495 76.8584C24.2096 73.5832 25.256 63.209 25.489 59.9479C25.8574 54.863 26.5484 45.4201 26.6402 41.9346C27.6277 41.9405 30.2478 41.6657 31.0882 41.6998C33.5436 41.7984 33.1657 43.3098 32.928 49.3412C32.8244 51.9788 32.237 56.3438 32.1393 57.82C31.9957 59.9749 31.2189 60.1205 29.6228 60.0137C29.1727 59.9661 28.7258 59.892 28.2845 59.7917C28.1374 58.7724 28.175 58.5845 28.0361 57.6967Z" fill="white"/>
<path d="M35.3892 58.0912C35.6458 52.9746 35.9377 48.8679 36.1907 43.5763C37.7386 43.5118 40.4552 43.6797 40.9966 43.7889C40.9142 42.9199 40.8554 41.9698 40.8566 41.2723C39.7713 41.2723 37.6373 41.3005 35.9859 41.4015C35.3739 41.439 34.8265 41.4766 34.4216 41.5189C34.4581 45.0278 34.2298 48.5426 34.0132 52.0422C33.6601 57.3173 33.274 62.5901 32.9233 67.8665C32.6961 71.339 32.4136 75.064 32.3194 78.546C33.9285 78.9159 36.9335 79.0357 39.0121 79.0357C39.0121 78.3405 39.0333 77.4597 39.0545 76.6306C38.1235 76.9418 35.8765 76.8032 34.2745 76.6846C34.5429 70.4606 34.863 65.8172 35.2338 60.3612C36.764 60.4575 39.0392 60.5292 39.4123 60.6724C39.4888 59.4582 39.4782 59.1693 39.5548 57.9574C39.1687 58.0196 36.9182 58.103 35.3892 58.0912Z" fill="white"/>
<path d="M46.4476 57.8881C45.912 57.8658 44.6585 57.7941 44.2759 57.7988C44.3866 58.7512 44.3771 59.1223 44.5113 60.1229C46.4264 60.2168 47.408 60.2168 47.3704 61.8069C47.3468 62.7769 47.3221 65.7362 47.2621 67.4437C47.1926 69.4037 46.9172 73.1041 46.776 75.0218C46.6653 76.5285 45.7802 77.179 44.7514 77.1908C44.1488 77.1908 43.3708 77.1626 42.7328 77.118C42.9223 68.5453 43.4496 60.4176 43.904 51.8543C44.0664 48.7141 44.2841 46.5698 44.3901 43.4331C45.9202 43.3579 49.2866 43.8923 49.8386 44.0038C49.7562 43.1348 49.7209 42.2153 49.7033 41.486C48.4615 41.3991 47.1632 41.2758 45.6401 41.2711C44.755 41.2711 43.1036 41.2711 42.7257 41.2852C42.7893 44.9034 42.568 48.2408 42.382 51.8543C42.0831 57.2234 41.75 62.5984 41.4486 68.0192C41.2497 71.6514 41.0343 75.7698 40.9072 79.4103C41.4074 79.4385 43.9334 79.5219 44.755 79.5277C46.8124 79.5277 48.2226 78.4015 48.498 76.2877C48.631 75.259 49.2843 62.7628 49.2619 61.7024C49.1983 59.2891 48.731 57.982 46.4476 57.8881Z" fill="white"/>
<path d="M53.9618 58.1922C54.2067 58.2744 55.6191 58.4694 56.1111 58.3308C56.6031 58.1922 56.6173 57.9022 56.6031 56.0279C56.5867 53.7626 56.6326 50.8972 56.6761 47.8874C56.7385 43.5881 56.13 43.877 54.5657 43.7114C54.0548 43.6574 53.8877 43.6738 53.4004 43.6409C53.3356 52.0774 53.2344 59.8469 53.019 68.2763C52.9402 71.8522 52.8401 76.761 53.3145 79.2682C52.7624 79.2917 51.4771 79.233 50.9086 79.2482C50.9521 75.6489 51.1028 71.8498 51.2087 68.2552C51.3617 62.9248 51.5359 57.5968 51.689 52.2677C51.7808 48.6389 51.8632 45.1218 51.7878 41.4919C52.4128 41.4919 55.1707 41.7632 56.0028 41.8771C58.0874 42.1624 58.4546 42.2153 58.3099 48.5379C58.2522 51.0628 58.2286 56.9157 58.1086 58.5398C57.9885 60.1639 57.4259 60.5656 56.3195 60.5362C55.7592 60.5256 54.6716 60.3836 54.2208 60.3284C54.129 59.4629 53.9771 58.4118 53.9618 58.1922Z" fill="white"/>
<path d="M66.5939 77.6734C66.1231 77.7908 64.6906 78.0938 64.2398 78.196C64.5505 76.9371 64.6012 74.0177 64.5776 69.48C64.56 66.1989 64.3269 62.5819 64.2398 60.7159C63.8396 60.8826 63.277 60.9378 62.7944 60.9202C62.2671 60.9014 61.6173 60.8838 61.2783 60.7699C61.05 63.0011 60.5498 67.5964 60.3179 69.8288C59.9942 72.9478 59.6046 75.6864 59.2526 78.8019C58.9607 78.8278 57.1398 79.045 56.8373 79.0697C57.593 78.041 58.969 65.7585 59.3362 62.4927C60.3202 53.7743 60.6557 50.9841 61.7927 42.5288C63.1287 42.7202 64.1021 42.9152 64.454 42.9809C64.9861 48.9043 65.2921 51.9059 65.9559 60.1557C66.1007 64.2812 66.3196 71.1088 66.5939 77.6734ZM64.2398 58.4576C64.0115 53.6862 63.5948 49.4539 63.1534 44.6978C62.7567 47.2696 61.9151 53.8084 61.4314 58.5551C61.5161 58.6326 62.3189 58.6655 62.9227 58.6655C63.5265 58.6655 64.0456 58.5938 64.2327 58.4576H64.2398Z" fill="white"/>
<path d="M14.3082 39.1315C14.1874 39.1314 14.0707 39.0876 13.9798 39.0081C13.2153 38.2855 12.5873 37.4314 12.126 36.4868C11.1208 34.42 11.1691 32.278 12.2684 30.2933C12.7063 29.503 13.1218 28.5835 13.4878 27.772C13.7538 27.1849 14.0046 26.6282 14.2282 26.2019C14.2752 26.112 14.3487 26.0386 14.4388 25.9916C14.5288 25.9446 14.6311 25.9262 14.732 25.9389C14.8327 25.9518 14.9271 25.9952 15.0024 26.0632C15.0777 26.1313 15.1304 26.2206 15.1534 26.3194C15.2278 26.7134 15.2797 27.1114 15.3087 27.5113C15.3923 28.3686 15.4971 29.4361 15.7795 30.2652C16.1903 31.4524 16.9189 32.2956 17.8853 32.7043C18.3386 32.8884 18.8257 32.9756 19.3149 32.9602C19.8041 32.9449 20.2847 32.8273 20.7255 32.615C21.7625 32.13 21.9991 30.5928 22.2062 29.2364C22.2333 29.0615 22.2592 28.8912 22.2863 28.7268C22.9819 24.5214 20.835 21.9532 20.8138 21.9285C20.7449 21.848 20.7035 21.7476 20.6957 21.642C20.6879 21.5364 20.714 21.4311 20.7702 21.3413C20.8266 21.2516 20.9103 21.1824 21.009 21.1437C21.1077 21.105 21.2163 21.0989 21.3187 21.1264C21.4812 21.1687 25.3207 22.2115 27.1757 24.6612C28.7389 26.7198 28.5435 28.5365 28.4128 29.732C28.3128 30.6609 28.3375 30.8406 28.5776 30.9381C28.6424 30.9725 28.715 30.9898 28.7884 30.9881C28.8617 30.9865 28.9335 30.966 28.9966 30.9287C29.8759 30.4213 30.2843 27.4444 30.4185 26.4662C30.4385 26.3217 30.4562 26.1949 30.4715 26.0904C30.5091 25.8359 30.5484 25.5803 30.5892 25.3235C31.3543 20.0718 32.2194 14.1203 40.2575 12.4245C40.3773 12.3995 40.5021 12.4194 40.6082 12.4802C40.7143 12.541 40.7943 12.6387 40.833 12.7545C40.8711 12.8706 40.865 12.9967 40.8159 13.1086C40.7669 13.2206 40.6783 13.3106 40.567 13.3617C37.8269 14.61 37.8598 21.5938 39.0875 26.0446C39.8125 28.6716 40.7353 29.7837 41.3368 29.7167C41.4074 29.7085 41.777 29.5876 42.0713 27.9552C42.2938 26.7257 42.3985 25.0816 42.5103 23.3412C42.6716 20.8117 42.8387 18.1952 43.3943 16.4478C44.2783 13.6682 46.4546 12.3059 48.3697 11.1046C49.9446 10.1181 51.3041 9.26554 51.8408 7.82579C52.4434 6.2099 51.9008 3.88587 50.1812 0.723361C50.122 0.614135 50.106 0.486771 50.1363 0.366356C50.1666 0.245941 50.2409 0.141204 50.3448 0.0727738C50.4486 0.00417906 50.5744 -0.0230242 50.6973 -0.0034503C50.8203 0.0161236 50.9314 0.0810482 51.0086 0.178466C51.4248 0.67379 51.8697 1.14434 52.341 1.58768C54.5951 3.80132 58.0015 7.14585 57.4024 14.5877C56.9963 19.6514 57.5789 21.8768 59.5505 22.7975C60.4368 23.2109 61.9399 23.0324 63.4736 22.3278C64.9366 21.6584 66.1149 20.6379 66.3373 19.8452C67.0341 17.3709 65.5687 15.5001 65.5546 15.479C65.4769 15.3815 65.4388 15.2585 65.4478 15.1343C65.4567 15.0101 65.512 14.8938 65.6028 14.8084C65.6938 14.7234 65.8134 14.6755 65.9381 14.6742C66.0628 14.6729 66.1834 14.7183 66.2761 14.8014C66.4762 14.9811 71.1809 19.2909 70.2475 25.9447C70.0121 28.0069 70.2981 29.4337 71.0396 29.8471C71.5387 30.1266 72.1955 29.9117 72.6239 29.5758C73.0524 29.24 73.276 28.6293 73.2807 27.8671C73.2807 26.9993 72.9735 26.1174 72.538 25.7686C72.4436 25.6937 72.3797 25.5872 72.358 25.4689C72.3364 25.3505 72.3585 25.2284 72.4203 25.1251C72.4825 25.0221 72.5801 24.9454 72.6949 24.9091C72.8098 24.8727 72.9339 24.8794 73.0442 24.9278C73.1619 24.9771 73.2996 25.0299 73.462 25.0898C74.3071 25.4022 75.5807 25.8755 76.8849 27.3375C78.3479 28.9816 79.5721 32.9626 76.9472 37.1797C76.8775 37.2914 76.7663 37.371 76.6378 37.4009C76.5094 37.4309 76.3743 37.4087 76.2622 37.3394C76.1503 37.2701 76.0706 37.1593 76.0406 37.0313C76.0105 36.9034 76.0327 36.7688 76.1021 36.6571C78.4244 32.9262 77.358 29.3644 76.141 27.9951C75.5591 27.3238 74.8441 26.78 74.0411 26.398C74.1957 26.874 74.2731 27.3715 74.2706 27.8718C74.2636 28.9546 73.8963 29.8365 73.2337 30.3556C72.5969 30.8559 71.5116 31.2493 70.55 30.7138C69.7543 30.2699 68.8833 29.0603 69.2552 25.8191C69.726 22.4722 68.6067 19.7278 67.4897 17.9193C67.5602 18.6569 67.4924 19.4013 67.2896 20.1141C66.9188 21.4317 65.2886 22.5873 63.8832 23.2297C62.0646 24.0611 60.2849 24.2337 59.1244 23.6924C56.3512 22.4006 56.0287 19.2169 56.4066 14.5043C56.9103 8.2239 54.4656 5.14477 52.3328 2.98162C53.1461 5.10601 53.2815 6.79119 52.766 8.1734C52.1115 9.92787 50.5472 10.9084 48.8911 11.9454C47.0314 13.1115 45.1081 14.3164 44.3348 16.7485C43.8169 18.3808 43.6532 20.935 43.4955 23.4058C43.2413 27.3833 43.04 30.5259 41.438 30.7008C41.3829 30.7065 41.3275 30.7093 41.2721 30.7091C40.022 30.7091 38.9086 29.1578 38.1223 26.3053C37.0453 22.4029 36.8181 16.7438 38.5731 13.9136C32.9527 15.9299 32.2488 20.7659 31.5661 25.4574C31.5285 25.7157 31.492 25.9729 31.4484 26.2278C31.4343 26.3299 31.4166 26.4521 31.3978 26.5918C31.0824 28.8959 30.6316 31.1201 29.4898 31.7789C29.2949 31.8917 29.0759 31.9569 28.8508 31.9689C28.6257 31.981 28.401 31.9396 28.1951 31.8482C27.2181 31.4536 27.3193 30.52 27.417 29.6169C27.543 28.4426 27.6995 26.9946 26.3753 25.2507C25.3548 23.9073 23.5799 23.0195 22.3616 22.5274C23.0102 23.7957 23.7388 25.9776 23.2597 28.8794C23.2326 29.0403 23.2067 29.2059 23.1808 29.3762C22.9454 30.9028 22.657 32.7947 21.1398 33.504C20.5728 33.7752 19.955 33.9246 19.3264 33.9424C18.6978 33.9602 18.0725 33.846 17.491 33.6073C16.6317 33.2445 15.4712 32.4248 14.8332 30.5787C14.5766 29.8377 14.4542 28.9781 14.3694 28.2018C13.9987 29.0239 13.5796 29.9481 13.1277 30.7643C10.8677 34.8474 14.473 38.118 14.6284 38.2554C14.6779 38.2987 14.7182 38.3514 14.7471 38.4104C14.776 38.4694 14.7929 38.5335 14.7967 38.5991C14.8006 38.6647 14.7913 38.7303 14.7695 38.7923C14.7476 38.8542 14.7137 38.9113 14.6696 38.96C14.6247 39.0121 14.5693 39.0543 14.5071 39.0838C14.4448 39.1134 14.3771 39.1296 14.3082 39.1315Z" fill="white"/>
<path d="M2.54834 60.5715H0.796888V63.1128H2.945V63.8385H0.00238037V56.6926H2.945V57.4172H0.796888V59.8563H2.54598L2.54834 60.5715Z" fill="white"/>
<path d="M6.37964 57.0954C6.64958 57.4085 6.78455 57.8458 6.78455 58.4071V58.6068H6.02653V58.3719C6.02653 57.6916 5.75385 57.3514 5.20848 57.3514C4.66311 57.3514 4.38847 57.6884 4.38455 58.3625C4.37506 58.6728 4.47226 58.9769 4.65998 59.2245C4.90271 59.5164 5.17929 59.7785 5.48391 60.0054C5.77739 60.2512 6.0077 60.4587 6.17484 60.6278C6.3525 60.8134 6.49772 61.0273 6.60447 61.2608C6.7285 61.533 6.78964 61.8296 6.78337 62.1286C6.78337 62.6868 6.64723 63.1241 6.37494 63.4404C6.10265 63.7567 5.7001 63.9132 5.16729 63.9101C4.63526 63.9101 4.23427 63.7535 3.96434 63.4404C3.6944 63.1272 3.55983 62.69 3.56061 62.1286V61.72H4.30804V62.1697C4.2906 62.4378 4.36443 62.7039 4.51755 62.9248C4.59482 63.0157 4.69268 63.0868 4.80301 63.1323C4.91335 63.1779 5.03298 63.1965 5.15198 63.1867C5.2705 63.1952 5.38935 63.1756 5.49881 63.1295C5.60827 63.0834 5.70521 63.012 5.7817 62.9213C5.93483 62.7004 6.00866 62.4343 5.99122 62.1662C6.00014 61.8611 5.90466 61.5621 5.7205 61.3183C5.47653 61.0262 5.20011 60.7626 4.89657 60.5327C4.61643 60.2978 4.39043 60.0994 4.21623 59.9256C4.03291 59.7384 3.88391 59.5206 3.77601 59.282C3.65291 59.0078 3.59183 58.7099 3.5971 58.4095C3.5971 57.845 3.73011 57.4062 3.99612 57.093C4.26213 56.7799 4.65802 56.6233 5.18377 56.6233C5.71187 56.6217 6.11049 56.7791 6.37964 57.0954Z" fill="white"/>
<path d="M8.53364 57.4172H7.21417V56.6926H10.6511V57.4172H9.33168V63.8385H8.53364V57.4172Z" fill="white"/>
<path d="M11.3574 63.8385H10.59V62.8474H11.3574V63.8385Z" fill="white"/>
<path d="M78.6975 57.9115C78.9666 58.231 79.1012 58.6733 79.1012 59.2386C79.1053 59.5773 79.0429 59.9136 78.9176 60.2285C78.8036 60.5128 78.652 60.7806 78.4668 61.0247C78.2902 61.2596 78.0548 61.5336 77.7606 61.8468C77.5071 62.1333 77.3109 62.3647 77.172 62.5408C77.0296 62.7206 76.9109 62.918 76.8189 63.128C76.724 63.3417 76.6754 63.573 76.6765 63.8068V63.9242H79.0306V64.6488H75.8891V64.0369C75.8833 63.6935 75.9424 63.3521 76.0633 63.0305C76.1685 62.753 76.3132 62.492 76.4929 62.2554C76.6639 62.0331 76.8892 61.7728 77.1685 61.4745C77.4204 61.2021 77.624 60.9672 77.777 60.7699C77.9354 60.5639 78.0645 60.337 78.1608 60.0958C78.2645 59.8343 78.3165 59.5551 78.3138 59.2738C78.3138 58.8996 78.2475 58.6189 78.1149 58.4318C77.9822 58.2447 77.7692 58.1511 77.4757 58.1511C77.3558 58.1431 77.2357 58.1645 77.1259 58.2134C77.0161 58.2623 76.92 58.3373 76.846 58.4318C76.6944 58.6592 76.6209 58.9295 76.6365 59.2021V59.8351H75.8891V59.2538C75.8891 58.6886 76.0221 58.2443 76.2881 57.9209C76.5541 57.5976 76.9566 57.4359 77.4957 57.4359C78.0278 57.4336 78.4283 57.5921 78.6975 57.9115Z" fill="white"/>
<path d="M80.1912 57.9116C80.4643 57.5921 80.8719 57.4324 81.4141 57.4324C81.9564 57.4324 82.3656 57.5925 82.6418 57.9127C82.9211 58.2322 83.0608 58.671 83.0608 59.2292V62.9143C83.0608 63.4733 82.9211 63.914 82.6418 64.2366C82.3624 64.5591 81.9532 64.7208 81.4141 64.7216C80.8821 64.7216 80.476 64.5599 80.1959 64.2366C79.9158 63.9132 79.7761 63.4721 79.7769 62.9131V59.228C79.7769 58.6706 79.915 58.2318 80.1912 57.9116ZM80.7797 63.7246C80.8564 63.8166 80.954 63.8891 81.0642 63.9363C81.1745 63.9834 81.2944 64.0039 81.4141 63.9958C81.5346 64.0048 81.6555 63.9849 81.7667 63.9377C81.8779 63.8905 81.9762 63.8174 82.0533 63.7246C82.2059 63.5016 82.2796 63.2342 82.2628 62.9648V59.1869C82.2801 58.9141 82.2065 58.6432 82.0533 58.4165C81.9759 58.3241 81.8776 58.2513 81.7665 58.2043C81.6553 58.1574 81.5345 58.1375 81.4141 58.1464C81.2946 58.1386 81.1748 58.1589 81.0646 58.2058C80.9543 58.2528 80.8568 58.325 80.7797 58.4165C80.6229 58.6417 80.5469 58.9132 80.5643 59.1869V62.9648C80.5475 63.2351 80.6235 63.5031 80.7797 63.7246Z" fill="white"/>
<path d="M86.6367 57.9116C86.9059 58.231 87.0408 58.6733 87.0416 59.2386C87.0459 59.5775 86.9831 59.9139 86.8568 60.2285C86.7428 60.5126 86.5916 60.7803 86.4072 61.0248C86.2291 61.2596 85.9936 61.5336 85.701 61.8468C85.4483 62.1333 85.2521 62.3647 85.1124 62.5408C84.9701 62.7207 84.8514 62.918 84.7593 63.128C84.6644 63.3417 84.6158 63.573 84.6169 63.8068V63.9242H86.971V64.6488H83.8294V64.0369C83.8243 63.6936 83.8834 63.3523 84.0036 63.0305C84.1094 62.7532 84.2541 62.4923 84.4333 62.2555C84.6036 62.0331 84.8288 61.7728 85.1089 61.4745C85.3608 61.2021 85.5644 60.9672 85.7174 60.7699C85.8762 60.5642 86.0053 60.3373 86.1011 60.0958C86.2053 59.8343 86.2577 59.5552 86.2553 59.2738C86.2553 58.8996 86.1886 58.6189 86.0552 58.4318C85.9218 58.2447 85.7088 58.1511 85.4161 58.1511C85.2962 58.1431 85.1761 58.1645 85.0663 58.2134C84.9565 58.2623 84.8604 58.3373 84.7864 58.4318C84.6348 58.6592 84.5613 58.9295 84.5769 59.2022V59.8351H83.8294V59.2538C83.8294 58.6886 83.9625 58.2443 84.2285 57.921C84.4945 57.5976 84.8939 57.4348 85.4267 57.4324C85.9642 57.4324 86.3676 57.5921 86.6367 57.9116Z" fill="white"/>
<path d="M90.5963 57.9115C90.8655 58.231 91.0004 58.6733 91.0012 59.2386C91.0049 59.5774 90.9421 59.9137 90.8164 60.2285C90.7035 60.5123 90.5535 60.7801 90.3703 61.0247C90.1922 61.2596 89.9568 61.5336 89.6641 61.8468C89.4106 62.1333 89.2144 62.3647 89.0756 62.5408C88.9311 62.7203 88.8105 62.9177 88.7166 63.128C88.6216 63.3417 88.5731 63.573 88.5741 63.8068V63.9242H90.9282V64.6488H87.7808V64.0369C87.7756 63.6936 87.8347 63.3523 87.955 63.0305C88.0608 62.7532 88.2054 62.4922 88.3846 62.2554C88.5557 62.0331 88.7809 61.7728 89.0603 61.4745C89.3121 61.2021 89.5158 60.9672 89.6688 60.7699C89.8275 60.5641 89.9567 60.3373 90.0525 60.0958C90.1567 59.8343 90.209 59.5552 90.2067 59.2738C90.2067 58.8996 90.14 58.6189 90.0066 58.4318C89.8732 58.2447 89.6602 58.1511 89.3675 58.1511C89.2475 58.1431 89.1274 58.1645 89.0177 58.2134C88.9079 58.2623 88.8118 58.3373 88.7377 58.4318C88.5861 58.6592 88.5126 58.9295 88.5282 59.2021V59.8351H87.7808V59.2538C87.7808 58.6886 87.9138 58.2443 88.1798 57.9209C88.4458 57.5976 88.8484 57.4359 89.3875 57.4359C89.9242 57.4336 90.3271 57.5921 90.5963 57.9115Z" fill="white"/>
</svg>
