<svg xmlns="http://www.w3.org/2000/svg" width="40" height="40" viewBox="0 0 40 40" fill="none">
<path fill-rule="evenodd" clip-rule="evenodd" d="M23.5134 1.62702C17.3341 0.538895 11.8984 2.08242 7.24823 6.33271L7.24794 6.33298C4.24679 9.07271 2.40256 12.4941 1.62725 16.4943C1.53988 16.9577 1.48486 17.4229 1.42702 17.9118C1.4029 18.1158 1.37829 18.3238 1.35064 18.5377C1.33678 18.6714 1.31307 18.8084 1.29033 18.9263V21.0883C1.33141 21.3748 1.36466 21.6452 1.39716 21.9095C1.44934 22.3337 1.49956 22.7421 1.57706 23.1761L1.57788 23.1807L1.57864 23.1853C2.15198 26.6878 3.73478 29.9524 6.13855 32.5555L6.1417 32.5589L6.14481 32.5624C8.86322 35.5926 12.4906 37.6365 16.491 38.3718L16.4918 38.372C16.9654 38.4597 17.4409 38.5149 17.9398 38.5729C18.1486 38.5971 18.3615 38.6219 18.5801 38.6497C18.7021 38.6635 18.8269 38.687 18.9339 38.7096H21.0956C21.2393 38.6917 21.3817 38.6745 21.5229 38.6575C22.0948 38.5883 22.6475 38.5215 23.188 38.4232L23.1931 38.4223L23.1981 38.4215C26.7381 37.8356 30.0156 36.2278 32.6323 33.7979L32.6333 33.797L32.6343 33.7961C35.947 30.7457 37.9613 26.9857 38.5347 22.5234C39.2719 16.749 37.6793 11.672 33.7794 7.34684C31.0093 4.27718 27.5762 2.34995 23.5134 1.62702ZM6.378 5.37996C11.3277 0.856004 17.1692 -0.800573 23.7379 0.356314L23.739 0.356509C28.0891 1.13048 31.7784 3.20341 34.7374 6.48233L34.7375 6.48251C38.8891 11.0866 40.5997 16.539 39.8145 22.6874L39.8145 22.6879C39.2008 27.4643 37.0347 31.4979 33.5092 34.7445C30.7079 37.3454 27.2005 39.066 23.4138 39.6937C22.8332 39.7991 22.2325 39.8716 21.6575 39.9411C21.5083 39.9591 21.3607 39.9769 21.2157 39.995L21.1758 40H18.7939L18.7247 39.9846C18.6142 39.9601 18.5126 39.9405 18.4322 39.9315L18.427 39.931L18.4219 39.9303C18.2328 39.9062 18.0364 39.8834 17.836 39.8601C17.3198 39.8001 16.7764 39.737 16.2577 39.641C11.9757 38.8539 8.09455 36.6666 5.18745 33.4275C2.61334 30.6386 0.920143 27.1445 0.306001 23.3983C0.225004 22.9438 0.16516 22.4618 0.108436 22.005C0.0746919 21.7333 0.0420515 21.4704 0.00671848 21.2275L0 21.1813V18.7996L0.0125287 18.737C0.0374964 18.6122 0.058089 18.4956 0.0677186 18.3993L0.0686573 18.3899L0.06987 18.3806C0.0938775 18.1954 0.116656 18.0029 0.139928 17.8063C0.19998 17.2988 0.263325 16.7636 0.359576 16.2535L0.359869 16.2519L0.360169 16.2504C1.18503 11.9929 3.16 8.31778 6.37771 5.38023" fill="white"/>
<path fill-rule="evenodd" clip-rule="evenodd" d="M12.9609 10.6272C12.9227 10.646 12.8615 10.6857 12.7782 10.7653L12.7772 10.7662L12.7762 10.7671C12.5386 10.9922 12.317 11.2126 12.0891 11.4392C11.9731 11.5547 11.8554 11.6717 11.7331 11.7918C10.8309 12.7026 10.3919 13.7445 10.3711 14.4926C10.3357 15.8758 10.6826 16.7589 11.0867 17.6892C12.1298 20.0588 13.6411 22.1162 15.5071 23.9615C17.9647 26.3879 20.724 28.2482 24.0542 29.195L24.0578 29.196L24.0614 29.1971C25.1559 29.5219 26.3382 29.4312 27.3579 28.9304L27.363 28.9279L27.3681 28.9255C28.0604 28.6003 28.5926 28.0734 29.2178 27.4547C29.2898 27.3834 29.3632 27.3108 29.4381 27.2372C29.604 27.0694 29.6279 26.9876 29.631 26.972C29.6275 26.9554 29.6018 26.8768 29.4411 26.719L26.0461 23.3843C25.9511 23.2938 25.8816 23.2472 25.8364 23.2243C25.8147 23.2133 25.8007 23.2089 25.7937 23.2071C25.7901 23.2062 25.7879 23.2058 25.7869 23.2057C25.7858 23.2056 25.7853 23.2056 25.7851 23.2056C25.785 23.2056 25.7848 23.2056 25.7844 23.2056C25.7842 23.2056 25.7838 23.2057 25.7833 23.2057C25.7822 23.2059 25.7798 23.2063 25.7762 23.2073C25.7689 23.2092 25.7546 23.214 25.7325 23.2255C25.6866 23.2496 25.6162 23.2982 25.5206 23.3917C24.9099 24.0044 24.2964 24.6197 23.6695 25.2355C23.2154 25.6815 22.6683 25.961 22.0638 26.0045C21.4609 26.048 20.8764 25.8514 20.3549 25.4813C18.1271 23.9089 16.1653 22.0213 14.5236 19.8583L14.523 19.8575C14.1229 19.3285 13.8883 18.7471 13.9288 18.1321C13.9694 17.5148 14.28 16.9708 14.7545 16.5047L16.6684 14.6248C16.7566 14.5382 16.8014 14.4744 16.8231 14.4338C16.8334 14.4144 16.8376 14.4018 16.8393 14.3957C16.8401 14.3925 16.8405 14.3905 16.8406 14.3896C16.8407 14.3887 16.8407 14.3883 16.8407 14.3882C16.8407 14.3881 16.8407 14.3877 16.8406 14.3869C16.8406 14.3864 16.8405 14.3857 16.8402 14.3846C16.8401 14.3837 16.8398 14.3825 16.8394 14.3811C16.8379 14.3751 16.834 14.3629 16.8242 14.3438C16.8038 14.3041 16.7612 14.2415 16.6769 14.1562C15.5335 13.0204 14.3901 11.8974 13.2338 10.7743L13.2324 10.7731L13.2311 10.7718C13.1473 10.6894 13.0855 10.648 13.0466 10.6283C13.028 10.6188 13.0161 10.615 13.0102 10.6135C13.0072 10.6127 13.0054 10.6124 13.0045 10.6123C13.004 10.6122 13.0037 10.6122 13.0035 10.6122C13.0033 10.6122 13.0032 10.6122 13.0032 10.6122C13.0031 10.6122 13.0028 10.6122 13.002 10.6122C13.0012 10.6123 12.9994 10.6126 12.9965 10.6133C12.9909 10.6147 12.9792 10.6182 12.9609 10.6272ZM14.1504 9.86614C13.8547 9.57614 13.4763 9.33665 13.0126 9.33335C12.5486 9.33004 12.1682 9.56447 11.8716 9.84741C11.6234 10.0825 11.3821 10.3224 11.1476 10.5557C11.0333 10.6693 10.9206 10.7814 10.8094 10.8906L10.8064 10.8935L10.8035 10.8965C9.7288 11.9798 9.10105 13.3149 9.06958 14.4586L9.06955 14.4598C9.02696 16.1192 9.46086 17.2052 9.88975 18.1925L9.89036 18.1939L9.89097 18.1953C11.0091 20.7357 12.6223 22.9235 14.5837 24.8631L14.584 24.8635C17.1514 27.3982 20.0938 29.3996 23.6887 30.4224C25.0913 30.8376 26.6135 30.7241 27.9351 30.0767C28.8428 29.6489 29.5387 28.9565 30.1407 28.3576C30.2158 28.2829 30.2894 28.2096 30.3618 28.1385L30.3647 28.1356L30.3676 28.1327C30.6672 27.8309 30.9333 27.4473 30.9333 26.9718C30.9333 26.4935 30.6645 26.112 30.3618 25.8147L26.9606 22.474L26.9575 22.4711C26.6505 22.1772 26.2591 21.9235 25.7761 21.9268C25.2934 21.9301 24.904 22.1889 24.5977 22.4897L24.5953 22.4921L24.5929 22.4945C23.9805 23.1087 23.371 23.7201 22.7488 24.3312C22.4738 24.6014 22.2072 24.7119 21.9686 24.7291C21.7288 24.7464 21.4413 24.6748 21.1168 24.4442L21.116 24.4437L21.1152 24.4431C18.9947 22.9465 17.1289 21.1512 15.5678 19.0944C15.2911 18.7284 15.2133 18.4403 15.2281 18.2146C15.2428 17.991 15.3555 17.723 15.6752 17.409L17.5891 15.5291C17.8883 15.2352 18.1393 14.8596 18.1427 14.3973C18.1461 13.9348 17.9004 13.5574 17.6084 13.2627L17.6066 13.2608L17.6047 13.259C16.4576 12.1195 15.3105 10.9928 14.1504 9.86614Z" fill="white"/>
</svg>