<svg width="28" height="29" viewBox="0 0 28 29" fill="none" xmlns="http://www.w3.org/2000/svg">
<g clip-path="url(#clip0_821_725)">
<path d="M20.5083 17.4139C20.8165 16.9729 20.9803 16.5571 20.7178 16.0414C19.9578 14.5517 18.9053 13.2755 17.7412 12.0788C16.4406 10.7503 15.0325 9.52617 13.5305 8.41833C13.2824 8.23481 13.1472 8.00874 13.2245 7.69753C13.296 7.42331 13.4819 7.22584 13.7572 7.22236C13.9842 7.22738 14.2041 7.30047 14.3871 7.43169C15.8818 8.52008 17.282 9.72689 18.5735 11.0398C19.601 12.083 20.5512 13.1882 21.3256 14.4289C21.45 14.6284 21.5687 14.8308 21.7303 15.098C21.5809 14.1602 21.9541 13.5469 22.7092 13.1213C22.9172 13.004 23.1103 12.8617 23.3148 12.7382C23.8868 12.3935 24.4731 12.3635 25.063 12.6838C25.1917 12.7535 25.2847 12.7633 25.3969 12.6733C25.5092 12.5833 25.6157 12.5219 25.7158 12.4361C26.1377 12.0753 26.197 11.8778 26.0075 11.3636C25.6436 10.3825 25.0251 9.55359 24.3401 8.7693C22.7985 7.00465 20.9924 5.51911 19.1205 4.10893C18.4326 3.59049 17.7269 3.10205 17.0262 2.60873C16.9547 2.5571 16.8217 2.51174 16.7495 2.53896C15.5883 3.00227 14.4722 3.54444 13.5491 4.39222C13.3132 4.61702 13.1093 4.87164 12.9427 5.1493C12.7361 5.47725 12.7361 5.83729 12.9049 6.19594C13.1322 6.68438 13.0014 7.00256 12.4859 7.21677C11.1802 7.76033 9.89248 8.34157 8.75489 9.17889C8.29965 9.52644 7.87707 9.9129 7.49217 10.3337C7.21331 10.6288 7.26622 10.7949 7.59227 11.0461C10.1728 13.034 12.636 15.1476 14.8004 17.5695C15.7571 18.6413 16.6201 19.7758 17.2421 21.0751C17.6776 21.9822 17.6111 22.8062 16.9182 23.5822C16.9897 23.6903 17.0577 23.7985 17.1249 23.9094C17.3498 24.2656 17.4274 24.692 17.3417 25.102C17.256 25.5119 17.0136 25.8747 16.6637 26.1164C16.3462 26.3404 16.0166 26.5498 15.6805 26.7444C15.1693 27.0417 14.6323 27.0703 14.0975 26.8142C14.0421 26.7832 13.9785 26.7691 13.9148 26.7735C13.8511 26.778 13.7903 26.8009 13.74 26.8393C13.06 27.2489 12.3414 27.4534 11.5542 27.1582C11.1345 27.0005 10.8542 26.7291 10.6247 26.3244C10.2737 25.7386 9.86155 25.1898 9.39483 24.6867C7.47144 22.5418 5.35284 20.5853 3.19992 18.6643C2.67296 18.1947 2.13312 17.7391 1.59685 17.2799C0.753134 16.5571 0.626576 15.7309 1.21718 14.7931C1.25937 14.7233 1.30012 14.6598 1.34874 14.5803C1.19072 14.4589 1.03485 14.3444 0.884697 14.223C0.123204 13.6132 0.00880094 12.644 0.60155 11.8751C0.81105 11.605 1.0227 11.335 1.24507 11.0747C1.51924 10.741 1.91621 10.525 2.35128 10.4728C2.78636 10.4207 3.22509 10.5365 3.57388 10.7956C3.95498 11.0677 4.32679 11.3538 4.69359 11.6434C4.80871 11.7348 4.89308 11.7474 5.02179 11.6706C5.30207 11.5018 5.59809 11.3573 5.87981 11.1871C5.91614 11.1629 5.9464 11.131 5.96831 11.0938C5.99023 11.0565 6.00324 11.015 6.00636 10.9721C5.95146 10.5643 6.03483 10.1502 6.24375 9.79292C6.11004 9.68826 5.97776 9.58918 5.85049 9.48521C5.13547 8.90397 5.00677 7.95013 5.55304 7.21468C5.77327 6.91883 6.00493 6.63135 6.24375 6.34945C6.51616 6.02048 6.90848 5.80717 7.33848 5.75423C7.76848 5.70129 8.2028 5.81282 8.5504 6.06546C8.91219 6.31945 9.26112 6.59158 9.60648 6.8665C9.73947 6.97256 9.84315 6.99768 10.0076 6.91255C10.4166 6.70322 10.837 6.51064 11.2582 6.32364C11.4183 6.25386 11.5006 6.18408 11.4813 5.98173C11.4562 5.7089 11.517 5.4298 11.5206 5.15278C11.5188 5.05155 11.4834 4.95361 11.4198 4.87368C11.3297 4.76901 11.2017 4.69575 11.0951 4.60364C10.4123 4.01543 10.2986 3.08461 10.8313 2.3708C11.0558 2.06796 11.2911 1.77141 11.5377 1.48533C11.8122 1.1645 12.2017 0.957877 12.6268 0.907572C13.0519 0.857268 13.4807 0.96707 13.8258 1.2146C14.1068 1.41416 14.3735 1.63326 14.6352 1.85654C14.7539 1.95702 14.8425 1.95911 14.9863 1.89422C15.534 1.64372 16.0903 1.41067 16.6451 1.17552C16.7636 1.12323 16.8944 1.10346 17.0236 1.11834C17.1527 1.13321 17.2753 1.18217 17.378 1.25995C20.0615 3.07414 22.6234 5.0223 24.8413 7.37307C25.6994 8.28436 26.4859 9.25704 27.03 10.3839C27.2746 10.894 27.5241 11.4117 27.4397 12.0055C27.3425 12.6928 26.9178 13.1701 26.3844 13.5776C26.2871 13.6523 26.1856 13.7213 26.0719 13.803C26.2907 14.1309 26.5066 14.4484 26.7154 14.7694C27.2831 15.6339 27.0808 16.5885 26.2077 17.1599C25.941 17.3344 25.6736 17.5088 25.4019 17.6735C24.6068 18.1584 23.6558 17.9868 23.0946 17.2548C22.8493 16.9339 22.6169 16.6038 22.3795 16.278C22.3288 16.2082 22.2709 16.1475 22.1929 16.054C22.2473 17.0078 22.007 17.8172 21.3092 18.4766C21.5036 18.7676 21.6938 19.0495 21.8812 19.3335C22.4532 20.205 22.248 21.1637 21.3621 21.7408C21.0954 21.9145 20.8287 22.0896 20.5555 22.2536C19.7511 22.7358 18.7766 22.546 18.2389 21.7875C17.8537 21.2437 17.4826 20.6909 17.1256 20.1289C16.6251 19.3474 16.8396 18.3943 17.6089 17.8689C17.8285 17.7195 18.0623 17.5898 18.2782 17.4376C19.0032 16.9241 19.7354 16.885 20.5083 17.4139ZM16.1096 22.368L16.2111 22.3311C16.1553 22.1106 16.1274 21.8789 16.0395 21.6724C15.5804 20.6006 14.8804 19.6768 14.1204 18.7976C12.0068 16.3505 9.55357 14.253 7.00882 12.2498C6.88012 12.1479 6.79431 12.18 6.68134 12.2456C5.83405 12.7591 4.9703 13.249 4.14303 13.7904C3.53741 14.1868 2.96182 14.6277 2.5371 15.2313C2.06376 15.9026 2.06877 15.95 2.6894 16.4873C5.22843 18.6859 7.7124 20.9313 9.99187 23.3861C10.6626 24.1076 11.3275 24.8388 11.7994 25.7069C11.921 25.9308 12.0854 26.0208 12.3128 25.9825C12.5595 25.9399 12.7962 25.8429 13.0707 25.7627C12.7847 25.3349 12.5288 24.97 12.2921 24.5932C12.0563 24.233 11.9738 23.7973 12.0621 23.3786C12.1503 22.96 12.4024 22.5914 12.7647 22.3513C13.0786 22.1357 13.3982 21.9285 13.7271 21.7373C14.0868 21.5261 14.5142 21.4534 14.926 21.5332C15.3377 21.6131 15.7041 21.8398 15.9537 22.1692C16.0037 22.2369 16.0566 22.3032 16.1096 22.3701V22.368ZM25.7222 15.7644C25.7029 15.691 25.6766 15.6195 25.6436 15.5509C25.2804 15.0045 24.9193 14.4582 24.546 13.9188C24.4152 13.7304 24.2207 13.7172 24.0284 13.8337C23.7495 14.003 23.4745 14.1788 23.2032 14.3612C23.0023 14.4966 22.9651 14.6836 23.0967 14.8831C23.4428 15.4078 23.7917 15.9298 24.1492 16.4496C24.2965 16.6638 24.4753 16.6952 24.7026 16.5585C24.9743 16.3938 25.246 16.2263 25.5027 16.0414C25.6007 15.973 25.6586 15.8495 25.7222 15.7665V15.7644ZM16.0609 24.7963C16.0328 24.7103 15.9969 24.627 15.9537 24.5472C15.6112 24.0301 15.268 23.5131 14.9169 23.0016C14.7689 22.786 14.5866 22.7455 14.3671 22.8774C14.0877 23.0458 13.8129 23.2216 13.5426 23.4049C13.3424 23.5403 13.3053 23.7252 13.4375 23.9262C13.7846 24.4509 14.1347 24.9735 14.4879 25.494C14.6209 25.6894 14.8097 25.7417 15.0192 25.6154C15.3052 25.4431 15.5912 25.2666 15.8629 25.0691C15.9537 25.0063 16.0009 24.8842 16.0609 24.7963ZM19.4608 18.3071C19.3714 18.3338 19.2844 18.3676 19.2006 18.4082C18.9217 18.5799 18.6436 18.7522 18.3733 18.9364C18.1667 19.076 18.1359 19.2609 18.2803 19.4814C18.6174 19.9931 18.9589 20.5025 19.305 21.0095C19.4558 21.2293 19.6496 21.267 19.8813 21.1267C20.1458 20.9662 20.4066 20.7992 20.6635 20.6257C20.8923 20.4708 20.9288 20.2992 20.775 20.0675C20.4383 19.5554 20.0986 19.0446 19.7476 18.5422C19.6782 18.4417 19.5531 18.381 19.4608 18.3078V18.3071ZM3.64895 12.4975C3.3558 12.2749 3.08481 12.0628 2.80666 11.8597C2.61289 11.7202 2.41912 11.7299 2.26325 11.9155C2.04875 12.1709 1.83853 12.4312 1.63904 12.6984C1.60833 12.7335 1.58537 12.7744 1.57159 12.8185C1.55781 12.8627 1.5535 12.9091 1.55893 12.955C1.56437 13.0008 1.57943 13.045 1.60318 13.0849C1.62693 13.1248 1.65885 13.1595 1.69696 13.1869C1.86999 13.3327 2.05447 13.466 2.22893 13.5943L3.64895 12.4975ZM8.53038 7.69614C8.27297 7.50076 8.02986 7.31167 7.78175 7.13025C7.59513 6.9907 7.4128 7.01861 7.26194 7.18886C7.12894 7.34028 7.00739 7.50076 6.88226 7.66125C6.40963 8.25505 6.41893 8.31296 7.05386 8.74837C7.06334 8.75383 7.07441 8.75604 7.08533 8.75465L8.53038 7.69614ZM13.5569 2.67223C13.3911 2.54035 13.2352 2.41196 13.0743 2.28916C12.8784 2.14053 12.6903 2.16565 12.5366 2.34707C12.3221 2.60106 12.114 2.86063 11.9153 3.12578C11.7801 3.3065 11.8102 3.48582 11.9803 3.63515C12.0633 3.70492 12.1555 3.76912 12.2184 3.81656L13.5569 2.67223Z" fill="black"/>
<path d="M13.4467 9.28345C13.5897 9.34625 13.752 9.38462 13.8714 9.47603C15.536 10.7543 17.1169 12.1206 18.3989 13.7785C18.7607 14.246 19.0525 14.7714 19.3342 15.2912C19.5444 15.6785 19.395 16.0587 19.0374 16.2157C18.6799 16.3727 18.3103 16.2206 18.1258 15.8222C17.6439 14.7804 16.8974 13.9236 16.0708 13.1435C15.1177 12.2441 14.1045 11.4047 13.1107 10.5464C12.8032 10.2813 12.6988 10.0524 12.8025 9.75514C12.8512 9.62386 12.9381 9.50931 13.0525 9.42552C13.167 9.34174 13.304 9.29236 13.4467 9.28345Z" fill="black"/>
<path d="M24.7598 11.0432C24.7641 11.3977 24.5725 11.6551 24.2936 11.7326C24.0147 11.81 23.6794 11.7193 23.5486 11.4619C22.3995 9.20319 20.4497 7.66113 18.5277 6.09395C18.0923 5.74018 17.9814 5.38432 18.2417 5.05288C18.502 4.72144 18.8945 4.71307 19.3407 5.06056C20.9588 6.32142 22.5025 7.66113 23.753 9.28902C24.1034 9.74466 24.3708 10.261 24.6661 10.7543C24.7108 10.8459 24.7424 10.9432 24.7598 11.0432Z" fill="black"/>
<path d="M8.501 14.3004C8.644 14.3618 8.80774 14.3974 8.93001 14.4881C10.6039 15.7685 12.1912 17.1396 13.4775 18.8066C13.835 19.2685 14.121 19.7835 14.4006 20.297C14.6151 20.6954 14.4635 21.0855 14.0924 21.239C13.7213 21.3925 13.3774 21.2271 13.1894 20.8252C12.6889 19.7541 11.9081 18.8778 11.0543 18.0753C10.1184 17.1954 9.12378 16.3763 8.14706 15.5369C7.82888 15.2633 7.74094 14.9465 7.93256 14.6423C8.0584 14.4428 8.24288 14.3381 8.501 14.3004Z" fill="black"/>
</g>
<defs>
<clipPath id="clip0_821_725">
<rect width="27.2321" height="27.2321" fill="white" transform="translate(0.223267 0.892822)"/>
</clipPath>
</defs>
</svg>
