<svg width="30" height="29" viewBox="0 0 30 29" fill="none" xmlns="http://www.w3.org/2000/svg">
<g clip-path="url(#clip0_821_1213)">
<path d="M29.9268 24.9482C29.7635 25.1346 29.6094 25.3294 29.4353 25.5058C28.665 26.2854 27.887 27.0564 27.1191 27.8383C27.0309 27.9331 26.9234 28.0077 26.8037 28.0571C26.684 28.1064 26.5551 28.1292 26.4258 28.1241C18.919 28.1194 11.4125 28.1194 3.90629 28.1241C3.77288 28.1279 3.64019 28.103 3.51725 28.051C3.39431 27.9991 3.28399 27.9213 3.19377 27.8229C2.37572 26.9871 1.54458 26.1583 0.714203 25.331C0.500832 25.1192 0.313651 24.9042 0.442289 24.5753C0.570928 24.2464 0.855166 24.1794 1.17407 24.1979C1.24031 24.2017 1.30733 24.1979 1.3728 24.1979C1.37819 24.1678 1.39052 24.1424 1.38282 24.1347C0.569388 23.2227 0.331367 22.1435 0.408397 20.9511C0.568617 18.4554 1.31272 16.163 2.79014 14.1417C4.99087 11.1268 7.94185 9.3428 11.6547 8.84904C13.1244 8.65416 14.5879 8.75122 16.05 8.94379C16.2165 8.96582 16.3858 8.93653 16.5352 8.85983C17.4842 8.32062 18.5303 8.06335 19.5794 7.83149C20.2596 7.67743 20.8381 7.39781 21.3057 6.87324C21.7863 6.33404 22.3887 6.06213 23.1266 6.12375C23.1701 6.11824 23.2117 6.10314 23.2486 6.07957C23.2855 6.05599 23.3167 6.02451 23.34 5.98741C23.6366 5.49365 23.9347 4.99912 24.1981 4.48765C24.2296 4.41271 24.2448 4.33196 24.2428 4.2507C24.2408 4.16945 24.2217 4.08953 24.1865 4.01623C23.5973 2.97788 23.8615 1.78238 24.8297 1.1908C25.798 0.599214 26.9997 0.915804 27.6282 1.92335C27.6504 1.96149 27.6801 1.99477 27.7154 2.02124C27.7508 2.0477 27.791 2.0668 27.8339 2.0774C29.0271 2.18602 29.5416 2.5935 29.9021 3.73122C29.9088 3.74913 29.917 3.76641 29.9268 3.78283V4.41755C29.913 4.4307 29.9016 4.44606 29.8929 4.463C29.5624 5.57992 28.9315 6.05365 27.7607 6.09756C27.6885 6.1051 27.6187 6.12771 27.5558 6.16394C27.4929 6.20016 27.4383 6.24919 27.3956 6.30785C27.0875 6.80238 26.8001 7.31462 26.5144 7.82533C26.4948 7.85938 26.483 7.89738 26.4799 7.93656C26.4769 7.97573 26.4826 8.0151 26.4967 8.05179C26.9796 8.73735 26.9588 9.46913 26.7177 10.2263C26.5605 10.7245 26.5678 11.2601 26.7385 11.7538C26.9311 12.3662 27.1915 12.9863 27.2261 13.6125C27.2824 14.6193 27.8031 15.301 28.4586 15.9712C29.148 16.6798 29.5732 17.5487 29.795 18.5131C29.8459 18.735 29.8875 18.9591 29.9337 19.1825V20.2786C29.9137 20.3321 29.8977 20.3869 29.8859 20.4427C29.6957 21.9063 29.0186 23.1079 27.9001 24.0631C27.8591 24.1055 27.8213 24.1508 27.7869 24.1987C28.2683 24.1987 28.7112 24.2164 29.1511 24.1925C29.507 24.174 29.7673 24.2896 29.9337 24.6023L29.9268 24.9482ZM27.3478 16.458C26.5937 21.2461 21.7771 23.8998 17.552 22.3892C15.5539 21.6744 14.0664 20.3518 13.2538 18.3837C11.9543 15.2348 12.6607 12.444 14.9638 9.98137C13.603 9.82621 12.2265 9.87815 10.8813 10.1354C5.62327 11.173 1.64472 15.9511 1.55767 21.3347C1.52917 23.0879 2.61605 24.1979 4.36154 24.1987H12.3479C12.4437 24.1948 12.5397 24.1971 12.6352 24.2056C12.7754 24.2216 12.9048 24.2889 12.9985 24.3943C13.0922 24.4998 13.1437 24.6362 13.1431 24.7773C13.1426 24.9184 13.09 25.0543 12.9954 25.1591C12.9008 25.2638 12.7709 25.3299 12.6306 25.3449C12.5253 25.3537 12.4196 25.356 12.314 25.3518H2.44197L2.41116 25.4219C2.85947 25.8648 3.32164 26.3008 3.7584 26.7529C3.82453 26.826 3.90599 26.8834 3.99695 26.9213C4.08791 26.9591 4.18611 26.9763 4.28451 26.9717C9.30168 26.9655 14.3186 26.964 19.3352 26.9671C21.5835 26.9671 23.8322 26.9671 26.0815 26.9671C26.1908 26.9671 26.3364 26.9671 26.4042 26.9032C26.9188 26.4194 27.4179 25.9195 27.9217 25.425L27.884 25.3541H18.0065C17.9009 25.3585 17.7952 25.3559 17.6899 25.3464C17.5497 25.3302 17.4205 25.2628 17.3269 25.1572C17.2333 25.0515 17.182 24.9151 17.1828 24.774C17.1835 24.6329 17.2363 24.497 17.331 24.3924C17.4257 24.2878 17.5557 24.2219 17.6961 24.2071C17.7919 24.1993 17.8881 24.1972 17.9842 24.201C20.0639 24.201 22.136 24.2064 24.212 24.1956C24.5864 24.2016 24.9601 24.1623 25.325 24.0785C27.0436 23.6402 28.179 22.5579 28.6257 20.8433C29.0617 19.1679 28.5633 17.7197 27.3478 16.458ZM19.9761 21.6613C20.8627 21.6657 21.7398 21.4794 22.5481 21.1152C25.4052 19.8249 26.8733 16.6251 26.0383 13.5162C25.939 13.1457 25.8504 12.7698 25.7194 12.4109C25.3836 11.5123 25.3686 10.5253 25.6771 9.61703C25.8388 9.11711 25.6917 8.73735 25.2842 8.4924C24.651 8.11187 24.0112 7.74188 23.3646 7.38241C22.9911 7.17443 22.5944 7.2399 22.2755 7.53647C22.1268 7.67358 21.9835 7.81531 21.8418 7.95936C21.4156 8.39414 20.8746 8.69893 20.2819 8.83826C19.7882 8.9592 19.2967 9.09015 18.803 9.20954C15.5855 9.98677 13.4433 12.9986 13.823 16.1992C14.1828 19.2441 16.8649 21.6613 19.9761 21.6613ZM25.4937 7.27226C25.7726 6.79005 26.0522 6.33327 26.3049 5.86339C26.6461 5.22713 27.1445 4.88897 27.8855 4.93288C28.2583 4.95522 28.531 4.77189 28.6928 4.43912C28.7652 4.28579 28.7888 4.11396 28.7606 3.94676C28.7324 3.77957 28.6536 3.62504 28.5348 3.50399C28.2745 3.2313 27.9594 3.17815 27.6105 3.29216C27.0952 3.45931 26.8186 3.3091 26.7139 2.78299C26.6368 2.3886 26.4058 2.14365 26.0206 2.06893C25.8641 2.03358 25.7006 2.04654 25.5517 2.10609C25.4027 2.16564 25.2754 2.26899 25.1864 2.40247C24.9553 2.72445 24.9592 3.06646 25.1741 3.39769C25.5423 3.96616 25.523 4.53233 25.1856 5.10542C24.8991 5.59225 24.6195 6.08369 24.3229 6.59748L25.4937 7.27226Z" fill="black"/>
<path d="M9.81056 13.3593C9.81056 13.6628 9.61798 13.8145 9.37072 13.9393C8.29231 14.4847 7.34947 15.2103 6.61769 16.1685C6.17863 16.7447 5.83046 17.3902 5.45301 18.0126C5.30897 18.2491 5.12487 18.3978 4.84602 18.3577C4.71915 18.3486 4.59977 18.2942 4.50969 18.2044C4.4196 18.1146 4.36482 17.9954 4.35535 17.8686C4.34673 17.7356 4.3733 17.6028 4.43237 17.4834C5.4014 15.4293 6.89988 13.8923 8.9278 12.8725C9.37072 12.6475 9.81364 12.8994 9.81056 13.3593Z" fill="black"/>
<path d="M15.1565 24.2011C15.2708 24.1996 15.383 24.2322 15.4787 24.2948C15.5744 24.3574 15.6492 24.4471 15.6936 24.5524C15.738 24.6578 15.75 24.774 15.728 24.8862C15.706 24.9984 15.6511 25.1015 15.5702 25.1823C15.4893 25.2631 15.3861 25.3179 15.2739 25.3397C15.1616 25.3616 15.0454 25.3494 14.9401 25.3049C14.8349 25.2603 14.7452 25.1854 14.6828 25.0896C14.6203 24.9938 14.5879 24.8816 14.5895 24.7673C14.5934 24.6182 14.6545 24.4763 14.76 24.371C14.8655 24.2656 15.0074 24.2048 15.1565 24.2011Z" fill="black"/>
</g>
<defs>
<clipPath id="clip0_821_1213">
<rect width="29.5322" height="27.2321" fill="white" transform="translate(0.394531 0.892822)"/>
</clipPath>
</defs>
</svg>
