<svg width="25" height="28" viewBox="0 0 25 28" fill="none" xmlns="http://www.w3.org/2000/svg">
<g clip-path="url(#clip0_821_1234)">
<path d="M11.6531 27.7857C11.1635 27.7147 10.6654 27.6834 10.1872 27.569C9.506 27.4165 8.83583 27.2185 8.18115 26.9764C7.09678 26.555 6.54678 25.7179 6.51978 24.5539C6.5259 24.4728 6.50801 24.3917 6.46833 24.3207C6.42865 24.2497 6.36894 24.1919 6.29665 24.1546C2.8865 22.042 0.876229 19.0149 0.371707 15.0185C0.26796 14.2006 0.188373 13.3756 0.454136 12.5683C0.815829 11.4683 1.56622 10.6682 2.4772 10.0045C3.81099 9.02602 5.31958 8.41846 6.90918 8.01484C10.3861 7.13299 13.8837 7.0996 17.3905 7.84217C17.4602 7.85484 17.5291 7.87217 17.5965 7.89404C17.8097 7.97008 17.9064 8.1257 17.8715 8.34811C17.8635 8.3989 17.8451 8.4475 17.8175 8.49091C17.7899 8.53431 17.7537 8.57162 17.7112 8.60051C17.6687 8.6294 17.6206 8.64928 17.5701 8.65891C17.5196 8.66854 17.4677 8.66773 17.4175 8.65651C16.9634 8.57977 16.515 8.47033 16.0602 8.40283C12.3886 7.86135 8.77947 8.04753 5.28192 9.38842C4.15847 9.81904 3.11318 10.3953 2.23915 11.2431C0.700712 12.7353 0.700712 14.5424 2.25123 16.0353C3.0542 16.8106 4.01209 17.3379 5.02611 17.7756C5.09717 17.8076 5.17462 17.8338 5.24568 17.8701C5.47804 17.988 5.56758 18.2098 5.46952 18.418C5.44722 18.4667 5.41498 18.5102 5.37487 18.5457C5.33477 18.5812 5.28768 18.608 5.23663 18.6243C5.18558 18.6405 5.13169 18.6459 5.07843 18.6401C5.02516 18.6343 4.9737 18.6175 4.92733 18.5906C4.20892 18.2296 3.47914 17.8843 2.79555 17.4672C2.31092 17.1723 1.89167 16.7701 1.46105 16.4304C2.37843 20.6791 6.62139 25.1153 12.6174 25.0471C18.8486 24.976 22.7668 20.2449 23.5336 16.4922C22.9452 16.9136 22.3291 17.4245 21.6498 17.8282C19.9834 18.8173 18.1437 19.3297 16.245 19.6452C14.6161 19.9076 12.9639 19.996 11.3163 19.9088C9.81898 19.845 8.33276 19.6216 6.88289 19.2422C6.59865 19.1662 6.45653 18.9815 6.50699 18.7576C6.56099 18.5132 6.77346 18.3981 7.06765 18.4734C9.20222 19.0142 11.4062 19.2298 13.6051 19.1129C16.105 18.9935 18.5288 18.5345 20.7864 17.4011C21.6952 16.9449 22.5345 16.3828 23.1761 15.5749C24.2051 14.278 24.1816 12.8682 23.1051 11.6062C22.2936 10.6519 21.2412 10.0393 20.112 9.54546C19.8044 9.41116 19.486 9.2996 19.1755 9.17169C18.9381 9.07363 18.8358 8.87537 18.904 8.66717C18.9751 8.44617 19.1947 8.33816 19.4434 8.4277C20.8731 8.93862 22.2147 9.6016 23.3225 10.6703C24.3493 11.6652 24.8261 12.8497 24.7096 14.3057C24.365 18.6297 22.3454 21.9091 18.6695 24.183C18.6122 24.2132 18.565 24.2595 18.5337 24.3162C18.5024 24.3729 18.4883 24.4375 18.4933 24.5021C18.4767 25.6997 17.9151 26.5315 16.8085 26.9977C15.803 27.4198 14.7478 27.6415 13.6684 27.736C13.5639 27.7452 13.4616 27.7694 13.3578 27.7864L11.6531 27.7857ZM7.34194 24.7302C7.3392 24.7775 7.3392 24.825 7.34194 24.8723C7.34945 24.9248 7.36013 24.9767 7.37391 25.0279C7.55938 25.7449 8.07456 26.1187 8.73541 26.3553C10.7578 27.0801 12.8228 27.1654 14.9112 26.7397C15.5061 26.6067 16.0882 26.4217 16.6507 26.1869C17.2682 25.9432 17.6818 25.3015 17.6456 24.7387C14.2241 26.226 10.7983 26.2288 7.34194 24.7295V24.7302Z" fill="black"/>
<path d="M2.99316 14.386C3.8274 13.0942 5.06952 12.3729 6.43102 11.84C8.74614 10.9332 11.1607 10.654 13.6315 10.7996C15.457 10.9069 17.2321 11.2494 18.9169 11.9814C20.0261 12.4624 21.0444 13.0743 21.7884 14.0613C21.863 14.16 21.9305 14.2652 22.0016 14.3668C22.2823 14.1288 22.386 13.6797 22.2503 13.2832C22.1046 12.8568 21.8133 12.537 21.4843 12.2478C20.6628 11.5287 19.6978 11.0704 18.6788 10.7151C16.503 9.95261 14.2525 9.68898 11.958 9.74725C9.69052 9.80552 7.48128 10.1736 5.38929 11.0867C5.12921 11.1997 4.89755 11.1166 4.80802 10.897C4.71848 10.6774 4.81797 10.4706 5.09226 10.3484C6.30158 9.81804 7.57438 9.44616 8.87902 9.24202C11.872 8.7446 14.848 8.83129 17.7878 9.60371C19.1834 9.96967 20.5221 10.4848 21.6733 11.3802C22.0431 11.6677 22.3739 12.0021 22.6575 12.375C23.2735 13.1929 23.2593 14.0478 22.6695 14.8849C22.1238 15.6594 21.362 16.1753 20.542 16.6088C19.1343 17.3535 17.6208 17.782 16.0582 18.0356C13.1092 18.5139 10.178 18.4265 7.28018 17.6739C5.85899 17.3044 4.50104 16.7743 3.31648 15.8747C2.84678 15.5194 2.43392 15.1066 2.15324 14.5793C1.8157 13.9454 1.8157 13.3066 2.15324 12.6735C2.43747 12.1476 2.85104 11.7383 3.32287 11.3838C3.3619 11.3505 3.40721 11.3253 3.45611 11.3098C3.50502 11.2943 3.55654 11.2888 3.60762 11.2936C3.6587 11.2984 3.7083 11.3133 3.75349 11.3376C3.79869 11.3619 3.83856 11.395 3.87074 11.4349C4.01286 11.6026 3.98444 11.8286 3.8139 12.0034C3.50337 12.331 3.15873 12.6337 2.90362 12.9975C2.57675 13.4601 2.63715 13.9376 2.99316 14.386ZM3.56874 15.0696C3.60427 15.0931 3.63554 15.1115 3.66396 15.1329C3.76273 15.2075 3.85795 15.2871 3.95957 15.3574C5.60957 16.5022 7.49123 17.0046 9.43897 17.3037C11.3434 17.5919 13.2789 17.6103 15.1884 17.3584C16.7943 17.1524 18.3562 16.7779 19.8257 16.0794C20.4215 15.8078 20.975 15.4519 21.4693 15.0227C21.2789 14.7569 21.1183 14.4784 20.9066 14.2482C20.1448 13.4189 19.1748 12.903 18.1352 12.5264C14.9894 11.3894 11.7797 11.2843 8.53509 12.0183C7.13451 12.3352 5.80569 12.8398 4.65595 13.733C4.2033 14.0819 3.80253 14.4812 3.56874 15.0696Z" fill="black"/>
<path d="M13.1639 1.03891C13.0658 1.29046 12.9976 1.56048 12.8612 1.7893C12.6565 2.13109 12.6395 2.43949 12.8555 2.77986C13.2179 3.34834 13.2108 3.93458 12.8498 4.50448C12.6366 4.8342 12.6643 5.13407 12.8498 5.47302C12.9774 5.7225 13.0635 5.99105 13.1049 6.26818C13.1154 6.32094 13.1146 6.37534 13.1024 6.42774C13.0902 6.48013 13.0669 6.52932 13.0341 6.57198C13.0013 6.61465 12.9598 6.64982 12.9123 6.67512C12.8649 6.70042 12.8125 6.71528 12.7588 6.71869C12.54 6.74214 12.3836 6.59363 12.3211 6.34847C12.2751 6.15304 12.2052 5.96401 12.1129 5.78568C11.8173 5.24137 11.7938 4.69847 12.1257 4.17405C12.3645 3.79744 12.3552 3.46346 12.1207 3.08968C11.7931 2.56455 11.8159 2.02379 12.1207 1.47948C12.2108 1.30963 12.2777 1.12847 12.3197 0.940844C12.3815 0.688583 12.5265 0.540069 12.746 0.554281C12.9756 0.569914 13.1198 0.751115 13.1639 1.03891Z" fill="black"/>
<path d="M16.1412 3.64108C16.0282 3.93598 15.955 4.23017 15.8094 4.48243C15.6097 4.82778 15.6118 5.12623 15.8058 5.47726C15.9364 5.73399 16.0224 6.01103 16.0602 6.29658C16.0683 6.34984 16.0646 6.40423 16.0495 6.45594C16.0344 6.50766 16.0083 6.55547 15.9728 6.59604C15.9374 6.63662 15.8936 6.66899 15.8443 6.6909C15.7951 6.71282 15.7417 6.72375 15.6879 6.72293C15.4747 6.73075 15.3269 6.58082 15.2715 6.35414C15.2289 6.1587 15.1608 5.96971 15.0689 5.79206C14.7705 5.24348 14.7463 4.702 15.0782 4.17758C15.3169 3.80168 15.3162 3.47409 15.0846 3.09392C14.9524 2.87719 14.8927 2.6029 14.855 2.34638C14.8454 2.29127 14.8478 2.23471 14.8621 2.18062C14.8764 2.12653 14.9023 2.07619 14.938 2.03308C14.9737 1.98997 15.0183 1.95513 15.0687 1.93094C15.1192 1.90676 15.1743 1.89382 15.2302 1.89302C15.4434 1.88449 15.5962 2.04793 15.6474 2.29166C15.6963 2.4675 15.7575 2.63965 15.8307 2.80684C15.9302 3.07687 16.0311 3.34476 16.1412 3.64108Z" fill="black"/>
<path d="M8.82141 4.9869C8.92089 4.70266 8.97135 4.41843 9.11489 4.18677C9.35862 3.79879 9.34583 3.46623 9.11489 3.07753C8.9813 2.85441 8.93155 2.56733 8.89673 2.30156C8.86689 2.0763 9.05022 1.9086 9.26198 1.8951C9.47374 1.8816 9.62794 2.03722 9.68478 2.25964C9.73255 2.46275 9.8041 2.65953 9.89796 2.84588C10.1858 3.38238 10.2085 3.91959 9.88162 4.43264C9.63575 4.8192 9.64783 5.15105 9.88162 5.53975C10.0159 5.76287 10.0671 6.05066 10.1012 6.31571C10.1303 6.53955 9.94344 6.70867 9.73311 6.72004C9.52277 6.73141 9.36644 6.57792 9.31243 6.35764C9.25682 6.16475 9.19087 5.97498 9.11489 5.78916C9.01825 5.52767 8.92374 5.26972 8.82141 4.9869Z" fill="black"/>
<path d="M11.7263 13.3137C11.8109 13.2078 11.8684 13.1283 11.9324 13.0572C12.0859 12.8909 12.2692 12.8582 12.4568 12.9861C12.6444 13.114 12.6963 13.323 12.5726 13.4985C12.4227 13.7117 12.2124 13.8815 12.0326 14.0741C11.97 14.1409 11.8905 14.2119 11.8691 14.2936C11.7142 14.9268 11.295 15.3169 10.7201 15.5628C9.96119 15.8882 9.15679 15.9642 8.34885 15.8911C7.82226 15.8343 7.30096 15.7362 6.7898 15.5976C6.54377 15.5254 6.31471 15.4045 6.11616 15.2423C5.44535 14.7207 5.53631 13.8246 6.28954 13.4303C6.44701 13.3479 6.61409 13.2853 6.78696 13.2441C7.69865 13.0252 8.60963 12.7985 9.52772 12.6138C9.85945 12.5558 10.1982 12.5495 10.5318 12.5953C10.7716 12.6193 11.0032 12.6962 11.2097 12.8204C11.4163 12.9446 11.5927 13.1131 11.7263 13.3137ZM8.95498 15.1293C9.21435 15.0838 9.72029 15.0362 10.1999 14.8962C10.4842 14.8036 10.7386 14.6368 10.9368 14.413C11.2594 14.0506 11.1152 13.5788 10.6469 13.453C10.3328 13.3624 10.0026 13.3423 9.67979 13.394C8.75175 13.5745 7.83224 13.8069 6.91415 14.0336C6.72158 14.0812 6.45511 14.1501 6.4878 14.3889C6.5084 14.531 6.71306 14.6901 6.87152 14.769C7.45136 15.0547 8.08237 15.0895 8.95712 15.1293H8.95498Z" fill="black"/>
<path d="M13.4205 14.7967C13.8039 14.7814 14.1807 14.9 14.4863 15.1321C15.0136 15.5428 15.0165 16.2115 14.4991 16.6343C13.9214 17.1062 12.8939 17.1026 12.3183 16.6272C11.8117 16.208 11.8138 15.5556 12.3268 15.1428C12.6502 14.887 13.0218 14.7925 13.4205 14.7967ZM13.4055 16.2115C13.5611 16.1814 13.7141 16.1393 13.8632 16.0857C13.9491 16.0488 14.0053 15.9507 14.0763 15.8804C14.0088 15.8157 13.952 15.7276 13.8717 15.6914C13.7281 15.6227 13.571 15.5871 13.4119 15.5871C13.2528 15.5871 13.0957 15.6227 12.9522 15.6914C12.8733 15.7276 12.8186 15.8178 12.7525 15.8832C12.8236 15.9543 12.8825 16.0502 12.9657 16.0886C13.1095 16.1422 13.2576 16.1833 13.4084 16.2115H13.4055Z" fill="black"/>
<path d="M15.1969 14.6745C14.6668 14.6653 14.2767 14.5701 13.9548 14.2844C13.4929 13.8751 13.5028 13.2484 13.9739 12.8504C14.5517 12.363 15.587 12.353 16.1768 12.8341C16.6849 13.247 16.6849 13.9043 16.1768 14.32C15.8962 14.5394 15.5529 14.6637 15.1969 14.6745ZM15.0867 13.9128C15.2739 13.8587 15.4578 13.7937 15.6374 13.7181C15.7831 13.647 15.7796 13.5362 15.6453 13.4338C15.3816 13.2327 14.7734 13.2342 14.5154 13.4338C14.3768 13.5433 14.3925 13.6534 14.5339 13.7181C14.7145 13.7929 14.8991 13.8579 15.0867 13.9128Z" fill="black"/>
<path d="M18.4656 13.502C18.9118 13.5133 19.3268 13.6164 19.6544 13.9439C20.0381 14.3277 20.0381 14.8592 19.6594 15.2486C19.0809 15.8427 17.8672 15.8448 17.2831 15.2536C16.8973 14.8635 16.9001 14.312 17.2966 13.929C17.6214 13.6156 18.0271 13.5126 18.4656 13.502ZM18.4712 14.263C18.2881 14.3128 18.108 14.3733 17.9319 14.4442C17.7763 14.5153 17.7606 14.6332 17.912 14.7469C18.1778 14.9459 18.7931 14.9388 19.0419 14.7348C19.1605 14.6375 19.169 14.5288 19.0355 14.4648C18.8514 14.3869 18.663 14.3195 18.4712 14.263Z" fill="black"/>
</g>
<defs>
<clipPath id="clip0_821_1234">
<rect width="24.4516" height="27.2321" fill="white" transform="translate(0.274292 0.553589)"/>
</clipPath>
</defs>
</svg>
