<svg width="35" height="35" viewBox="0 0 35 35" fill="none" xmlns="http://www.w3.org/2000/svg">
<path d="M17.8024 0C8.53658 0 0.993622 7.83716 0.990257 17.4727C0.988574 20.5527 1.76434 23.5595 3.23516 26.209L0.954102 35L9.75952 32.8364C12.2148 34.2294 14.9788 34.9607 17.7925 34.9624H17.7991C27.0632 34.9624 34.6029 27.1235 34.6079 17.4897C34.6113 12.819 32.8647 8.42754 29.6908 5.12354C26.517 1.82129 22.299 0.00175 17.8024 0ZM17.7991 3.5C21.3937 3.50175 24.7718 4.95914 27.3112 7.59814C29.8506 10.2406 31.2456 13.7518 31.2422 17.4863C31.2389 25.1933 25.2105 31.4624 17.7958 31.4624C15.5526 31.4607 13.3305 30.8749 11.3733 29.7637L10.2394 29.1211L8.98711 29.4287L5.67399 30.2422L6.48255 27.1182L6.84739 25.7168L6.15058 24.459C4.97594 22.345 4.35429 19.9279 4.35597 17.4727C4.35934 9.76916 10.3895 3.5 17.7991 3.5ZM11.8532 9.40625C11.5722 9.40625 11.1178 9.51562 10.7324 9.95312C10.347 10.3889 9.25992 11.4443 9.25992 13.5933C9.25992 15.7423 10.7653 17.8196 10.9756 18.1118C11.1843 18.4023 13.8814 22.9517 18.1508 24.7017C21.6982 26.1559 22.4188 25.8689 23.1895 25.7954C23.9602 25.7237 25.676 24.741 26.026 23.7207C26.3761 22.7005 26.3769 21.8228 26.2725 21.6426C26.1682 21.4606 25.888 21.3521 25.4673 21.1333C25.0482 20.9146 22.9832 19.8601 22.5979 19.7148C22.2125 19.5696 21.9306 19.4961 21.6513 19.9336C21.3719 20.3711 20.5691 21.3521 20.3234 21.6426C20.0777 21.9348 19.8336 21.9741 19.4129 21.7554C18.9922 21.5349 17.6395 21.0725 16.0341 19.585C14.7854 18.4282 13.9428 17.001 13.6971 16.5635C13.4531 16.1277 13.6741 15.8884 13.8845 15.6714C14.073 15.4754 14.3019 15.1613 14.5123 14.9058C14.7209 14.6503 14.7933 14.4682 14.933 14.1777C15.0727 13.8872 15.0012 13.6309 14.8968 13.4121C14.7925 13.1934 13.9754 11.0364 13.6018 10.1719C13.2871 9.44563 12.9548 9.42875 12.6552 9.4165C12.4112 9.406 12.1326 9.40625 11.8532 9.40625Z" fill="#E4D2BD"/>
</svg>
