<svg width="25" height="29" viewBox="0 0 25 29" fill="none" xmlns="http://www.w3.org/2000/svg">
<g clip-path="url(#clip0_821_1292)">
<path d="M6.32981 1.95667L8.12439 4.29541L7.47657 4.7925C7.61845 4.83726 7.7064 4.86827 7.79672 4.89294C9.64487 5.38781 11.4936 5.87867 13.3389 6.3829C13.4975 6.42938 13.6384 6.52239 13.7435 6.64989C14.4612 7.56399 15.1645 8.49001 15.8714 9.41241C16.4292 10.1393 16.5319 10.5087 16.4363 11.4251C17.0513 11.4376 17.5888 11.6423 17.9844 12.1285C18.3801 12.6147 18.4854 13.1818 18.3584 13.7935C19.7897 13.9359 20.4553 15.1131 20.1673 16.2793C20.2006 16.2902 20.2348 16.2985 20.2694 16.304C20.9335 16.3628 21.4479 16.681 21.8483 17.2052C22.5125 18.0708 23.183 18.9317 23.8406 19.8016C24.659 20.8905 24.4811 22.1249 23.3981 22.9569C22.9158 23.327 22.4281 23.6948 21.9532 24.071C21.8597 24.1485 21.7866 24.2477 21.7403 24.36C21.589 24.7548 21.3275 25.0978 20.9869 25.3483C20.6817 25.5653 20.3845 25.7952 20.0674 25.9942C19.9171 26.0918 19.7449 26.1507 19.5663 26.1655C19.2002 26.1807 18.9367 26.3684 18.6698 26.5823C18.2509 26.9173 17.8223 27.2443 17.3929 27.5621C16.938 27.9062 16.3656 28.0569 15.8002 27.9815C15.2348 27.9061 14.7219 27.6107 14.373 27.1594C13.6754 26.2633 12.9841 25.3623 12.2985 24.4571C11.9088 23.9492 11.8371 23.5931 11.892 22.6319C10.5645 22.5788 9.7412 21.4611 9.98194 20.2345C8.67707 20.1414 7.87243 19.0257 8.16961 17.7548C7.61859 17.7186 7.12295 17.5413 6.72215 17.1486C6.61511 17.041 6.51558 16.9263 6.42428 16.8051C5.72164 15.8894 5.02455 14.9704 4.3121 14.0631C4.14886 13.8658 4.06406 13.6152 4.07393 13.3593C4.1008 11.4736 4.10931 9.58751 4.12197 7.70093C4.12098 7.61132 4.11715 7.52389 4.1163 7.39442L3.40876 7.93734L1.60283 5.5838L6.32981 1.95667ZM21.4744 22.2823C21.6156 22.577 21.7399 22.8367 21.8715 23.1107L22.9294 22.299C23.6313 21.7604 23.7396 21.0149 23.2067 20.3051C22.5444 19.4278 21.8752 18.5557 21.1992 17.6888C20.6735 17.0132 19.9634 16.931 19.2756 17.4524C19.0794 17.603 18.8831 17.7536 18.6778 17.9111L18.1847 17.2684C18.469 17.0502 18.7541 16.8459 19.0213 16.6264C19.5179 16.2137 19.5997 15.5501 19.2287 15.0702C18.8578 14.5904 18.2004 14.5038 17.6747 14.8856C17.4419 15.0533 17.2236 15.2398 16.986 15.4013C16.9292 15.445 16.7875 15.4488 16.7498 15.4091C16.6043 15.2437 16.4677 15.0708 16.3405 14.8909C16.5162 14.7561 16.6641 14.6426 16.812 14.5291C16.9925 14.3975 17.164 14.2541 17.3256 14.0998C17.4325 13.988 17.5142 13.8546 17.5652 13.7085C17.6161 13.5625 17.6352 13.4072 17.6212 13.2532C17.6071 13.0992 17.5602 12.9499 17.4836 12.8156C17.407 12.6812 17.3025 12.5648 17.1771 12.4742C16.7674 12.1759 16.2724 12.1807 15.8343 12.5025C15.5558 12.7071 15.2866 12.9227 15.0141 13.1318L14.5162 12.4828L15.0377 12.0826C15.797 11.5 15.893 10.7784 15.3101 10.0139C14.6947 9.21199 14.0793 8.41004 13.464 7.60808C13.412 7.5404 13.3506 7.47913 13.2923 7.41266L5.07316 13.7195L5.24773 13.947C5.85233 14.7349 6.45678 15.5226 7.06108 16.3102C7.63891 17.0632 8.41164 17.167 9.16458 16.5937C10.1724 15.8204 11.1803 15.047 12.1881 14.2737L12.4469 14.0751L12.9409 14.719L9.52837 17.3375C9.45045 17.3973 9.37196 17.4575 9.29841 17.523C9.08892 17.7095 8.95993 17.97 8.93856 18.2496C8.91719 18.5292 9.00512 18.8063 9.18384 19.0224C9.57927 19.5142 10.2321 19.5736 10.7843 19.1498C11.8685 18.3251 12.9422 17.494 14.0211 16.6661L14.2777 16.4693L14.7678 17.108L14.53 17.2904C13.827 17.8298 13.1242 18.3691 12.4216 18.9082C12.003 19.2294 11.5769 19.542 11.1706 19.8781C10.6652 20.2958 10.6313 20.9877 11.0724 21.4707C11.4682 21.9052 12.096 21.9368 12.6229 21.5352C13.7066 20.71 14.7802 19.8799 15.8591 19.052L16.1122 18.8577L16.6023 19.4965L16.3418 19.6964C15.2913 20.5024 14.2373 21.304 13.1929 22.118C12.6044 22.5769 12.4839 23.3597 12.9147 23.9328C13.6087 24.8545 14.311 25.7698 15.0217 26.6788C15.4061 27.1727 16.0986 27.3697 16.6343 27.0562C17.1403 26.7583 17.5818 26.3491 18.0419 25.996C17.8302 25.8096 17.6155 25.6193 17.3915 25.4216L18.0381 24.9253C18.674 25.5562 19.337 25.5959 20.0382 25.0588C20.2156 24.9226 20.3953 24.7893 20.5706 24.6503C20.8112 24.4613 20.9794 24.1951 21.0466 23.8966C21.1138 23.5981 21.0761 23.2855 20.9397 23.0116C20.9024 22.9336 20.8667 22.8552 20.8307 22.7789L21.4744 22.2823ZM4.9256 12.7664L12.4566 6.98767C12.4178 6.96964 12.3781 6.95366 12.3376 6.9398C10.4984 6.44917 8.65882 5.9607 6.81874 5.47439C6.71149 5.45881 6.60237 5.48552 6.51443 5.54886C6.03892 5.89837 5.56808 6.25514 5.11016 6.62639C5.01197 6.718 4.95157 6.84299 4.94079 6.97684C4.92142 7.35316 4.93312 7.72642 4.93223 8.10211C4.92995 9.64186 4.92763 11.178 4.9256 12.7664ZM2.75986 5.72795L3.55764 6.76764L6.98671 4.13643L6.18892 3.09673L2.75986 5.72795Z" fill="black"/>
<path d="M13.8206 13.0401L14.2928 13.6555L13.6382 14.1578L13.166 13.5424L13.8206 13.0401Z" fill="black"/>
<path d="M17.492 17.8307L17.9594 18.4398L17.3053 18.9417L16.8379 18.3326L17.492 17.8307Z" fill="black"/>
<path d="M15.6577 15.433L16.1273 16.045L15.4732 16.5469L15.0036 15.9349L15.6577 15.433Z" fill="black"/>
<path d="M6.112 8.65267L6.57766 9.25953L5.92074 9.76361L5.45508 9.15674L6.112 8.65267Z" fill="black"/>
<path d="M6.42234 10.4703L5.76542 10.9744L5.29626 10.363L5.95318 9.8589L6.42234 10.4703Z" fill="black"/>
</g>
<defs>
<clipPath id="clip0_821_1292">
<rect width="23.9643" height="27.2321" fill="white" transform="translate(0.857239 0.874939)"/>
</clipPath>
</defs>
</svg>
