<svg width="15" height="29" viewBox="0 0 15 29" fill="none" xmlns="http://www.w3.org/2000/svg">
<g clip-path="url(#clip0_821_1306)">
<path d="M12.8907 27.0133C11.6952 26.4149 10.5006 25.815 9.30132 25.2252C9.14148 25.1469 9.093 25.0568 9.09353 24.8821C9.10028 22.9317 9.10028 20.9815 9.09353 19.0315C9.09353 18.8525 9.13988 18.7885 9.32103 18.7251C9.92842 18.512 10.5534 18.3165 11.1149 18.0101C12.464 17.2754 13.5485 16.1358 14.2155 14.752C14.8825 13.3681 15.0984 11.8099 14.8328 10.2969C14.5936 8.94783 14.2419 7.61851 13.9393 6.28066C13.5681 4.64072 13.1952 3.00096 12.8204 1.36138C12.7426 1.02252 12.5663 0.881865 12.2226 0.87707C11.9392 0.873341 11.6552 0.87707 11.3702 0.87707C10.8203 0.87707 10.2705 0.873341 9.7185 0.87707C9.37751 0.880267 9.14414 1.10564 9.14627 1.40986C9.14841 1.71409 9.3823 1.92774 9.72649 1.93733C9.82399 1.93999 9.92149 1.93733 10.019 1.93733H11.8609C12.505 4.78085 13.1444 7.60359 13.788 10.4428C13.2142 10.2153 12.6899 9.98571 12.1486 9.79497C11.2641 9.48755 10.3605 9.27336 9.41267 9.44386C8.60815 9.58824 7.88888 9.95108 7.17494 10.3262C6.57128 10.6426 5.96869 10.9618 5.35492 11.2564C4.50245 11.6661 3.64998 11.64 2.84599 11.1312C2.38353 10.8392 1.95623 10.4919 1.50921 10.1722C1.34138 10.0534 1.31368 9.92071 1.36056 9.71931C1.85393 7.58281 2.33771 5.44151 2.82468 3.30181C2.93124 2.84628 3.0378 2.39553 3.14436 1.94053C3.89027 1.94053 4.61007 1.94053 5.32881 1.94053C5.71508 1.94053 5.95804 1.73114 5.95804 1.40773C5.95804 1.08433 5.71455 0.877603 5.32881 0.874939C4.49516 0.874939 3.6617 0.874939 2.82841 0.874939C2.42722 0.874939 2.26525 1.00281 2.17574 1.39122C1.57421 4.00457 0.980148 6.61899 0.373829 9.23074C0.120753 10.3171 -0.0417495 11.4051 0.120753 12.5213C0.562438 15.5582 2.70533 17.9558 5.68418 18.7289C5.87652 18.7789 5.91169 18.8573 5.91115 19.0336C5.90582 20.9836 5.90582 22.9337 5.91115 24.8837C5.91115 25.0782 5.83709 25.1591 5.67726 25.238C4.47954 25.8305 3.28555 26.4309 2.09049 27.0292C1.51934 27.3164 1.4927 27.7474 2.02549 28.1071H12.9808C13.5184 27.7405 13.4832 27.3095 12.8907 27.0133ZM1.16343 12.2016C1.13306 11.9048 1.12507 11.6054 1.10535 11.2911C1.61577 11.607 2.06758 11.9197 2.54869 12.1782C3.50772 12.6939 4.52003 12.7578 5.52115 12.3257C6.29903 11.989 7.03588 11.5585 7.80577 11.2015C8.36573 10.9447 8.93422 10.6826 9.52562 10.5185C10.3174 10.3006 11.0936 10.5409 11.8348 10.8163C12.4741 11.0534 13.0831 11.3587 13.7097 11.6251C13.8631 11.6906 13.8849 11.7903 13.8748 11.9384C13.6335 15.4133 10.6035 18.0895 7.12965 17.8876C4.05011 17.708 1.47778 15.2604 1.16343 12.2032V12.2016ZM4.49179 27.0186L5.20733 26.6621C5.6666 26.4325 6.12374 26.1992 6.58514 25.9748C6.85473 25.8443 6.97408 25.645 6.97301 25.3419C6.96715 23.3306 6.96981 21.3188 6.96981 19.3069V18.9633H8.0354V19.283C8.0354 21.2857 8.0402 23.2885 8.03061 25.2913C8.03061 25.6376 8.15581 25.8502 8.46963 25.9988C9.14095 26.3185 9.80161 26.6605 10.523 27.0228L4.49179 27.0186Z" fill="black"/>
<path d="M8.08514 1.42156C8.08457 1.49197 8.06997 1.56157 8.0422 1.62628C8.01443 1.69099 7.97404 1.74952 7.9234 1.79845C7.87276 1.84738 7.81288 1.88573 7.74725 1.91127C7.68163 1.9368 7.61157 1.949 7.54118 1.94716C7.47078 1.94532 7.40146 1.92948 7.33726 1.90055C7.27306 1.87162 7.21526 1.83019 7.16725 1.77868C7.11923 1.72717 7.08196 1.66661 7.05761 1.60054C7.03326 1.53447 7.02231 1.4642 7.02542 1.39385C7.03154 1.25504 7.09192 1.12417 7.19356 1.02943C7.29521 0.934685 7.42998 0.883635 7.56889 0.887266C7.70779 0.890898 7.83972 0.94892 7.93627 1.04885C8.03282 1.14877 8.08628 1.28261 8.08514 1.42156Z" fill="black"/>
</g>
<defs>
<clipPath id="clip0_821_1306">
<rect width="14.8916" height="27.2321" fill="white" transform="translate(0.0542603 0.874939)"/>
</clipPath>
</defs>
</svg>
